<?xml version="1.0" encoding="UTF-8" ?>
<svg version="1.1" width="64" height="64" xmlns="http://www.w3.org/2000/svg" shape-rendering="crispEdges">
<rect x="13" y="9" width="38" height="1" fill="#000000" />
<rect x="12" y="10" width="1" height="1" fill="#000000" />
<rect x="13" y="10" width="18" height="1" fill="#4C5AAF" />
<rect x="31" y="10" width="2" height="2" fill="#000000" />
<rect x="33" y="10" width="18" height="1" fill="#4C5AAF" />
<rect x="51" y="10" width="1" height="1" fill="#000000" />
<rect x="11" y="11" width="1" height="18" fill="#000000" />
<rect x="12" y="11" width="1" height="18" fill="#4C5AAF" />
<rect x="13" y="11" width="18" height="2" fill="#364394" />
<rect x="33" y="11" width="18" height="2" fill="#364394" />
<rect x="51" y="11" width="1" height="18" fill="#4C5AAF" />
<rect x="52" y="11" width="1" height="7" fill="#000000" />
<rect x="31" y="12" width="2" height="1" fill="#364394" />
<rect x="13" y="13" width="6" height="4" fill="#364394" />
<rect x="19" y="13" width="26" height="1" fill="#000000" />
<rect x="45" y="13" width="6" height="4" fill="#364394" />
<rect x="19" y="14" width="1" height="14" fill="#000000" />
<rect x="20" y="14" width="24" height="13" fill="#342C2C" />
<rect x="44" y="14" width="1" height="14" fill="#000000" />
<rect x="13" y="17" width="2" height="2" fill="#364394" />
<rect x="15" y="17" width="1" height="1" fill="#2B3781" />
<rect x="16" y="17" width="3" height="2" fill="#364394" />
<rect x="45" y="17" width="3" height="2" fill="#364394" />
<rect x="48" y="17" width="1" height="1" fill="#2B3781" />
<rect x="49" y="17" width="2" height="2" fill="#364394" />
<rect x="15" y="18" width="1" height="1" fill="#364394" />
<rect x="48" y="18" width="1" height="1" fill="#364394" />
<rect x="52" y="18" width="1" height="2" fill="#B0B1BA" />
<rect x="13" y="19" width="1" height="1" fill="#2B3781" />
<rect x="14" y="19" width="1" height="9" fill="#364394" />
<rect x="15" y="19" width="1" height="1" fill="#2B3781" />
<rect x="16" y="19" width="1" height="9" fill="#364394" />
<rect x="17" y="19" width="1" height="1" fill="#2B3781" />
<rect x="18" y="19" width="1" height="9" fill="#364394" />
<rect x="45" y="19" width="1" height="9" fill="#364394" />
<rect x="46" y="19" width="1" height="1" fill="#2B3781" />
<rect x="47" y="19" width="1" height="9" fill="#364394" />
<rect x="48" y="19" width="1" height="1" fill="#2B3781" />
<rect x="49" y="19" width="1" height="9" fill="#364394" />
<rect x="50" y="19" width="1" height="1" fill="#2B3781" />
<rect x="13" y="20" width="1" height="8" fill="#364394" />
<rect x="15" y="20" width="1" height="1" fill="#364394" />
<rect x="17" y="20" width="1" height="8" fill="#364394" />
<rect x="46" y="20" width="1" height="8" fill="#364394" />
<rect x="48" y="20" width="1" height="1" fill="#364394" />
<rect x="50" y="20" width="1" height="8" fill="#364394" />
<rect x="52" y="20" width="1" height="3" fill="#292929" />
<rect x="15" y="21" width="1" height="1" fill="#2B3781" />
<rect x="48" y="21" width="1" height="1" fill="#2B3781" />
<rect x="15" y="22" width="1" height="6" fill="#364394" />
<rect x="48" y="22" width="1" height="6" fill="#364394" />
<rect x="52" y="23" width="1" height="6" fill="#000000" />
<rect x="20" y="27" width="24" height="1" fill="#000000" />
<rect x="13" y="28" width="38" height="1" fill="#2B3781" />
<rect x="12" y="29" width="40" height="1" fill="#000000" />
<rect x="11" y="30" width="1" height="1" fill="#000000" />
<rect x="12" y="30" width="3" height="1" fill="#364394" />
<rect x="15" y="30" width="1" height="2" fill="#000000" />
<rect x="16" y="30" width="32" height="1" fill="#364394" />
<rect x="48" y="30" width="1" height="2" fill="#000000" />
<rect x="49" y="30" width="3" height="1" fill="#364394" />
<rect x="52" y="30" width="1" height="1" fill="#000000" />
<rect x="12" y="31" width="3" height="1" fill="#000000" />
<rect x="16" y="31" width="32" height="1" fill="#000000" />
<rect x="49" y="31" width="3" height="1" fill="#000000" />
<rect x="11" y="32" width="1" height="21" fill="#000000" />
<rect x="12" y="32" width="40" height="1" fill="#384594" />
<rect x="52" y="32" width="1" height="21" fill="#000000" />
<rect x="12" y="33" width="1" height="20" fill="#505DAD" />
<rect x="13" y="33" width="38" height="1" fill="#4451A2" />
<rect x="51" y="33" width="1" height="20" fill="#505DAD" />
<rect x="13" y="34" width="3" height="1" fill="#4451A2" />
<rect x="16" y="34" width="2" height="1" fill="#3D4A97" />
<rect x="18" y="34" width="33" height="1" fill="#4451A2" />
<rect x="13" y="35" width="2" height="1" fill="#4451A2" />
<rect x="15" y="35" width="1" height="1" fill="#3D4A97" />
<rect x="16" y="35" width="2" height="5" fill="#A7A7A7" />
<rect x="18" y="35" width="1" height="1" fill="#3D4A97" />
<rect x="19" y="35" width="3" height="1" fill="#4451A2" />
<rect x="22" y="35" width="20" height="1" fill="#000000" />
<rect x="42" y="35" width="4" height="3" fill="#4451A2" />
<rect x="46" y="35" width="2" height="2" fill="#2D3773" />
<rect x="48" y="35" width="3" height="3" fill="#4451A2" />
<rect x="13" y="36" width="1" height="1" fill="#4451A2" />
<rect x="14" y="36" width="1" height="1" fill="#3D4A97" />
<rect x="15" y="36" width="1" height="3" fill="#A7A7A7" />
<rect x="18" y="36" width="1" height="3" fill="#A7A7A7" />
<rect x="19" y="36" width="1" height="1" fill="#3D4A97" />
<rect x="20" y="36" width="2" height="1" fill="#4451A2" />
<rect x="22" y="36" width="1" height="17" fill="#000000" />
<rect x="23" y="36" width="18" height="14" fill="#342C2C" />
<rect x="41" y="36" width="1" height="17" fill="#000000" />
<rect x="13" y="37" width="1" height="2" fill="#3D4A97" />
<rect x="14" y="37" width="1" height="1" fill="#A7A7A7" />
<rect x="19" y="37" width="1" height="1" fill="#A7A7A7" />
<rect x="20" y="37" width="1" height="2" fill="#3D4A97" />
<rect x="21" y="37" width="1" height="16" fill="#4451A2" />
<rect x="46" y="37" width="2" height="4" fill="#4451A2" />
<rect x="14" y="38" width="1" height="1" fill="#9A9595" />
<rect x="19" y="38" width="1" height="1" fill="#9A9595" />
<rect x="42" y="38" width="1" height="15" fill="#4451A2" />
<rect x="43" y="38" width="2" height="2" fill="#2D3773" />
<rect x="45" y="38" width="1" height="10" fill="#4451A2" />
<rect x="48" y="38" width="1" height="10" fill="#4451A2" />
<rect x="49" y="38" width="2" height="2" fill="#2D3773" />
<rect x="13" y="39" width="1" height="14" fill="#4451A2" />
<rect x="14" y="39" width="1" height="1" fill="#3D4A97" />
<rect x="15" y="39" width="1" height="1" fill="#9A9595" />
<rect x="18" y="39" width="1" height="1" fill="#9A9595" />
<rect x="19" y="39" width="1" height="1" fill="#3D4A97" />
<rect x="20" y="39" width="1" height="14" fill="#4451A2" />
<rect x="14" y="40" width="1" height="7" fill="#4451A2" />
<rect x="15" y="40" width="1" height="1" fill="#3D4A97" />
<rect x="16" y="40" width="2" height="1" fill="#9A9595" />
<rect x="18" y="40" width="1" height="1" fill="#3D4A97" />
<rect x="19" y="40" width="1" height="7" fill="#4451A2" />
<rect x="43" y="40" width="2" height="8" fill="#4451A2" />
<rect x="49" y="40" width="2" height="13" fill="#4451A2" />
<rect x="15" y="41" width="1" height="6" fill="#4451A2" />
<rect x="16" y="41" width="2" height="1" fill="#3D4A97" />
<rect x="18" y="41" width="1" height="6" fill="#4451A2" />
<rect x="46" y="41" width="2" height="2" fill="#2D3773" />
<rect x="16" y="42" width="2" height="3" fill="#4451A2" />
<rect x="46" y="43" width="2" height="5" fill="#4451A2" />
<rect x="16" y="45" width="2" height="5" fill="#2D3773" />
<rect x="14" y="47" width="2" height="1" fill="#2D3773" />
<rect x="18" y="47" width="2" height="1" fill="#2D3773" />
<rect x="14" y="48" width="2" height="1" fill="#283065" />
<rect x="18" y="48" width="2" height="1" fill="#283065" />
<rect x="43" y="48" width="1" height="5" fill="#4451A2" />
<rect x="44" y="48" width="2" height="2" fill="#2D3773" />
<rect x="46" y="48" width="3" height="2" fill="#676FA5" />
<rect x="14" y="49" width="2" height="4" fill="#4451A2" />
<rect x="18" y="49" width="2" height="4" fill="#4451A2" />
<rect x="16" y="50" width="2" height="1" fill="#283065" />
<rect x="23" y="50" width="18" height="1" fill="#000000" />
<rect x="44" y="50" width="5" height="3" fill="#4451A2" />
<rect x="16" y="51" width="2" height="2" fill="#4451A2" />
<rect x="23" y="51" width="5" height="1" fill="#2E3A89" />
<rect x="28" y="51" width="1" height="2" fill="#000000" />
<rect x="29" y="51" width="6" height="1" fill="#2E3A89" />
<rect x="35" y="51" width="1" height="2" fill="#000000" />
<rect x="36" y="51" width="5" height="1" fill="#2E3A89" />
<rect x="23" y="52" width="5" height="1" fill="#000000" />
<rect x="29" y="52" width="6" height="1" fill="#000000" />
<rect x="36" y="52" width="5" height="1" fill="#000000" />
<rect x="12" y="53" width="1" height="1" fill="#000000" />
<rect x="13" y="53" width="1" height="1" fill="#505DAD" />
<rect x="14" y="53" width="36" height="1" fill="#3B4791" />
<rect x="50" y="53" width="1" height="1" fill="#505DAD" />
<rect x="51" y="53" width="1" height="1" fill="#000000" />
<rect x="13" y="54" width="38" height="1" fill="#000000" />
</svg>