<?xml version="1.0" encoding="UTF-8" ?>
<svg version="1.1" width="64" height="64" xmlns="http://www.w3.org/2000/svg" shape-rendering="crispEdges">
<rect x="14" y="10" width="36" height="1" fill="#000000" />
<rect x="13" y="11" width="1" height="1" fill="#000000" />
<rect x="14" y="11" width="36" height="1" fill="#555454" />
<rect x="50" y="11" width="1" height="1" fill="#000000" />
<rect x="12" y="12" width="1" height="16" fill="#000000" />
<rect x="13" y="12" width="2" height="1" fill="#555454" />
<rect x="15" y="12" width="5" height="7" fill="#474343" />
<rect x="20" y="12" width="24" height="1" fill="#000000" />
<rect x="44" y="12" width="5" height="7" fill="#474343" />
<rect x="49" y="12" width="2" height="1" fill="#555454" />
<rect x="51" y="12" width="1" height="16" fill="#000000" />
<rect x="13" y="13" width="1" height="15" fill="#555454" />
<rect x="14" y="13" width="1" height="6" fill="#474343" />
<rect x="20" y="13" width="1" height="15" fill="#000000" />
<rect x="21" y="13" width="22" height="14" fill="#636060" />
<rect x="43" y="13" width="1" height="15" fill="#000000" />
<rect x="49" y="13" width="1" height="6" fill="#474343" />
<rect x="50" y="13" width="1" height="15" fill="#555454" />
<rect x="14" y="19" width="1" height="1" fill="#000000" />
<rect x="15" y="19" width="1" height="8" fill="#474343" />
<rect x="16" y="19" width="1" height="1" fill="#000000" />
<rect x="17" y="19" width="1" height="10" fill="#474343" />
<rect x="18" y="19" width="1" height="1" fill="#000000" />
<rect x="19" y="19" width="1" height="10" fill="#474343" />
<rect x="44" y="19" width="1" height="10" fill="#474343" />
<rect x="45" y="19" width="1" height="1" fill="#000000" />
<rect x="46" y="19" width="1" height="10" fill="#474343" />
<rect x="47" y="19" width="1" height="1" fill="#000000" />
<rect x="48" y="19" width="1" height="8" fill="#474343" />
<rect x="49" y="19" width="1" height="1" fill="#000000" />
<rect x="14" y="20" width="1" height="1" fill="#474343" />
<rect x="16" y="20" width="1" height="1" fill="#474343" />
<rect x="18" y="20" width="1" height="1" fill="#474343" />
<rect x="45" y="20" width="1" height="1" fill="#474343" />
<rect x="47" y="20" width="1" height="1" fill="#474343" />
<rect x="49" y="20" width="1" height="1" fill="#474343" />
<rect x="14" y="21" width="1" height="1" fill="#000000" />
<rect x="16" y="21" width="1" height="1" fill="#000000" />
<rect x="18" y="21" width="1" height="1" fill="#000000" />
<rect x="45" y="21" width="1" height="1" fill="#000000" />
<rect x="47" y="21" width="1" height="1" fill="#000000" />
<rect x="49" y="21" width="1" height="1" fill="#000000" />
<rect x="14" y="22" width="1" height="5" fill="#474343" />
<rect x="16" y="22" width="1" height="6" fill="#474343" />
<rect x="18" y="22" width="1" height="7" fill="#474343" />
<rect x="45" y="22" width="1" height="7" fill="#474343" />
<rect x="47" y="22" width="1" height="6" fill="#474343" />
<rect x="49" y="22" width="1" height="5" fill="#474343" />
<rect x="14" y="27" width="2" height="1" fill="#3F3A3A" />
<rect x="21" y="27" width="22" height="1" fill="#000000" />
<rect x="48" y="27" width="2" height="1" fill="#3F3A3A" />
<rect x="13" y="28" width="3" height="1" fill="#000000" />
<rect x="16" y="28" width="1" height="1" fill="#3F3A3A" />
<rect x="20" y="28" width="24" height="1" fill="#474343" />
<rect x="47" y="28" width="1" height="1" fill="#3F3A3A" />
<rect x="48" y="28" width="3" height="1" fill="#000000" />
<rect x="16" y="29" width="1" height="4" fill="#000000" />
<rect x="17" y="29" width="30" height="1" fill="#3F3A3A" />
<rect x="47" y="29" width="1" height="4" fill="#000000" />
<rect x="13" y="30" width="3" height="1" fill="#000000" />
<rect x="17" y="30" width="30" height="1" fill="#000000" />
<rect x="48" y="30" width="3" height="1" fill="#000000" />
<rect x="12" y="31" width="1" height="1" fill="#000000" />
<rect x="13" y="31" width="3" height="1" fill="#3C3A3A" />
<rect x="17" y="31" width="14" height="1" fill="#3C3A3A" />
<rect x="31" y="31" width="2" height="2" fill="#000000" />
<rect x="33" y="31" width="14" height="1" fill="#3C3A3A" />
<rect x="48" y="31" width="3" height="1" fill="#3C3A3A" />
<rect x="51" y="31" width="1" height="1" fill="#000000" />
<rect x="13" y="32" width="3" height="1" fill="#000000" />
<rect x="17" y="32" width="14" height="1" fill="#000000" />
<rect x="33" y="32" width="14" height="1" fill="#000000" />
<rect x="48" y="32" width="3" height="1" fill="#000000" />
<rect x="12" y="33" width="1" height="19" fill="#000000" />
<rect x="13" y="33" width="38" height="1" fill="#3F3A3A" />
<rect x="51" y="33" width="1" height="19" fill="#000000" />
<rect x="13" y="34" width="2" height="1" fill="#3F3A3A" />
<rect x="15" y="34" width="34" height="1" fill="#474343" />
<rect x="49" y="34" width="2" height="1" fill="#3F3A3A" />
<rect x="13" y="35" width="1" height="1" fill="#3F3A3A" />
<rect x="14" y="35" width="6" height="4" fill="#474343" />
<rect x="20" y="35" width="24" height="1" fill="#000000" />
<rect x="44" y="35" width="6" height="1" fill="#474343" />
<rect x="50" y="35" width="1" height="1" fill="#3F3A3A" />
<rect x="13" y="36" width="1" height="14" fill="#505050" />
<rect x="20" y="36" width="1" height="15" fill="#000000" />
<rect x="21" y="36" width="22" height="14" fill="#636060" />
<rect x="43" y="36" width="1" height="15" fill="#000000" />
<rect x="44" y="36" width="2" height="2" fill="#474343" />
<rect x="46" y="36" width="2" height="2" fill="#3C3737" />
<rect x="48" y="36" width="2" height="2" fill="#474343" />
<rect x="50" y="36" width="1" height="14" fill="#505050" />
<rect x="44" y="38" width="2" height="2" fill="#3C3737" />
<rect x="46" y="38" width="2" height="2" fill="#474343" />
<rect x="48" y="38" width="2" height="2" fill="#3C3737" />
<rect x="14" y="39" width="2" height="2" fill="#474343" />
<rect x="16" y="39" width="2" height="5" fill="#312C2C" />
<rect x="18" y="39" width="2" height="2" fill="#474343" />
<rect x="44" y="40" width="2" height="7" fill="#474343" />
<rect x="46" y="40" width="2" height="2" fill="#3C3737" />
<rect x="48" y="40" width="2" height="7" fill="#474343" />
<rect x="14" y="41" width="2" height="1" fill="#312C2C" />
<rect x="18" y="41" width="2" height="1" fill="#312C2C" />
<rect x="14" y="42" width="2" height="1" fill="#242020" />
<rect x="18" y="42" width="2" height="1" fill="#242020" />
<rect x="46" y="42" width="2" height="5" fill="#474343" />
<rect x="14" y="43" width="2" height="9" fill="#474343" />
<rect x="18" y="43" width="2" height="9" fill="#474343" />
<rect x="16" y="44" width="2" height="1" fill="#242020" />
<rect x="16" y="45" width="2" height="7" fill="#474343" />
<rect x="44" y="47" width="1" height="5" fill="#474343" />
<rect x="45" y="47" width="1" height="1" fill="#000000" />
<rect x="46" y="47" width="4" height="1" fill="#2F2D2D" />
<rect x="45" y="48" width="5" height="1" fill="#474343" />
<rect x="45" y="49" width="1" height="1" fill="#000000" />
<rect x="46" y="49" width="4" height="1" fill="#2F2D2D" />
<rect x="13" y="50" width="1" height="2" fill="#3F3A3A" />
<rect x="21" y="50" width="22" height="1" fill="#000000" />
<rect x="45" y="50" width="5" height="2" fill="#474343" />
<rect x="50" y="50" width="1" height="2" fill="#3F3A3A" />
<rect x="20" y="51" width="24" height="1" fill="#474343" />
<rect x="13" y="52" width="1" height="1" fill="#000000" />
<rect x="14" y="52" width="36" height="1" fill="#3F3A3A" />
<rect x="50" y="52" width="1" height="1" fill="#000000" />
<rect x="14" y="53" width="36" height="1" fill="#000000" />
</svg>