<?xml version="1.0" encoding="UTF-8" ?>
<svg version="1.1" width="64" height="64" xmlns="http://www.w3.org/2000/svg" shape-rendering="crispEdges">
<rect x="14" y="3" width="36" height="1" fill="#000000" />
<rect x="13" y="4" width="1" height="1" fill="#000000" />
<rect x="14" y="4" width="36" height="1" fill="#D5E8ED" />
<rect x="50" y="4" width="1" height="1" fill="#000000" />
<rect x="12" y="5" width="1" height="53" fill="#000000" />
<rect x="13" y="5" width="1" height="1" fill="#D5E8ED" />
<rect x="14" y="5" width="36" height="2" fill="#CCDEE3" />
<rect x="50" y="5" width="1" height="1" fill="#D5E8ED" />
<rect x="51" y="5" width="1" height="49" fill="#000000" />
<rect x="13" y="6" width="1" height="51" fill="#CCDEE3" />
<rect x="50" y="6" width="1" height="47" fill="#CCDEE3" />
<rect x="14" y="7" width="3" height="1" fill="#CCDEE3" />
<rect x="17" y="7" width="30" height="1" fill="#000000" />
<rect x="47" y="7" width="3" height="1" fill="#CCDEE3" />
<rect x="14" y="8" width="2" height="31" fill="#CCDEE3" />
<rect x="16" y="8" width="1" height="21" fill="#000000" />
<rect x="17" y="8" width="30" height="2" fill="#7C8283" />
<rect x="47" y="8" width="1" height="17" fill="#000000" />
<rect x="48" y="8" width="2" height="30" fill="#CCDEE3" />
<rect x="17" y="10" width="4" height="4" fill="#7C8283" />
<rect x="21" y="10" width="22" height="1" fill="#000000" />
<rect x="43" y="10" width="4" height="15" fill="#7C8283" />
<rect x="21" y="11" width="1" height="16" fill="#000000" />
<rect x="22" y="11" width="20" height="2" fill="#A3ED5D" />
<rect x="42" y="11" width="1" height="16" fill="#000000" />
<rect x="22" y="13" width="16" height="6" fill="#A3ED5D" />
<rect x="38" y="13" width="2" height="5" fill="#B1FC6A" />
<rect x="40" y="13" width="2" height="13" fill="#A3ED5D" />
<rect x="17" y="14" width="2" height="2" fill="#AC3232" />
<rect x="19" y="14" width="2" height="15" fill="#7C8283" />
<rect x="17" y="16" width="2" height="13" fill="#7C8283" />
<rect x="38" y="18" width="1" height="5" fill="#B1FC6A" />
<rect x="39" y="18" width="1" height="8" fill="#A3ED5D" />
<rect x="22" y="19" width="15" height="4" fill="#A3ED5D" />
<rect x="37" y="19" width="1" height="6" fill="#B1FC6A" />
<rect x="22" y="23" width="14" height="3" fill="#A3ED5D" />
<rect x="36" y="23" width="1" height="2" fill="#B1FC6A" />
<rect x="38" y="23" width="1" height="3" fill="#A3ED5D" />
<rect x="36" y="25" width="2" height="1" fill="#A3ED5D" />
<rect x="43" y="25" width="3" height="2" fill="#7C8283" />
<rect x="46" y="25" width="1" height="2" fill="#000000" />
<rect x="47" y="25" width="1" height="12" fill="#CCDEE3" />
<rect x="22" y="26" width="20" height="1" fill="#000000" />
<rect x="21" y="27" width="24" height="1" fill="#7C8283" />
<rect x="45" y="27" width="1" height="1" fill="#000000" />
<rect x="46" y="27" width="1" height="10" fill="#CCDEE3" />
<rect x="21" y="28" width="22" height="1" fill="#7C8283" />
<rect x="43" y="28" width="2" height="1" fill="#000000" />
<rect x="45" y="28" width="1" height="9" fill="#CCDEE3" />
<rect x="16" y="29" width="1" height="10" fill="#CCDEE3" />
<rect x="17" y="29" width="26" height="1" fill="#000000" />
<rect x="43" y="29" width="2" height="9" fill="#CCDEE3" />
<rect x="17" y="30" width="26" height="6" fill="#CCDEE3" />
<rect x="17" y="36" width="1" height="3" fill="#CCDEE3" />
<rect x="18" y="36" width="4" height="9" fill="#211F1F" />
<rect x="22" y="36" width="21" height="3" fill="#CCDEE3" />
<rect x="45" y="37" width="3" height="4" fill="#211F1F" />
<rect x="43" y="38" width="1" height="20" fill="#CCDEE3" />
<rect x="44" y="38" width="1" height="2" fill="#211F1F" />
<rect x="48" y="38" width="1" height="2" fill="#211F1F" />
<rect x="49" y="38" width="1" height="16" fill="#CCDEE3" />
<rect x="14" y="39" width="1" height="19" fill="#CCDEE3" />
<rect x="15" y="39" width="3" height="3" fill="#211F1F" />
<rect x="22" y="39" width="3" height="3" fill="#211F1F" />
<rect x="25" y="39" width="18" height="2" fill="#CCDEE3" />
<rect x="44" y="40" width="1" height="1" fill="#121111" />
<rect x="48" y="40" width="1" height="1" fill="#121111" />
<rect x="25" y="41" width="14" height="1" fill="#CCDEE3" />
<rect x="39" y="41" width="3" height="4" fill="#211F1F" />
<rect x="42" y="41" width="1" height="1" fill="#CCDEE3" />
<rect x="44" y="41" width="1" height="17" fill="#CCDEE3" />
<rect x="45" y="41" width="3" height="1" fill="#121111" />
<rect x="48" y="41" width="1" height="15" fill="#CCDEE3" />
<rect x="15" y="42" width="3" height="1" fill="#121111" />
<rect x="22" y="42" width="3" height="1" fill="#121111" />
<rect x="25" y="42" width="13" height="9" fill="#CCDEE3" />
<rect x="38" y="42" width="1" height="2" fill="#211F1F" />
<rect x="42" y="42" width="1" height="2" fill="#211F1F" />
<rect x="45" y="42" width="3" height="15" fill="#CCDEE3" />
<rect x="15" y="43" width="3" height="15" fill="#CCDEE3" />
<rect x="22" y="43" width="3" height="15" fill="#CCDEE3" />
<rect x="38" y="44" width="1" height="1" fill="#121111" />
<rect x="42" y="44" width="1" height="1" fill="#121111" />
<rect x="18" y="45" width="4" height="1" fill="#121111" />
<rect x="38" y="45" width="1" height="13" fill="#CCDEE3" />
<rect x="39" y="45" width="3" height="1" fill="#121111" />
<rect x="42" y="45" width="1" height="13" fill="#CCDEE3" />
<rect x="18" y="46" width="4" height="12" fill="#CCDEE3" />
<rect x="39" y="46" width="3" height="12" fill="#CCDEE3" />
<rect x="25" y="51" width="3" height="1" fill="#CCDEE3" />
<rect x="28" y="51" width="3" height="1" fill="#211F1F" />
<rect x="31" y="51" width="3" height="1" fill="#CCDEE3" />
<rect x="34" y="51" width="3" height="1" fill="#211F1F" />
<rect x="37" y="51" width="1" height="7" fill="#CCDEE3" />
<rect x="25" y="52" width="1" height="6" fill="#CCDEE3" />
<rect x="26" y="52" width="3" height="1" fill="#211F1F" />
<rect x="29" y="52" width="2" height="1" fill="#121111" />
<rect x="31" y="52" width="1" height="6" fill="#CCDEE3" />
<rect x="32" y="52" width="3" height="1" fill="#211F1F" />
<rect x="35" y="52" width="2" height="1" fill="#121111" />
<rect x="26" y="53" width="3" height="1" fill="#121111" />
<rect x="29" y="53" width="2" height="5" fill="#CCDEE3" />
<rect x="32" y="53" width="3" height="1" fill="#121111" />
<rect x="35" y="53" width="2" height="5" fill="#CCDEE3" />
<rect x="50" y="53" width="1" height="1" fill="#ABBABF" />
<rect x="26" y="54" width="3" height="4" fill="#CCDEE3" />
<rect x="32" y="54" width="3" height="4" fill="#CCDEE3" />
<rect x="49" y="54" width="1" height="2" fill="#ABBABF" />
<rect x="50" y="54" width="1" height="2" fill="#000000" />
<rect x="48" y="56" width="1" height="1" fill="#ABBABF" />
<rect x="49" y="56" width="1" height="1" fill="#000000" />
<rect x="13" y="57" width="1" height="1" fill="#ABBABF" />
<rect x="45" y="57" width="3" height="1" fill="#ABBABF" />
<rect x="48" y="57" width="1" height="1" fill="#000000" />
<rect x="13" y="58" width="1" height="1" fill="#000000" />
<rect x="14" y="58" width="31" height="1" fill="#ABBABF" />
<rect x="45" y="58" width="3" height="1" fill="#000000" />
<rect x="14" y="59" width="31" height="1" fill="#000000" />
</svg>