<?xml version="1.0" encoding="UTF-8" ?>
<svg version="1.1" width="64" height="64" xmlns="http://www.w3.org/2000/svg" shape-rendering="crispEdges">
<rect x="10" y="15" width="7" height="1" fill="#000000" />
<rect x="18" y="15" width="27" height="1" fill="#000000" />
<rect x="47" y="15" width="7" height="1" fill="#000000" />
<rect x="6" y="16" width="4" height="1" fill="#000000" />
<rect x="10" y="16" width="5" height="1" fill="#9BADB7" />
<rect x="15" y="16" width="2" height="1" fill="#8197A2" />
<rect x="17" y="16" width="1" height="1" fill="#000000" />
<rect x="18" y="16" width="28" height="1" fill="#33335F" />
<rect x="46" y="16" width="1" height="1" fill="#000000" />
<rect x="47" y="16" width="2" height="1" fill="#8197A2" />
<rect x="49" y="16" width="5" height="1" fill="#9BADB7" />
<rect x="54" y="16" width="4" height="1" fill="#000000" />
<rect x="3" y="17" width="3" height="1" fill="#000000" />
<rect x="6" y="17" width="7" height="1" fill="#9BADB7" />
<rect x="13" y="17" width="2" height="1" fill="#8197A2" />
<rect x="15" y="17" width="2" height="1" fill="#000000" />
<rect x="17" y="17" width="1" height="1" fill="#33335F" />
<rect x="18" y="17" width="7" height="4" fill="#3F3F74" />
<rect x="25" y="17" width="13" height="1" fill="#3A3A64" />
<rect x="38" y="17" width="8" height="3" fill="#3F3F74" />
<rect x="46" y="17" width="1" height="1" fill="#33335F" />
<rect x="47" y="17" width="2" height="1" fill="#000000" />
<rect x="49" y="17" width="2" height="1" fill="#8197A2" />
<rect x="51" y="17" width="7" height="1" fill="#9BADB7" />
<rect x="58" y="17" width="3" height="1" fill="#000000" />
<rect x="2" y="18" width="1" height="1" fill="#000000" />
<rect x="3" y="18" width="7" height="1" fill="#9BADB7" />
<rect x="10" y="18" width="3" height="1" fill="#8197A2" />
<rect x="13" y="18" width="2" height="1" fill="#000000" />
<rect x="15" y="18" width="2" height="1" fill="#33335F" />
<rect x="17" y="18" width="1" height="5" fill="#3F3F74" />
<rect x="25" y="18" width="1" height="2" fill="#3F3F74" />
<rect x="26" y="18" width="11" height="1" fill="#3A3A64" />
<rect x="37" y="18" width="1" height="2" fill="#3F3F74" />
<rect x="46" y="18" width="1" height="5" fill="#3F3F74" />
<rect x="47" y="18" width="2" height="1" fill="#33335F" />
<rect x="49" y="18" width="2" height="1" fill="#000000" />
<rect x="51" y="18" width="3" height="1" fill="#8197A2" />
<rect x="54" y="18" width="7" height="1" fill="#9BADB7" />
<rect x="61" y="18" width="1" height="1" fill="#000000" />
<rect x="1" y="19" width="1" height="1" fill="#000000" />
<rect x="2" y="19" width="4" height="1" fill="#9BADB7" />
<rect x="6" y="19" width="4" height="1" fill="#8197A2" />
<rect x="10" y="19" width="3" height="1" fill="#000000" />
<rect x="13" y="19" width="2" height="1" fill="#33335F" />
<rect x="15" y="19" width="2" height="29" fill="#3F3F74" />
<rect x="26" y="19" width="11" height="1" fill="#3F3F74" />
<rect x="47" y="19" width="2" height="29" fill="#3F3F74" />
<rect x="49" y="19" width="2" height="1" fill="#33335F" />
<rect x="51" y="19" width="3" height="1" fill="#000000" />
<rect x="54" y="19" width="4" height="1" fill="#8197A2" />
<rect x="58" y="19" width="4" height="1" fill="#9BADB7" />
<rect x="62" y="19" width="1" height="1" fill="#000000" />
<rect x="0" y="20" width="1" height="3" fill="#000000" />
<rect x="1" y="20" width="2" height="1" fill="#9BADB7" />
<rect x="3" y="20" width="3" height="1" fill="#8197A2" />
<rect x="6" y="20" width="4" height="1" fill="#000000" />
<rect x="10" y="20" width="3" height="1" fill="#33335F" />
<rect x="13" y="20" width="2" height="7" fill="#3F3F74" />
<rect x="25" y="20" width="14" height="3" fill="#222034" />
<rect x="39" y="20" width="7" height="1" fill="#3F3F74" />
<rect x="49" y="20" width="2" height="9" fill="#3F3F74" />
<rect x="51" y="20" width="3" height="1" fill="#33335F" />
<rect x="54" y="20" width="4" height="1" fill="#000000" />
<rect x="58" y="20" width="3" height="1" fill="#8197A2" />
<rect x="61" y="20" width="2" height="1" fill="#9BADB7" />
<rect x="63" y="20" width="1" height="3" fill="#000000" />
<rect x="1" y="21" width="1" height="2" fill="#9BADB7" />
<rect x="2" y="21" width="1" height="1" fill="#8197A2" />
<rect x="3" y="21" width="3" height="1" fill="#000000" />
<rect x="6" y="21" width="4" height="1" fill="#33335F" />
<rect x="10" y="21" width="3" height="3" fill="#3F3F74" />
<rect x="18" y="21" width="3" height="1" fill="#3F3F74" />
<rect x="21" y="21" width="4" height="2" fill="#222034" />
<rect x="39" y="21" width="4" height="2" fill="#222034" />
<rect x="43" y="21" width="3" height="1" fill="#3F3F74" />
<rect x="51" y="21" width="1" height="8" fill="#3F3F74" />
<rect x="52" y="21" width="2" height="2" fill="#9BADB7" />
<rect x="54" y="21" width="4" height="1" fill="#33335F" />
<rect x="58" y="21" width="3" height="1" fill="#000000" />
<rect x="61" y="21" width="1" height="1" fill="#8197A2" />
<rect x="62" y="21" width="1" height="2" fill="#9BADB7" />
<rect x="2" y="22" width="1" height="22" fill="#000000" />
<rect x="3" y="22" width="3" height="1" fill="#33335F" />
<rect x="6" y="22" width="4" height="2" fill="#3F3F74" />
<rect x="18" y="22" width="3" height="1" fill="#222034" />
<rect x="43" y="22" width="3" height="1" fill="#222034" />
<rect x="54" y="22" width="4" height="4" fill="#3F3F74" />
<rect x="58" y="22" width="3" height="1" fill="#33335F" />
<rect x="61" y="22" width="1" height="22" fill="#000000" />
<rect x="1" y="23" width="1" height="1" fill="#000000" />
<rect x="3" y="23" width="1" height="21" fill="#33335F" />
<rect x="4" y="23" width="2" height="4" fill="#3F3F74" />
<rect x="17" y="23" width="2" height="20" fill="#222034" />
<rect x="19" y="23" width="26" height="1" fill="#000000" />
<rect x="45" y="23" width="2" height="20" fill="#222034" />
<rect x="52" y="23" width="2" height="6" fill="#3F3F74" />
<rect x="58" y="23" width="2" height="3" fill="#3F3F74" />
<rect x="60" y="23" width="1" height="21" fill="#33335F" />
<rect x="62" y="23" width="1" height="1" fill="#000000" />
<rect x="6" y="24" width="2" height="3" fill="#3F3F74" />
<rect x="8" y="24" width="4" height="9" fill="#9BADB7" />
<rect x="12" y="24" width="1" height="3" fill="#3F3F74" />
<rect x="19" y="24" width="1" height="18" fill="#000000" />
<rect x="20" y="24" width="24" height="1" fill="#375EA5" />
<rect x="44" y="24" width="1" height="18" fill="#000000" />
<rect x="20" y="25" width="24" height="1" fill="#3E64AA" />
<rect x="20" y="26" width="24" height="1" fill="#466BAD" />
<rect x="54" y="26" width="2" height="1" fill="#3F3F74" />
<rect x="56" y="26" width="3" height="4" fill="#9BADB7" />
<rect x="59" y="26" width="1" height="1" fill="#3F3F74" />
<rect x="4" y="27" width="1" height="17" fill="#3F3F74" />
<rect x="5" y="27" width="3" height="3" fill="#9BADB7" />
<rect x="12" y="27" width="3" height="3" fill="#9BADB7" />
<rect x="20" y="27" width="24" height="1" fill="#476CAF" />
<rect x="54" y="27" width="1" height="10" fill="#3F3F74" />
<rect x="55" y="27" width="1" height="2" fill="#9BADB7" />
<rect x="59" y="27" width="1" height="2" fill="#9BADB7" />
<rect x="20" y="28" width="24" height="1" fill="#5179C1" />
<rect x="20" y="29" width="24" height="1" fill="#5276B7" />
<rect x="49" y="29" width="1" height="1" fill="#3F3F74" />
<rect x="50" y="29" width="3" height="4" fill="#9BADB7" />
<rect x="53" y="29" width="1" height="1" fill="#3F3F74" />
<rect x="55" y="29" width="1" height="1" fill="#8A9DA7" />
<rect x="59" y="29" width="1" height="1" fill="#8A9DA7" />
<rect x="5" y="30" width="3" height="1" fill="#8A9DA7" />
<rect x="12" y="30" width="3" height="1" fill="#8A9DA7" />
<rect x="20" y="30" width="24" height="1" fill="#5A82C9" />
<rect x="49" y="30" width="1" height="2" fill="#9BADB7" />
<rect x="53" y="30" width="1" height="2" fill="#9BADB7" />
<rect x="55" y="30" width="1" height="7" fill="#3F3F74" />
<rect x="56" y="30" width="3" height="1" fill="#8A9DA7" />
<rect x="59" y="30" width="1" height="10" fill="#3F3F74" />
<rect x="5" y="31" width="3" height="6" fill="#3F3F74" />
<rect x="12" y="31" width="3" height="7" fill="#3F3F74" />
<rect x="20" y="31" width="24" height="1" fill="#6284C1" />
<rect x="56" y="31" width="3" height="5" fill="#3F3F74" />
<rect x="20" y="32" width="24" height="1" fill="#6587C6" />
<rect x="49" y="32" width="1" height="1" fill="#8A9DA7" />
<rect x="53" y="32" width="1" height="1" fill="#8A9DA7" />
<rect x="8" y="33" width="4" height="1" fill="#8A9DA7" />
<rect x="20" y="33" width="24" height="1" fill="#6E90CE" />
<rect x="49" y="33" width="1" height="15" fill="#3F3F74" />
<rect x="50" y="33" width="3" height="1" fill="#8A9DA7" />
<rect x="53" y="33" width="1" height="5" fill="#3F3F74" />
<rect x="8" y="34" width="4" height="3" fill="#3F3F74" />
<rect x="20" y="34" width="24" height="1" fill="#7396D6" />
<rect x="50" y="34" width="3" height="4" fill="#3F3F74" />
<rect x="20" y="35" width="24" height="1" fill="#7A9DDE" />
<rect x="20" y="36" width="24" height="1" fill="#85A7E5" />
<rect x="56" y="36" width="2" height="1" fill="#000000" />
<rect x="58" y="36" width="1" height="2" fill="#3F3F74" />
<rect x="5" y="37" width="1" height="9" fill="#3F3F74" />
<rect x="6" y="37" width="4" height="2" fill="#3A3A64" />
<rect x="10" y="37" width="2" height="1" fill="#3F3F74" />
<rect x="20" y="37" width="24" height="1" fill="#8AACE8" />
<rect x="54" y="37" width="2" height="1" fill="#000000" />
<rect x="56" y="37" width="2" height="1" fill="#3F3F74" />
<rect x="10" y="38" width="3" height="2" fill="#3A3A64" />
<rect x="13" y="38" width="2" height="2" fill="#9BADB7" />
<rect x="20" y="38" width="23" height="1" fill="#90B2ED" />
<rect x="43" y="38" width="1" height="3" fill="#93B5F2" />
<rect x="50" y="38" width="2" height="1" fill="#3F3F74" />
<rect x="52" y="38" width="2" height="1" fill="#000000" />
<rect x="54" y="38" width="3" height="1" fill="#3F3F74" />
<rect x="57" y="38" width="2" height="1" fill="#000000" />
<rect x="6" y="39" width="4" height="2" fill="#3F3F74" />
<rect x="20" y="39" width="23" height="2" fill="#93B5F2" />
<rect x="50" y="39" width="2" height="1" fill="#000000" />
<rect x="52" y="39" width="3" height="1" fill="#3F3F74" />
<rect x="55" y="39" width="2" height="1" fill="#000000" />
<rect x="57" y="39" width="2" height="1" fill="#3F3F74" />
<rect x="10" y="40" width="5" height="2" fill="#3F3F74" />
<rect x="50" y="40" width="3" height="1" fill="#3F3F74" />
<rect x="53" y="40" width="2" height="1" fill="#000000" />
<rect x="55" y="40" width="3" height="1" fill="#3F3F74" />
<rect x="58" y="40" width="2" height="1" fill="#000000" />
<rect x="6" y="41" width="4" height="2" fill="#3A3A64" />
<rect x="20" y="41" width="24" height="1" fill="#000000" />
<rect x="50" y="41" width="1" height="7" fill="#3F3F74" />
<rect x="51" y="41" width="2" height="1" fill="#000000" />
<rect x="53" y="41" width="3" height="1" fill="#3F3F74" />
<rect x="56" y="41" width="2" height="1" fill="#000000" />
<rect x="58" y="41" width="2" height="3" fill="#3F3F74" />
<rect x="10" y="42" width="3" height="2" fill="#3A3A64" />
<rect x="13" y="42" width="2" height="2" fill="#9BADB7" />
<rect x="19" y="42" width="26" height="3" fill="#222034" />
<rect x="51" y="42" width="3" height="1" fill="#3F3F74" />
<rect x="54" y="42" width="2" height="1" fill="#000000" />
<rect x="56" y="42" width="2" height="4" fill="#3F3F74" />
<rect x="6" y="43" width="4" height="3" fill="#3F3F74" />
<rect x="17" y="43" width="1" height="6" fill="#3F3F74" />
<rect x="18" y="43" width="1" height="1" fill="#222034" />
<rect x="45" y="43" width="1" height="1" fill="#222034" />
<rect x="46" y="43" width="1" height="6" fill="#3F3F74" />
<rect x="51" y="43" width="1" height="5" fill="#3F3F74" />
<rect x="52" y="43" width="2" height="1" fill="#000000" />
<rect x="54" y="43" width="2" height="4" fill="#3F3F74" />
<rect x="3" y="44" width="1" height="2" fill="#000000" />
<rect x="4" y="44" width="1" height="2" fill="#33335F" />
<rect x="10" y="44" width="5" height="4" fill="#3F3F74" />
<rect x="18" y="44" width="1" height="5" fill="#3F3F74" />
<rect x="45" y="44" width="1" height="5" fill="#3F3F74" />
<rect x="52" y="44" width="2" height="4" fill="#3F3F74" />
<rect x="58" y="44" width="1" height="2" fill="#3F3F74" />
<rect x="59" y="44" width="1" height="2" fill="#33335F" />
<rect x="60" y="44" width="1" height="2" fill="#000000" />
<rect x="19" y="45" width="3" height="4" fill="#3F3F74" />
<rect x="22" y="45" width="20" height="1" fill="#222034" />
<rect x="42" y="45" width="3" height="4" fill="#3F3F74" />
<rect x="4" y="46" width="1" height="1" fill="#000000" />
<rect x="5" y="46" width="2" height="1" fill="#33335F" />
<rect x="7" y="46" width="3" height="1" fill="#3F3F74" />
<rect x="22" y="46" width="4" height="3" fill="#3F3F74" />
<rect x="26" y="46" width="12" height="1" fill="#222034" />
<rect x="38" y="46" width="4" height="3" fill="#3F3F74" />
<rect x="56" y="46" width="1" height="1" fill="#3F3F74" />
<rect x="57" y="46" width="2" height="1" fill="#33335F" />
<rect x="59" y="46" width="1" height="1" fill="#000000" />
<rect x="5" y="47" width="2" height="1" fill="#000000" />
<rect x="7" y="47" width="3" height="1" fill="#33335F" />
<rect x="26" y="47" width="12" height="3" fill="#3F3F74" />
<rect x="54" y="47" width="3" height="1" fill="#33335F" />
<rect x="57" y="47" width="2" height="1" fill="#000000" />
<rect x="7" y="48" width="3" height="1" fill="#000000" />
<rect x="10" y="48" width="7" height="1" fill="#33335F" />
<rect x="47" y="48" width="7" height="1" fill="#33335F" />
<rect x="54" y="48" width="3" height="1" fill="#000000" />
<rect x="10" y="49" width="7" height="1" fill="#000000" />
<rect x="17" y="49" width="9" height="1" fill="#33335F" />
<rect x="38" y="49" width="9" height="1" fill="#33335F" />
<rect x="47" y="49" width="7" height="1" fill="#000000" />
<rect x="17" y="50" width="9" height="1" fill="#000000" />
<rect x="26" y="50" width="12" height="1" fill="#33335F" />
<rect x="38" y="50" width="9" height="1" fill="#000000" />
<rect x="26" y="51" width="12" height="1" fill="#000000" />
</svg>