<?xml version="1.0" encoding="UTF-8" ?>
<svg version="1.1" width="64" height="64" xmlns="http://www.w3.org/2000/svg" shape-rendering="crispEdges">
<rect x="16" y="14" width="32" height="1" fill="#000000" />
<rect x="15" y="15" width="1" height="34" fill="#000000" />
<rect x="16" y="15" width="3" height="1" fill="#555597" />
<rect x="19" y="15" width="25" height="1" fill="#454578" />
<rect x="44" y="15" width="3" height="1" fill="#555597" />
<rect x="47" y="15" width="1" height="34" fill="#000000" />
<rect x="16" y="16" width="1" height="11" fill="#555597" />
<rect x="17" y="16" width="2" height="2" fill="#CDDEE8" />
<rect x="19" y="16" width="9" height="1" fill="#555597" />
<rect x="28" y="16" width="8" height="3" fill="#000000" />
<rect x="36" y="16" width="8" height="1" fill="#555597" />
<rect x="44" y="16" width="1" height="7" fill="#454578" />
<rect x="45" y="16" width="2" height="8" fill="#555597" />
<rect x="19" y="17" width="7" height="1" fill="#555597" />
<rect x="26" y="17" width="2" height="7" fill="#000000" />
<rect x="36" y="17" width="2" height="7" fill="#000000" />
<rect x="38" y="17" width="6" height="1" fill="#555597" />
<rect x="17" y="18" width="1" height="6" fill="#555597" />
<rect x="18" y="18" width="1" height="5" fill="#454578" />
<rect x="19" y="18" width="6" height="1" fill="#555597" />
<rect x="25" y="18" width="1" height="5" fill="#000000" />
<rect x="38" y="18" width="1" height="5" fill="#000000" />
<rect x="39" y="18" width="5" height="1" fill="#555597" />
<rect x="19" y="19" width="5" height="4" fill="#555597" />
<rect x="24" y="19" width="1" height="3" fill="#000000" />
<rect x="28" y="19" width="8" height="1" fill="#C5CCD1" />
<rect x="39" y="19" width="1" height="3" fill="#000000" />
<rect x="40" y="19" width="4" height="4" fill="#555597" />
<rect x="28" y="20" width="1" height="5" fill="#000000" />
<rect x="29" y="20" width="6" height="1" fill="#C5CCD1" />
<rect x="35" y="20" width="1" height="5" fill="#000000" />
<rect x="29" y="21" width="6" height="4" fill="#000000" />
<rect x="24" y="22" width="1" height="3" fill="#555597" />
<rect x="39" y="22" width="1" height="3" fill="#555597" />
<rect x="18" y="23" width="1" height="1" fill="#555597" />
<rect x="19" y="23" width="2" height="1" fill="#454578" />
<rect x="21" y="23" width="3" height="1" fill="#555597" />
<rect x="25" y="23" width="1" height="2" fill="#555597" />
<rect x="38" y="23" width="1" height="2" fill="#555597" />
<rect x="40" y="23" width="2" height="1" fill="#555597" />
<rect x="42" y="23" width="2" height="1" fill="#454578" />
<rect x="44" y="23" width="1" height="1" fill="#555597" />
<rect x="17" y="24" width="2" height="2" fill="#363668" />
<rect x="19" y="24" width="2" height="3" fill="#555597" />
<rect x="21" y="24" width="1" height="1" fill="#454578" />
<rect x="22" y="24" width="2" height="1" fill="#555597" />
<rect x="26" y="24" width="2" height="1" fill="#555597" />
<rect x="36" y="24" width="2" height="1" fill="#555597" />
<rect x="40" y="24" width="1" height="1" fill="#555597" />
<rect x="41" y="24" width="1" height="1" fill="#454578" />
<rect x="42" y="24" width="2" height="3" fill="#555597" />
<rect x="44" y="24" width="2" height="2" fill="#363668" />
<rect x="46" y="24" width="1" height="3" fill="#555597" />
<rect x="21" y="25" width="1" height="2" fill="#555597" />
<rect x="22" y="25" width="19" height="1" fill="#454578" />
<rect x="41" y="25" width="1" height="2" fill="#555597" />
<rect x="17" y="26" width="2" height="1" fill="#555597" />
<rect x="22" y="26" width="19" height="1" fill="#555597" />
<rect x="44" y="26" width="2" height="1" fill="#555597" />
<rect x="16" y="27" width="31" height="1" fill="#000000" />
<rect x="16" y="28" width="31" height="1" fill="#5C5C9B" />
<rect x="16" y="29" width="1" height="19" fill="#5C5C9B" />
<rect x="17" y="29" width="29" height="3" fill="#3F3F74" />
<rect x="46" y="29" width="1" height="19" fill="#3A3A64" />
<rect x="17" y="32" width="3" height="15" fill="#3F3F74" />
<rect x="20" y="32" width="22" height="1" fill="#D0DAE0" />
<rect x="42" y="32" width="1" height="12" fill="#A2ACB2" />
<rect x="43" y="32" width="3" height="15" fill="#3F3F74" />
<rect x="20" y="33" width="1" height="11" fill="#D0DAE0" />
<rect x="21" y="33" width="21" height="2" fill="#C2CBD1" />
<rect x="21" y="35" width="1" height="1" fill="#C2CBD1" />
<rect x="22" y="35" width="1" height="3" fill="#59656C" />
<rect x="23" y="35" width="5" height="1" fill="#C2CBD1" />
<rect x="28" y="35" width="1" height="3" fill="#59656C" />
<rect x="29" y="35" width="5" height="1" fill="#C2CBD1" />
<rect x="34" y="35" width="1" height="3" fill="#59656C" />
<rect x="35" y="35" width="5" height="1" fill="#C2CBD1" />
<rect x="40" y="35" width="1" height="3" fill="#59656C" />
<rect x="41" y="35" width="1" height="1" fill="#C2CBD1" />
<rect x="21" y="36" width="1" height="2" fill="#59656C" />
<rect x="23" y="36" width="1" height="2" fill="#59656C" />
<rect x="24" y="36" width="3" height="5" fill="#C2CBD1" />
<rect x="27" y="36" width="1" height="2" fill="#59656C" />
<rect x="29" y="36" width="1" height="2" fill="#59656C" />
<rect x="30" y="36" width="3" height="7" fill="#C2CBD1" />
<rect x="33" y="36" width="1" height="2" fill="#59656C" />
<rect x="35" y="36" width="1" height="2" fill="#59656C" />
<rect x="36" y="36" width="3" height="1" fill="#C2CBD1" />
<rect x="39" y="36" width="1" height="2" fill="#59656C" />
<rect x="41" y="36" width="1" height="2" fill="#59656C" />
<rect x="36" y="37" width="2" height="4" fill="#C2CBD1" />
<rect x="38" y="37" width="1" height="1" fill="#59656C" />
<rect x="21" y="38" width="3" height="3" fill="#C2CBD1" />
<rect x="27" y="38" width="3" height="3" fill="#C2CBD1" />
<rect x="33" y="38" width="3" height="3" fill="#C2CBD1" />
<rect x="38" y="38" width="4" height="3" fill="#C2CBD1" />
<rect x="21" y="41" width="2" height="2" fill="#C2CBD1" />
<rect x="23" y="41" width="7" height="1" fill="#707D83" />
<rect x="33" y="41" width="7" height="1" fill="#707D83" />
<rect x="40" y="41" width="2" height="2" fill="#C2CBD1" />
<rect x="23" y="42" width="7" height="1" fill="#C2CBD1" />
<rect x="33" y="42" width="7" height="1" fill="#C2CBD1" />
<rect x="21" y="43" width="21" height="1" fill="#A2ACB2" />
<rect x="20" y="44" width="23" height="3" fill="#3F3F74" />
<rect x="17" y="47" width="29" height="1" fill="#3A3A64" />
<rect x="16" y="48" width="3" height="1" fill="#000000" />
<rect x="19" y="48" width="3" height="1" fill="#24243E" />
<rect x="22" y="48" width="17" height="1" fill="#000000" />
<rect x="39" y="48" width="3" height="1" fill="#24243E" />
<rect x="42" y="48" width="5" height="1" fill="#000000" />
<rect x="19" y="49" width="3" height="1" fill="#000000" />
<rect x="39" y="49" width="3" height="1" fill="#000000" />
</svg>