<?xml version="1.0" encoding="UTF-8" ?>
<svg version="1.1" width="640" height="640" xmlns="http://www.w3.org/2000/svg" shape-rendering="crispEdges">
<rect x="310" y="10" width="20" height="10" fill="#000000" />
<rect x="290" y="20" width="20" height="10" fill="#000000" />
<rect x="310" y="20" width="20" height="10" fill="#D080EF" />
<rect x="330" y="20" width="20" height="10" fill="#000000" />
<rect x="270" y="30" width="20" height="10" fill="#000000" />
<rect x="290" y="30" width="20" height="10" fill="#D080EF" />
<rect x="310" y="30" width="20" height="70" fill="#BF6DDE" />
<rect x="330" y="30" width="20" height="10" fill="#D080EF" />
<rect x="350" y="30" width="20" height="10" fill="#000000" />
<rect x="250" y="40" width="20" height="10" fill="#000000" />
<rect x="270" y="40" width="20" height="10" fill="#D080EF" />
<rect x="290" y="40" width="20" height="70" fill="#BF6DDE" />
<rect x="330" y="40" width="20" height="70" fill="#BF6DDE" />
<rect x="350" y="40" width="20" height="10" fill="#D080EF" />
<rect x="370" y="40" width="20" height="10" fill="#000000" />
<rect x="230" y="50" width="20" height="10" fill="#000000" />
<rect x="250" y="50" width="20" height="10" fill="#D080EF" />
<rect x="270" y="50" width="20" height="70" fill="#BF6DDE" />
<rect x="350" y="50" width="20" height="70" fill="#BF6DDE" />
<rect x="370" y="50" width="20" height="10" fill="#D080EF" />
<rect x="390" y="50" width="20" height="10" fill="#000000" />
<rect x="210" y="60" width="20" height="10" fill="#000000" />
<rect x="230" y="60" width="20" height="10" fill="#D080EF" />
<rect x="250" y="60" width="20" height="70" fill="#BF6DDE" />
<rect x="370" y="60" width="20" height="70" fill="#BF6DDE" />
<rect x="390" y="60" width="20" height="10" fill="#D080EF" />
<rect x="410" y="60" width="20" height="10" fill="#000000" />
<rect x="190" y="70" width="20" height="10" fill="#000000" />
<rect x="210" y="70" width="20" height="10" fill="#D080EF" />
<rect x="230" y="70" width="20" height="70" fill="#BF6DDE" />
<rect x="390" y="70" width="20" height="70" fill="#BF6DDE" />
<rect x="410" y="70" width="20" height="10" fill="#D080EF" />
<rect x="430" y="70" width="20" height="10" fill="#000000" />
<rect x="170" y="80" width="20" height="10" fill="#000000" />
<rect x="190" y="80" width="20" height="10" fill="#D080EF" />
<rect x="210" y="80" width="20" height="70" fill="#BF6DDE" />
<rect x="410" y="80" width="20" height="70" fill="#BF6DDE" />
<rect x="430" y="80" width="20" height="10" fill="#D080EF" />
<rect x="450" y="80" width="20" height="10" fill="#000000" />
<rect x="150" y="90" width="20" height="10" fill="#000000" />
<rect x="170" y="90" width="20" height="10" fill="#D080EF" />
<rect x="190" y="90" width="20" height="70" fill="#BF6DDE" />
<rect x="430" y="90" width="20" height="60" fill="#BF6DDE" />
<rect x="450" y="90" width="20" height="10" fill="#D080EF" />
<rect x="470" y="90" width="20" height="10" fill="#000000" />
<rect x="130" y="100" width="20" height="10" fill="#000000" />
<rect x="150" y="100" width="20" height="10" fill="#D080EF" />
<rect x="170" y="100" width="20" height="70" fill="#BF6DDE" />
<rect x="310" y="100" width="20" height="10" fill="#A661C0" />
<rect x="450" y="100" width="20" height="40" fill="#BF6DDE" />
<rect x="470" y="100" width="20" height="10" fill="#D080EF" />
<rect x="490" y="100" width="20" height="10" fill="#000000" />
<rect x="110" y="110" width="20" height="10" fill="#000000" />
<rect x="130" y="110" width="20" height="10" fill="#D080EF" />
<rect x="150" y="110" width="20" height="70" fill="#BF6DDE" />
<rect x="290" y="110" width="20" height="10" fill="#A661C0" />
<rect x="310" y="110" width="20" height="10" fill="#000000" />
<rect x="330" y="110" width="20" height="10" fill="#A661C0" />
<rect x="470" y="110" width="20" height="20" fill="#BF6DDE" />
<rect x="490" y="110" width="20" height="10" fill="#D080EF" />
<rect x="510" y="110" width="10" height="10" fill="#000000" />
<rect x="90" y="120" width="20" height="10" fill="#000000" />
<rect x="110" y="120" width="20" height="10" fill="#D080EF" />
<rect x="130" y="120" width="20" height="60" fill="#BF6DDE" />
<rect x="270" y="120" width="20" height="10" fill="#A661C0" />
<rect x="290" y="120" width="20" height="10" fill="#000000" />
<rect x="330" y="120" width="20" height="10" fill="#000000" />
<rect x="350" y="120" width="20" height="10" fill="#A661C0" />
<rect x="490" y="120" width="20" height="10" fill="#000000" />
<rect x="70" y="130" width="20" height="10" fill="#000000" />
<rect x="90" y="130" width="20" height="10" fill="#D080EF" />
<rect x="110" y="130" width="20" height="40" fill="#BF6DDE" />
<rect x="250" y="130" width="20" height="10" fill="#A661C0" />
<rect x="270" y="130" width="20" height="10" fill="#000000" />
<rect x="350" y="130" width="20" height="10" fill="#000000" />
<rect x="370" y="130" width="20" height="10" fill="#A661C0" />
<rect x="470" y="130" width="20" height="10" fill="#000000" />
<rect x="60" y="140" width="20" height="10" fill="#000000" />
<rect x="80" y="140" width="10" height="10" fill="#D080EF" />
<rect x="90" y="140" width="20" height="20" fill="#BF6DDE" />
<rect x="230" y="140" width="20" height="10" fill="#A661C0" />
<rect x="250" y="140" width="20" height="10" fill="#000000" />
<rect x="370" y="140" width="20" height="10" fill="#000000" />
<rect x="390" y="140" width="20" height="10" fill="#A661C0" />
<rect x="450" y="140" width="20" height="10" fill="#000000" />
<rect x="60" y="150" width="10" height="310" fill="#000000" />
<rect x="70" y="150" width="20" height="300" fill="#9B59B5" />
<rect x="210" y="150" width="20" height="10" fill="#A661C0" />
<rect x="230" y="150" width="20" height="10" fill="#000000" />
<rect x="390" y="150" width="20" height="10" fill="#000000" />
<rect x="410" y="150" width="20" height="10" fill="#A661C0" />
<rect x="430" y="150" width="20" height="10" fill="#000000" />
<rect x="550" y="150" width="30" height="10" fill="#000000" />
<rect x="90" y="160" width="20" height="300" fill="#9B59B5" />
<rect x="190" y="160" width="20" height="10" fill="#A661C0" />
<rect x="210" y="160" width="20" height="10" fill="#000000" />
<rect x="410" y="160" width="20" height="10" fill="#000000" />
<rect x="530" y="160" width="20" height="10" fill="#000000" />
<rect x="550" y="160" width="20" height="10" fill="#864B9C" />
<rect x="570" y="160" width="10" height="300" fill="#000000" />
<rect x="110" y="170" width="20" height="300" fill="#9B59B5" />
<rect x="170" y="170" width="20" height="10" fill="#A661C0" />
<rect x="190" y="170" width="20" height="10" fill="#000000" />
<rect x="310" y="170" width="20" height="10" fill="#000000" />
<rect x="510" y="170" width="20" height="10" fill="#000000" />
<rect x="530" y="170" width="20" height="10" fill="#864B9C" />
<rect x="550" y="170" width="20" height="280" fill="#76428A" />
<rect x="130" y="180" width="20" height="300" fill="#9B59B5" />
<rect x="150" y="180" width="20" height="10" fill="#A661C0" />
<rect x="170" y="180" width="20" height="10" fill="#000000" />
<rect x="290" y="180" width="20" height="10" fill="#000000" />
<rect x="310" y="180" width="20" height="10" fill="#D080EF" />
<rect x="330" y="180" width="20" height="10" fill="#000000" />
<rect x="490" y="180" width="20" height="10" fill="#000000" />
<rect x="510" y="180" width="20" height="10" fill="#864B9C" />
<rect x="530" y="180" width="20" height="280" fill="#76428A" />
<rect x="150" y="190" width="10" height="300" fill="#9B59B5" />
<rect x="160" y="190" width="10" height="200" fill="#000000" />
<rect x="270" y="190" width="20" height="10" fill="#000000" />
<rect x="290" y="190" width="20" height="10" fill="#D080EF" />
<rect x="310" y="190" width="20" height="80" fill="#BF6DDE" />
<rect x="330" y="190" width="20" height="10" fill="#D080EF" />
<rect x="350" y="190" width="20" height="10" fill="#000000" />
<rect x="470" y="190" width="20" height="10" fill="#000000" />
<rect x="490" y="190" width="20" height="10" fill="#864B9C" />
<rect x="510" y="190" width="20" height="280" fill="#76428A" />
<rect x="250" y="200" width="20" height="10" fill="#000000" />
<rect x="270" y="200" width="20" height="10" fill="#D080EF" />
<rect x="290" y="200" width="20" height="60" fill="#BF6DDE" />
<rect x="330" y="200" width="20" height="60" fill="#BF6DDE" />
<rect x="350" y="200" width="20" height="10" fill="#D080EF" />
<rect x="370" y="200" width="20" height="10" fill="#000000" />
<rect x="450" y="200" width="20" height="10" fill="#000000" />
<rect x="470" y="200" width="20" height="10" fill="#864B9C" />
<rect x="490" y="200" width="20" height="280" fill="#76428A" />
<rect x="230" y="210" width="20" height="10" fill="#000000" />
<rect x="250" y="210" width="20" height="10" fill="#D080EF" />
<rect x="270" y="210" width="20" height="40" fill="#BF6DDE" />
<rect x="350" y="210" width="20" height="40" fill="#BF6DDE" />
<rect x="370" y="210" width="20" height="10" fill="#D080EF" />
<rect x="390" y="210" width="20" height="10" fill="#000000" />
<rect x="430" y="210" width="20" height="10" fill="#000000" />
<rect x="450" y="210" width="20" height="10" fill="#864B9C" />
<rect x="470" y="210" width="20" height="70" fill="#76428A" />
<rect x="210" y="220" width="20" height="10" fill="#000000" />
<rect x="230" y="220" width="20" height="10" fill="#D080EF" />
<rect x="250" y="220" width="20" height="20" fill="#BF6DDE" />
<rect x="370" y="220" width="20" height="20" fill="#BF6DDE" />
<rect x="390" y="220" width="20" height="10" fill="#D080EF" />
<rect x="410" y="220" width="20" height="10" fill="#000000" />
<rect x="430" y="220" width="20" height="10" fill="#864B9C" />
<rect x="450" y="220" width="20" height="70" fill="#76428A" />
<rect x="210" y="230" width="10" height="130" fill="#000000" />
<rect x="220" y="230" width="30" height="110" fill="#9B59B5" />
<rect x="390" y="230" width="20" height="120" fill="#76428A" />
<rect x="410" y="230" width="20" height="10" fill="#864B9C" />
<rect x="430" y="230" width="20" height="70" fill="#76428A" />
<rect x="250" y="240" width="20" height="120" fill="#9B59B5" />
<rect x="370" y="240" width="20" height="120" fill="#76428A" />
<rect x="410" y="240" width="20" height="70" fill="#76428A" />
<rect x="270" y="250" width="20" height="120" fill="#9B59B5" />
<rect x="350" y="250" width="20" height="120" fill="#76428A" />
<rect x="290" y="260" width="20" height="120" fill="#9B59B5" />
<rect x="330" y="260" width="20" height="120" fill="#76428A" />
<rect x="310" y="270" width="10" height="120" fill="#9B59B5" />
<rect x="320" y="270" width="10" height="120" fill="#76428A" />
<rect x="470" y="280" width="10" height="10" fill="#643776" />
<rect x="480" y="280" width="10" height="210" fill="#76428A" />
<rect x="450" y="290" width="20" height="10" fill="#643776" />
<rect x="470" y="290" width="10" height="100" fill="#000000" />
<rect x="430" y="300" width="20" height="10" fill="#643776" />
<rect x="450" y="300" width="20" height="10" fill="#000000" />
<rect x="410" y="310" width="10" height="30" fill="#76428A" />
<rect x="420" y="310" width="10" height="10" fill="#643776" />
<rect x="430" y="310" width="20" height="10" fill="#000000" />
<rect x="420" y="320" width="10" height="40" fill="#000000" />
<rect x="220" y="340" width="10" height="10" fill="#8B52A2" />
<rect x="230" y="340" width="20" height="10" fill="#9B59B5" />
<rect x="410" y="340" width="10" height="10" fill="#643776" />
<rect x="220" y="350" width="10" height="10" fill="#000000" />
<rect x="230" y="350" width="20" height="10" fill="#8B52A2" />
<rect x="390" y="350" width="20" height="10" fill="#643776" />
<rect x="410" y="350" width="10" height="10" fill="#000000" />
<rect x="230" y="360" width="20" height="10" fill="#000000" />
<rect x="250" y="360" width="20" height="10" fill="#8B52A2" />
<rect x="370" y="360" width="20" height="10" fill="#643776" />
<rect x="390" y="360" width="20" height="10" fill="#000000" />
<rect x="250" y="370" width="20" height="10" fill="#000000" />
<rect x="270" y="370" width="20" height="10" fill="#8B52A2" />
<rect x="350" y="370" width="20" height="10" fill="#643776" />
<rect x="370" y="370" width="20" height="10" fill="#000000" />
<rect x="270" y="380" width="20" height="10" fill="#000000" />
<rect x="290" y="380" width="20" height="10" fill="#8B52A2" />
<rect x="330" y="380" width="20" height="10" fill="#643776" />
<rect x="350" y="380" width="20" height="10" fill="#000000" />
<rect x="160" y="390" width="10" height="10" fill="#A961C5" />
<rect x="170" y="390" width="20" height="10" fill="#000000" />
<rect x="290" y="390" width="20" height="10" fill="#000000" />
<rect x="310" y="390" width="10" height="10" fill="#8B52A2" />
<rect x="320" y="390" width="10" height="10" fill="#643776" />
<rect x="330" y="390" width="20" height="10" fill="#000000" />
<rect x="450" y="390" width="20" height="10" fill="#000000" />
<rect x="470" y="390" width="10" height="10" fill="#864B9C" />
<rect x="160" y="400" width="10" height="90" fill="#9B59B5" />
<rect x="170" y="400" width="20" height="10" fill="#A961C5" />
<rect x="190" y="400" width="20" height="10" fill="#000000" />
<rect x="310" y="400" width="20" height="10" fill="#000000" />
<rect x="430" y="400" width="20" height="10" fill="#000000" />
<rect x="450" y="400" width="20" height="10" fill="#864B9C" />
<rect x="470" y="400" width="10" height="90" fill="#76428A" />
<rect x="170" y="410" width="20" height="90" fill="#9B59B5" />
<rect x="190" y="410" width="20" height="10" fill="#A961C5" />
<rect x="210" y="410" width="20" height="10" fill="#000000" />
<rect x="410" y="410" width="20" height="10" fill="#000000" />
<rect x="430" y="410" width="20" height="10" fill="#864B9C" />
<rect x="450" y="410" width="20" height="90" fill="#76428A" />
<rect x="190" y="420" width="20" height="90" fill="#9B59B5" />
<rect x="210" y="420" width="20" height="10" fill="#A961C5" />
<rect x="230" y="420" width="20" height="10" fill="#000000" />
<rect x="390" y="420" width="20" height="10" fill="#000000" />
<rect x="410" y="420" width="20" height="10" fill="#864B9C" />
<rect x="430" y="420" width="20" height="90" fill="#76428A" />
<rect x="210" y="430" width="20" height="90" fill="#9B59B5" />
<rect x="230" y="430" width="20" height="10" fill="#A961C5" />
<rect x="250" y="430" width="20" height="10" fill="#000000" />
<rect x="370" y="430" width="20" height="10" fill="#000000" />
<rect x="390" y="430" width="20" height="10" fill="#864B9C" />
<rect x="410" y="430" width="20" height="90" fill="#76428A" />
<rect x="230" y="440" width="20" height="90" fill="#9B59B5" />
<rect x="250" y="440" width="20" height="10" fill="#A961C5" />
<rect x="270" y="440" width="20" height="10" fill="#000000" />
<rect x="350" y="440" width="20" height="10" fill="#000000" />
<rect x="370" y="440" width="20" height="10" fill="#864B9C" />
<rect x="390" y="440" width="20" height="90" fill="#76428A" />
<rect x="70" y="450" width="20" height="10" fill="#8B52A2" />
<rect x="250" y="450" width="20" height="90" fill="#9B59B5" />
<rect x="270" y="450" width="20" height="10" fill="#A961C5" />
<rect x="290" y="450" width="20" height="10" fill="#000000" />
<rect x="330" y="450" width="20" height="10" fill="#000000" />
<rect x="350" y="450" width="20" height="10" fill="#864B9C" />
<rect x="370" y="450" width="20" height="90" fill="#76428A" />
<rect x="550" y="450" width="20" height="10" fill="#643776" />
<rect x="70" y="460" width="20" height="10" fill="#000000" />
<rect x="90" y="460" width="20" height="10" fill="#8B52A2" />
<rect x="270" y="460" width="20" height="90" fill="#9B59B5" />
<rect x="290" y="460" width="20" height="10" fill="#A961C5" />
<rect x="310" y="460" width="20" height="10" fill="#000000" />
<rect x="330" y="460" width="20" height="10" fill="#864B9C" />
<rect x="350" y="460" width="20" height="90" fill="#76428A" />
<rect x="530" y="460" width="20" height="10" fill="#643776" />
<rect x="550" y="460" width="20" height="10" fill="#000000" />
<rect x="90" y="470" width="20" height="10" fill="#000000" />
<rect x="110" y="470" width="20" height="10" fill="#8B52A2" />
<rect x="290" y="470" width="20" height="90" fill="#9B59B5" />
<rect x="310" y="470" width="10" height="10" fill="#A961C5" />
<rect x="320" y="470" width="10" height="10" fill="#864B9C" />
<rect x="330" y="470" width="20" height="90" fill="#76428A" />
<rect x="510" y="470" width="20" height="10" fill="#643776" />
<rect x="530" y="470" width="20" height="10" fill="#000000" />
<rect x="110" y="480" width="20" height="10" fill="#000000" />
<rect x="130" y="480" width="20" height="10" fill="#8B52A2" />
<rect x="310" y="480" width="10" height="90" fill="#9B59B5" />
<rect x="320" y="480" width="10" height="90" fill="#76428A" />
<rect x="490" y="480" width="20" height="10" fill="#643776" />
<rect x="510" y="480" width="20" height="10" fill="#000000" />
<rect x="130" y="490" width="20" height="10" fill="#000000" />
<rect x="150" y="490" width="20" height="10" fill="#8B52A2" />
<rect x="470" y="490" width="20" height="10" fill="#643776" />
<rect x="490" y="490" width="20" height="10" fill="#000000" />
<rect x="150" y="500" width="20" height="10" fill="#000000" />
<rect x="170" y="500" width="20" height="10" fill="#8B52A2" />
<rect x="450" y="500" width="20" height="10" fill="#643776" />
<rect x="470" y="500" width="20" height="10" fill="#000000" />
<rect x="170" y="510" width="20" height="10" fill="#000000" />
<rect x="190" y="510" width="20" height="10" fill="#8B52A2" />
<rect x="430" y="510" width="20" height="10" fill="#643776" />
<rect x="450" y="510" width="20" height="10" fill="#000000" />
<rect x="190" y="520" width="20" height="10" fill="#000000" />
<rect x="210" y="520" width="20" height="10" fill="#8B52A2" />
<rect x="410" y="520" width="20" height="10" fill="#643776" />
<rect x="430" y="520" width="20" height="10" fill="#000000" />
<rect x="210" y="530" width="20" height="10" fill="#000000" />
<rect x="230" y="530" width="20" height="10" fill="#8B52A2" />
<rect x="390" y="530" width="20" height="10" fill="#643776" />
<rect x="410" y="530" width="20" height="10" fill="#000000" />
<rect x="230" y="540" width="20" height="10" fill="#000000" />
<rect x="250" y="540" width="20" height="10" fill="#8B52A2" />
<rect x="370" y="540" width="20" height="10" fill="#643776" />
<rect x="390" y="540" width="20" height="10" fill="#000000" />
<rect x="250" y="550" width="20" height="10" fill="#000000" />
<rect x="270" y="550" width="20" height="10" fill="#8B52A2" />
<rect x="350" y="550" width="20" height="10" fill="#643776" />
<rect x="370" y="550" width="20" height="10" fill="#000000" />
<rect x="270" y="560" width="20" height="10" fill="#000000" />
<rect x="290" y="560" width="20" height="10" fill="#8B52A2" />
<rect x="330" y="560" width="20" height="10" fill="#643776" />
<rect x="350" y="560" width="20" height="10" fill="#000000" />
<rect x="290" y="570" width="20" height="10" fill="#000000" />
<rect x="310" y="570" width="10" height="10" fill="#8B52A2" />
<rect x="320" y="570" width="10" height="10" fill="#643776" />
<rect x="330" y="570" width="20" height="10" fill="#000000" />
<rect x="310" y="580" width="20" height="10" fill="#000000" />
</svg>