<?xml version="1.0" encoding="UTF-8" ?>
<svg version="1.1" width="64" height="64" xmlns="http://www.w3.org/2000/svg" shape-rendering="crispEdges">
<rect x="31" y="1" width="2" height="1" fill="#000000" />
<rect x="29" y="2" width="2" height="1" fill="#000000" />
<rect x="31" y="2" width="2" height="1" fill="#D080EF" />
<rect x="33" y="2" width="2" height="1" fill="#000000" />
<rect x="27" y="3" width="2" height="1" fill="#000000" />
<rect x="29" y="3" width="2" height="1" fill="#D080EF" />
<rect x="31" y="3" width="2" height="7" fill="#BF6DDE" />
<rect x="33" y="3" width="2" height="1" fill="#D080EF" />
<rect x="35" y="3" width="2" height="1" fill="#000000" />
<rect x="25" y="4" width="2" height="1" fill="#000000" />
<rect x="27" y="4" width="2" height="1" fill="#D080EF" />
<rect x="29" y="4" width="2" height="7" fill="#BF6DDE" />
<rect x="33" y="4" width="2" height="7" fill="#BF6DDE" />
<rect x="35" y="4" width="2" height="1" fill="#D080EF" />
<rect x="37" y="4" width="2" height="1" fill="#000000" />
<rect x="23" y="5" width="2" height="1" fill="#000000" />
<rect x="25" y="5" width="2" height="1" fill="#D080EF" />
<rect x="27" y="5" width="2" height="7" fill="#BF6DDE" />
<rect x="35" y="5" width="2" height="7" fill="#BF6DDE" />
<rect x="37" y="5" width="2" height="1" fill="#D080EF" />
<rect x="39" y="5" width="2" height="1" fill="#000000" />
<rect x="21" y="6" width="2" height="1" fill="#000000" />
<rect x="23" y="6" width="2" height="1" fill="#D080EF" />
<rect x="25" y="6" width="2" height="7" fill="#BF6DDE" />
<rect x="37" y="6" width="2" height="7" fill="#BF6DDE" />
<rect x="39" y="6" width="2" height="1" fill="#D080EF" />
<rect x="41" y="6" width="2" height="1" fill="#000000" />
<rect x="19" y="7" width="2" height="1" fill="#000000" />
<rect x="21" y="7" width="2" height="1" fill="#D080EF" />
<rect x="23" y="7" width="2" height="7" fill="#BF6DDE" />
<rect x="39" y="7" width="2" height="7" fill="#BF6DDE" />
<rect x="41" y="7" width="2" height="1" fill="#D080EF" />
<rect x="43" y="7" width="2" height="1" fill="#000000" />
<rect x="17" y="8" width="2" height="1" fill="#000000" />
<rect x="19" y="8" width="2" height="1" fill="#D080EF" />
<rect x="21" y="8" width="2" height="7" fill="#BF6DDE" />
<rect x="41" y="8" width="2" height="7" fill="#BF6DDE" />
<rect x="43" y="8" width="2" height="1" fill="#D080EF" />
<rect x="45" y="8" width="2" height="1" fill="#000000" />
<rect x="15" y="9" width="2" height="1" fill="#000000" />
<rect x="17" y="9" width="2" height="1" fill="#D080EF" />
<rect x="19" y="9" width="2" height="7" fill="#BF6DDE" />
<rect x="43" y="9" width="2" height="6" fill="#BF6DDE" />
<rect x="45" y="9" width="2" height="1" fill="#D080EF" />
<rect x="47" y="9" width="2" height="1" fill="#000000" />
<rect x="13" y="10" width="2" height="1" fill="#000000" />
<rect x="15" y="10" width="2" height="1" fill="#D080EF" />
<rect x="17" y="10" width="2" height="7" fill="#BF6DDE" />
<rect x="31" y="10" width="2" height="1" fill="#A661C0" />
<rect x="45" y="10" width="2" height="4" fill="#BF6DDE" />
<rect x="47" y="10" width="2" height="1" fill="#D080EF" />
<rect x="49" y="10" width="2" height="1" fill="#000000" />
<rect x="11" y="11" width="2" height="1" fill="#000000" />
<rect x="13" y="11" width="2" height="1" fill="#D080EF" />
<rect x="15" y="11" width="2" height="7" fill="#BF6DDE" />
<rect x="29" y="11" width="2" height="1" fill="#A661C0" />
<rect x="31" y="11" width="2" height="1" fill="#000000" />
<rect x="33" y="11" width="2" height="1" fill="#A661C0" />
<rect x="47" y="11" width="2" height="2" fill="#BF6DDE" />
<rect x="49" y="11" width="2" height="1" fill="#D080EF" />
<rect x="51" y="11" width="1" height="1" fill="#000000" />
<rect x="9" y="12" width="2" height="1" fill="#000000" />
<rect x="11" y="12" width="2" height="1" fill="#D080EF" />
<rect x="13" y="12" width="2" height="6" fill="#BF6DDE" />
<rect x="27" y="12" width="2" height="1" fill="#A661C0" />
<rect x="29" y="12" width="2" height="1" fill="#000000" />
<rect x="33" y="12" width="2" height="1" fill="#000000" />
<rect x="35" y="12" width="2" height="1" fill="#A661C0" />
<rect x="49" y="12" width="2" height="1" fill="#000000" />
<rect x="7" y="13" width="2" height="1" fill="#000000" />
<rect x="9" y="13" width="2" height="1" fill="#D080EF" />
<rect x="11" y="13" width="2" height="4" fill="#BF6DDE" />
<rect x="25" y="13" width="2" height="1" fill="#A661C0" />
<rect x="27" y="13" width="2" height="1" fill="#000000" />
<rect x="35" y="13" width="2" height="1" fill="#000000" />
<rect x="37" y="13" width="2" height="1" fill="#A661C0" />
<rect x="47" y="13" width="2" height="1" fill="#000000" />
<rect x="6" y="14" width="2" height="1" fill="#000000" />
<rect x="8" y="14" width="1" height="1" fill="#D080EF" />
<rect x="9" y="14" width="2" height="2" fill="#BF6DDE" />
<rect x="23" y="14" width="2" height="1" fill="#A661C0" />
<rect x="25" y="14" width="2" height="1" fill="#000000" />
<rect x="37" y="14" width="2" height="1" fill="#000000" />
<rect x="39" y="14" width="2" height="1" fill="#A661C0" />
<rect x="45" y="14" width="2" height="1" fill="#000000" />
<rect x="6" y="15" width="1" height="31" fill="#000000" />
<rect x="7" y="15" width="2" height="30" fill="#9B59B5" />
<rect x="21" y="15" width="2" height="1" fill="#A661C0" />
<rect x="23" y="15" width="2" height="1" fill="#000000" />
<rect x="39" y="15" width="2" height="1" fill="#000000" />
<rect x="41" y="15" width="2" height="1" fill="#A661C0" />
<rect x="43" y="15" width="2" height="1" fill="#000000" />
<rect x="55" y="15" width="3" height="1" fill="#000000" />
<rect x="9" y="16" width="2" height="30" fill="#9B59B5" />
<rect x="19" y="16" width="2" height="1" fill="#A661C0" />
<rect x="21" y="16" width="2" height="1" fill="#000000" />
<rect x="41" y="16" width="2" height="1" fill="#000000" />
<rect x="53" y="16" width="2" height="1" fill="#000000" />
<rect x="55" y="16" width="2" height="1" fill="#864B9C" />
<rect x="57" y="16" width="1" height="30" fill="#000000" />
<rect x="11" y="17" width="2" height="30" fill="#9B59B5" />
<rect x="17" y="17" width="2" height="1" fill="#A661C0" />
<rect x="19" y="17" width="2" height="1" fill="#000000" />
<rect x="31" y="17" width="2" height="1" fill="#000000" />
<rect x="51" y="17" width="2" height="1" fill="#000000" />
<rect x="53" y="17" width="2" height="1" fill="#864B9C" />
<rect x="55" y="17" width="2" height="28" fill="#76428A" />
<rect x="13" y="18" width="2" height="30" fill="#9B59B5" />
<rect x="15" y="18" width="2" height="1" fill="#A661C0" />
<rect x="17" y="18" width="2" height="1" fill="#000000" />
<rect x="29" y="18" width="2" height="1" fill="#000000" />
<rect x="31" y="18" width="2" height="1" fill="#D080EF" />
<rect x="33" y="18" width="2" height="1" fill="#000000" />
<rect x="49" y="18" width="2" height="1" fill="#000000" />
<rect x="51" y="18" width="2" height="1" fill="#864B9C" />
<rect x="53" y="18" width="2" height="28" fill="#76428A" />
<rect x="15" y="19" width="1" height="30" fill="#9B59B5" />
<rect x="16" y="19" width="1" height="20" fill="#000000" />
<rect x="27" y="19" width="2" height="1" fill="#000000" />
<rect x="29" y="19" width="2" height="1" fill="#D080EF" />
<rect x="31" y="19" width="2" height="8" fill="#BF6DDE" />
<rect x="33" y="19" width="2" height="1" fill="#D080EF" />
<rect x="35" y="19" width="2" height="1" fill="#000000" />
<rect x="47" y="19" width="2" height="1" fill="#000000" />
<rect x="49" y="19" width="2" height="1" fill="#864B9C" />
<rect x="51" y="19" width="2" height="28" fill="#76428A" />
<rect x="25" y="20" width="2" height="1" fill="#000000" />
<rect x="27" y="20" width="2" height="1" fill="#D080EF" />
<rect x="29" y="20" width="2" height="6" fill="#BF6DDE" />
<rect x="33" y="20" width="2" height="6" fill="#BF6DDE" />
<rect x="35" y="20" width="2" height="1" fill="#D080EF" />
<rect x="37" y="20" width="2" height="1" fill="#000000" />
<rect x="45" y="20" width="2" height="1" fill="#000000" />
<rect x="47" y="20" width="2" height="1" fill="#864B9C" />
<rect x="49" y="20" width="2" height="28" fill="#76428A" />
<rect x="23" y="21" width="2" height="1" fill="#000000" />
<rect x="25" y="21" width="2" height="1" fill="#D080EF" />
<rect x="27" y="21" width="2" height="4" fill="#BF6DDE" />
<rect x="35" y="21" width="2" height="4" fill="#BF6DDE" />
<rect x="37" y="21" width="2" height="1" fill="#D080EF" />
<rect x="39" y="21" width="2" height="1" fill="#000000" />
<rect x="43" y="21" width="2" height="1" fill="#000000" />
<rect x="45" y="21" width="2" height="1" fill="#864B9C" />
<rect x="47" y="21" width="2" height="7" fill="#76428A" />
<rect x="21" y="22" width="2" height="1" fill="#000000" />
<rect x="23" y="22" width="2" height="1" fill="#D080EF" />
<rect x="25" y="22" width="2" height="2" fill="#BF6DDE" />
<rect x="37" y="22" width="2" height="2" fill="#BF6DDE" />
<rect x="39" y="22" width="2" height="1" fill="#D080EF" />
<rect x="41" y="22" width="2" height="1" fill="#000000" />
<rect x="43" y="22" width="2" height="1" fill="#864B9C" />
<rect x="45" y="22" width="2" height="7" fill="#76428A" />
<rect x="21" y="23" width="1" height="13" fill="#000000" />
<rect x="22" y="23" width="1" height="11" fill="#BF6DDE" />
<rect x="23" y="23" width="2" height="1" fill="#000000" />
<rect x="39" y="23" width="2" height="1" fill="#000000" />
<rect x="41" y="23" width="2" height="1" fill="#864B9C" />
<rect x="43" y="23" width="2" height="7" fill="#76428A" />
<rect x="23" y="24" width="2" height="11" fill="#BF6DDE" />
<rect x="25" y="24" width="2" height="1" fill="#000000" />
<rect x="37" y="24" width="2" height="1" fill="#000000" />
<rect x="39" y="24" width="2" height="1" fill="#864B9C" />
<rect x="41" y="24" width="2" height="7" fill="#76428A" />
<rect x="25" y="25" width="2" height="11" fill="#BF6DDE" />
<rect x="27" y="25" width="2" height="1" fill="#000000" />
<rect x="35" y="25" width="2" height="1" fill="#000000" />
<rect x="37" y="25" width="2" height="1" fill="#864B9C" />
<rect x="39" y="25" width="2" height="10" fill="#76428A" />
<rect x="27" y="26" width="2" height="11" fill="#BF6DDE" />
<rect x="29" y="26" width="2" height="1" fill="#000000" />
<rect x="33" y="26" width="2" height="1" fill="#000000" />
<rect x="35" y="26" width="2" height="1" fill="#864B9C" />
<rect x="37" y="26" width="2" height="10" fill="#76428A" />
<rect x="29" y="27" width="2" height="11" fill="#BF6DDE" />
<rect x="31" y="27" width="2" height="1" fill="#000000" />
<rect x="33" y="27" width="2" height="1" fill="#864B9C" />
<rect x="35" y="27" width="2" height="10" fill="#76428A" />
<rect x="31" y="28" width="1" height="11" fill="#BF6DDE" />
<rect x="32" y="28" width="1" height="1" fill="#864B9C" />
<rect x="33" y="28" width="2" height="10" fill="#76428A" />
<rect x="47" y="28" width="1" height="1" fill="#643776" />
<rect x="48" y="28" width="1" height="21" fill="#76428A" />
<rect x="32" y="29" width="1" height="10" fill="#76428A" />
<rect x="45" y="29" width="2" height="1" fill="#643776" />
<rect x="47" y="29" width="1" height="10" fill="#000000" />
<rect x="43" y="30" width="2" height="1" fill="#643776" />
<rect x="45" y="30" width="2" height="1" fill="#000000" />
<rect x="41" y="31" width="1" height="3" fill="#76428A" />
<rect x="42" y="31" width="1" height="1" fill="#643776" />
<rect x="43" y="31" width="2" height="1" fill="#000000" />
<rect x="42" y="32" width="1" height="4" fill="#000000" />
<rect x="22" y="34" width="1" height="1" fill="#A661C0" />
<rect x="41" y="34" width="1" height="1" fill="#643776" />
<rect x="22" y="35" width="1" height="1" fill="#000000" />
<rect x="23" y="35" width="2" height="1" fill="#A661C0" />
<rect x="39" y="35" width="2" height="1" fill="#643776" />
<rect x="41" y="35" width="1" height="1" fill="#000000" />
<rect x="23" y="36" width="2" height="1" fill="#000000" />
<rect x="25" y="36" width="2" height="1" fill="#A661C0" />
<rect x="37" y="36" width="2" height="1" fill="#643776" />
<rect x="39" y="36" width="2" height="1" fill="#000000" />
<rect x="25" y="37" width="2" height="1" fill="#000000" />
<rect x="27" y="37" width="2" height="1" fill="#A661C0" />
<rect x="35" y="37" width="2" height="1" fill="#643776" />
<rect x="37" y="37" width="2" height="1" fill="#000000" />
<rect x="27" y="38" width="2" height="1" fill="#000000" />
<rect x="29" y="38" width="2" height="1" fill="#A661C0" />
<rect x="33" y="38" width="2" height="1" fill="#643776" />
<rect x="35" y="38" width="2" height="1" fill="#000000" />
<rect x="16" y="39" width="1" height="1" fill="#A961C5" />
<rect x="17" y="39" width="2" height="1" fill="#000000" />
<rect x="29" y="39" width="2" height="1" fill="#000000" />
<rect x="31" y="39" width="1" height="1" fill="#A661C0" />
<rect x="32" y="39" width="1" height="1" fill="#643776" />
<rect x="33" y="39" width="2" height="1" fill="#000000" />
<rect x="45" y="39" width="2" height="1" fill="#000000" />
<rect x="47" y="39" width="1" height="1" fill="#864B9C" />
<rect x="16" y="40" width="1" height="9" fill="#9B59B5" />
<rect x="17" y="40" width="2" height="1" fill="#A961C5" />
<rect x="19" y="40" width="2" height="1" fill="#000000" />
<rect x="31" y="40" width="2" height="1" fill="#000000" />
<rect x="43" y="40" width="2" height="1" fill="#000000" />
<rect x="45" y="40" width="2" height="1" fill="#864B9C" />
<rect x="47" y="40" width="1" height="9" fill="#76428A" />
<rect x="17" y="41" width="2" height="9" fill="#9B59B5" />
<rect x="19" y="41" width="2" height="1" fill="#A961C5" />
<rect x="21" y="41" width="2" height="1" fill="#000000" />
<rect x="41" y="41" width="2" height="1" fill="#000000" />
<rect x="43" y="41" width="2" height="1" fill="#864B9C" />
<rect x="45" y="41" width="2" height="9" fill="#76428A" />
<rect x="19" y="42" width="2" height="9" fill="#9B59B5" />
<rect x="21" y="42" width="2" height="1" fill="#A961C5" />
<rect x="23" y="42" width="2" height="1" fill="#000000" />
<rect x="39" y="42" width="2" height="1" fill="#000000" />
<rect x="41" y="42" width="2" height="1" fill="#864B9C" />
<rect x="43" y="42" width="2" height="9" fill="#76428A" />
<rect x="21" y="43" width="2" height="9" fill="#9B59B5" />
<rect x="23" y="43" width="2" height="1" fill="#A961C5" />
<rect x="25" y="43" width="2" height="1" fill="#000000" />
<rect x="37" y="43" width="2" height="1" fill="#000000" />
<rect x="39" y="43" width="2" height="1" fill="#864B9C" />
<rect x="41" y="43" width="2" height="9" fill="#76428A" />
<rect x="23" y="44" width="2" height="9" fill="#9B59B5" />
<rect x="25" y="44" width="2" height="1" fill="#A961C5" />
<rect x="27" y="44" width="2" height="1" fill="#000000" />
<rect x="35" y="44" width="2" height="1" fill="#000000" />
<rect x="37" y="44" width="2" height="1" fill="#864B9C" />
<rect x="39" y="44" width="2" height="9" fill="#76428A" />
<rect x="7" y="45" width="2" height="1" fill="#8B52A2" />
<rect x="25" y="45" width="2" height="9" fill="#9B59B5" />
<rect x="27" y="45" width="2" height="1" fill="#A961C5" />
<rect x="29" y="45" width="2" height="1" fill="#000000" />
<rect x="33" y="45" width="2" height="1" fill="#000000" />
<rect x="35" y="45" width="2" height="1" fill="#864B9C" />
<rect x="37" y="45" width="2" height="9" fill="#76428A" />
<rect x="55" y="45" width="2" height="1" fill="#643776" />
<rect x="7" y="46" width="2" height="1" fill="#000000" />
<rect x="9" y="46" width="2" height="1" fill="#8B52A2" />
<rect x="27" y="46" width="2" height="9" fill="#9B59B5" />
<rect x="29" y="46" width="2" height="1" fill="#A961C5" />
<rect x="31" y="46" width="2" height="1" fill="#000000" />
<rect x="33" y="46" width="2" height="1" fill="#864B9C" />
<rect x="35" y="46" width="2" height="9" fill="#76428A" />
<rect x="53" y="46" width="2" height="1" fill="#643776" />
<rect x="55" y="46" width="2" height="1" fill="#000000" />
<rect x="9" y="47" width="2" height="1" fill="#000000" />
<rect x="11" y="47" width="2" height="1" fill="#8B52A2" />
<rect x="29" y="47" width="2" height="9" fill="#9B59B5" />
<rect x="31" y="47" width="1" height="1" fill="#A961C5" />
<rect x="32" y="47" width="1" height="1" fill="#864B9C" />
<rect x="33" y="47" width="2" height="9" fill="#76428A" />
<rect x="51" y="47" width="2" height="1" fill="#643776" />
<rect x="53" y="47" width="2" height="1" fill="#000000" />
<rect x="11" y="48" width="2" height="1" fill="#000000" />
<rect x="13" y="48" width="2" height="1" fill="#8B52A2" />
<rect x="31" y="48" width="1" height="9" fill="#9B59B5" />
<rect x="32" y="48" width="1" height="9" fill="#76428A" />
<rect x="49" y="48" width="2" height="1" fill="#643776" />
<rect x="51" y="48" width="2" height="1" fill="#000000" />
<rect x="13" y="49" width="2" height="1" fill="#000000" />
<rect x="15" y="49" width="2" height="1" fill="#8B52A2" />
<rect x="47" y="49" width="2" height="1" fill="#643776" />
<rect x="49" y="49" width="2" height="1" fill="#000000" />
<rect x="15" y="50" width="2" height="1" fill="#000000" />
<rect x="17" y="50" width="2" height="1" fill="#8B52A2" />
<rect x="45" y="50" width="2" height="1" fill="#643776" />
<rect x="47" y="50" width="2" height="1" fill="#000000" />
<rect x="17" y="51" width="2" height="1" fill="#000000" />
<rect x="19" y="51" width="2" height="1" fill="#8B52A2" />
<rect x="43" y="51" width="2" height="1" fill="#643776" />
<rect x="45" y="51" width="2" height="1" fill="#000000" />
<rect x="19" y="52" width="2" height="1" fill="#000000" />
<rect x="21" y="52" width="2" height="1" fill="#8B52A2" />
<rect x="41" y="52" width="2" height="1" fill="#643776" />
<rect x="43" y="52" width="2" height="1" fill="#000000" />
<rect x="21" y="53" width="2" height="1" fill="#000000" />
<rect x="23" y="53" width="2" height="1" fill="#8B52A2" />
<rect x="39" y="53" width="2" height="1" fill="#643776" />
<rect x="41" y="53" width="2" height="1" fill="#000000" />
<rect x="23" y="54" width="2" height="1" fill="#000000" />
<rect x="25" y="54" width="2" height="1" fill="#8B52A2" />
<rect x="37" y="54" width="2" height="1" fill="#643776" />
<rect x="39" y="54" width="2" height="1" fill="#000000" />
<rect x="25" y="55" width="2" height="1" fill="#000000" />
<rect x="27" y="55" width="2" height="1" fill="#8B52A2" />
<rect x="35" y="55" width="2" height="1" fill="#643776" />
<rect x="37" y="55" width="2" height="1" fill="#000000" />
<rect x="27" y="56" width="2" height="1" fill="#000000" />
<rect x="29" y="56" width="2" height="1" fill="#8B52A2" />
<rect x="33" y="56" width="2" height="1" fill="#643776" />
<rect x="35" y="56" width="2" height="1" fill="#000000" />
<rect x="29" y="57" width="2" height="1" fill="#000000" />
<rect x="31" y="57" width="1" height="1" fill="#8B52A2" />
<rect x="32" y="57" width="1" height="1" fill="#643776" />
<rect x="33" y="57" width="2" height="1" fill="#000000" />
<rect x="31" y="58" width="2" height="1" fill="#000000" />
</svg>