<?xml version="1.0" encoding="UTF-8" ?>
<svg version="1.1" width="64" height="64" xmlns="http://www.w3.org/2000/svg" shape-rendering="crispEdges">
<rect x="24" y="6" width="16" height="1" fill="#000000" />
<rect x="18" y="7" width="6" height="1" fill="#000000" />
<rect x="24" y="7" width="16" height="1" fill="#CADEEC" />
<rect x="40" y="7" width="6" height="1" fill="#000000" />
<rect x="16" y="8" width="2" height="1" fill="#000000" />
<rect x="18" y="8" width="7" height="1" fill="#CADEEC" />
<rect x="25" y="8" width="14" height="2" fill="#AEC7D6" />
<rect x="39" y="8" width="7" height="1" fill="#CADEEC" />
<rect x="46" y="8" width="2" height="1" fill="#000000" />
<rect x="15" y="9" width="1" height="3" fill="#000000" />
<rect x="16" y="9" width="3" height="1" fill="#CADEEC" />
<rect x="19" y="9" width="6" height="7" fill="#AEC7D6" />
<rect x="39" y="9" width="6" height="7" fill="#AEC7D6" />
<rect x="45" y="9" width="3" height="1" fill="#CADEEC" />
<rect x="48" y="9" width="1" height="3" fill="#000000" />
<rect x="10" y="10" width="5" height="1" fill="#000000" />
<rect x="16" y="10" width="1" height="2" fill="#CADEEC" />
<rect x="17" y="10" width="1" height="5" fill="#B5CCDB" />
<rect x="18" y="10" width="1" height="4" fill="#AEC7D6" />
<rect x="25" y="10" width="1" height="1" fill="#AEC7D6" />
<rect x="26" y="10" width="12" height="3" fill="#9CB2C0" />
<rect x="38" y="10" width="1" height="1" fill="#AEC7D6" />
<rect x="45" y="10" width="1" height="4" fill="#AEC7D6" />
<rect x="46" y="10" width="1" height="5" fill="#B5CCDB" />
<rect x="47" y="10" width="1" height="2" fill="#CADEEC" />
<rect x="49" y="10" width="5" height="1" fill="#000000" />
<rect x="7" y="11" width="3" height="1" fill="#000000" />
<rect x="10" y="11" width="5" height="1" fill="#5B6C76" />
<rect x="25" y="11" width="1" height="1" fill="#9CB2C0" />
<rect x="38" y="11" width="1" height="1" fill="#9CB2C0" />
<rect x="49" y="11" width="5" height="1" fill="#6B7E89" />
<rect x="54" y="11" width="3" height="1" fill="#000000" />
<rect x="4" y="12" width="3" height="1" fill="#000000" />
<rect x="7" y="12" width="4" height="1" fill="#5B6C76" />
<rect x="11" y="12" width="4" height="1" fill="#000000" />
<rect x="15" y="12" width="1" height="2" fill="#D3E4EF" />
<rect x="16" y="12" width="1" height="3" fill="#829DAD" />
<rect x="25" y="12" width="1" height="29" fill="#AEC7D6" />
<rect x="38" y="12" width="1" height="29" fill="#AEC7D6" />
<rect x="47" y="12" width="1" height="3" fill="#829DAD" />
<rect x="48" y="12" width="1" height="2" fill="#D3E4EF" />
<rect x="49" y="12" width="4" height="1" fill="#000000" />
<rect x="53" y="12" width="4" height="1" fill="#6B7E89" />
<rect x="57" y="12" width="3" height="1" fill="#000000" />
<rect x="3" y="13" width="1" height="5" fill="#000000" />
<rect x="4" y="13" width="3" height="1" fill="#5B6C76" />
<rect x="7" y="13" width="4" height="1" fill="#000000" />
<rect x="11" y="13" width="4" height="1" fill="#D3E4EF" />
<rect x="26" y="13" width="12" height="8" fill="#AEC7D6" />
<rect x="49" y="13" width="4" height="1" fill="#D3E4EF" />
<rect x="53" y="13" width="4" height="1" fill="#000000" />
<rect x="57" y="13" width="3" height="1" fill="#6B7E89" />
<rect x="60" y="13" width="1" height="5" fill="#000000" />
<rect x="4" y="14" width="1" height="1" fill="#5B6C76" />
<rect x="5" y="14" width="2" height="1" fill="#000000" />
<rect x="7" y="14" width="5" height="1" fill="#D3E4EF" />
<rect x="12" y="14" width="3" height="3" fill="#AEC7D6" />
<rect x="15" y="14" width="1" height="2" fill="#BDD3E1" />
<rect x="18" y="14" width="1" height="3" fill="#B5CCDB" />
<rect x="45" y="14" width="1" height="3" fill="#B5CCDB" />
<rect x="48" y="14" width="1" height="2" fill="#BDD3E1" />
<rect x="49" y="14" width="3" height="4" fill="#AEC7D6" />
<rect x="52" y="14" width="5" height="1" fill="#D3E4EF" />
<rect x="57" y="14" width="2" height="1" fill="#000000" />
<rect x="59" y="14" width="1" height="1" fill="#6B7E89" />
<rect x="4" y="15" width="1" height="1" fill="#000000" />
<rect x="5" y="15" width="3" height="1" fill="#D3E4EF" />
<rect x="8" y="15" width="4" height="2" fill="#AEC7D6" />
<rect x="16" y="15" width="1" height="3" fill="#BDD3E1" />
<rect x="17" y="15" width="1" height="2" fill="#829DAD" />
<rect x="46" y="15" width="1" height="2" fill="#829DAD" />
<rect x="47" y="15" width="1" height="3" fill="#BDD3E1" />
<rect x="52" y="15" width="4" height="2" fill="#AEC7D6" />
<rect x="56" y="15" width="3" height="1" fill="#D3E4EF" />
<rect x="59" y="15" width="1" height="1" fill="#000000" />
<rect x="4" y="16" width="2" height="1" fill="#D3E4EF" />
<rect x="6" y="16" width="2" height="3" fill="#AEC7D6" />
<rect x="15" y="16" width="1" height="3" fill="#AEC7D6" />
<rect x="19" y="16" width="1" height="2" fill="#B5CCDB" />
<rect x="20" y="16" width="5" height="16" fill="#AEC7D6" />
<rect x="39" y="16" width="5" height="7" fill="#AEC7D6" />
<rect x="44" y="16" width="1" height="2" fill="#B5CCDB" />
<rect x="48" y="16" width="1" height="10" fill="#AEC7D6" />
<rect x="56" y="16" width="2" height="2" fill="#AEC7D6" />
<rect x="58" y="16" width="2" height="1" fill="#D3E4EF" />
<rect x="4" y="17" width="1" height="2" fill="#D3E4EF" />
<rect x="5" y="17" width="1" height="12" fill="#AEC7D6" />
<rect x="8" y="17" width="1" height="1" fill="#AEC7D6" />
<rect x="9" y="17" width="1" height="3" fill="#9CB2C0" />
<rect x="10" y="17" width="3" height="8" fill="#61737E" />
<rect x="13" y="17" width="1" height="3" fill="#9CB2C0" />
<rect x="14" y="17" width="1" height="1" fill="#AEC7D6" />
<rect x="17" y="17" width="1" height="1" fill="#BDD3E1" />
<rect x="18" y="17" width="1" height="1" fill="#829DAD" />
<rect x="45" y="17" width="1" height="1" fill="#829DAD" />
<rect x="46" y="17" width="1" height="1" fill="#BDD3E1" />
<rect x="52" y="17" width="1" height="1" fill="#AEC7D6" />
<rect x="53" y="17" width="1" height="1" fill="#9CB2C0" />
<rect x="54" y="17" width="1" height="3" fill="#FBF236" />
<rect x="55" y="17" width="1" height="1" fill="#9CB2C0" />
<rect x="58" y="17" width="1" height="3" fill="#AEC7D6" />
<rect x="59" y="17" width="1" height="2" fill="#D3E4EF" />
<rect x="2" y="18" width="1" height="5" fill="#000000" />
<rect x="3" y="18" width="1" height="5" fill="#D3E4EF" />
<rect x="8" y="18" width="1" height="2" fill="#9CB2C0" />
<rect x="14" y="18" width="1" height="2" fill="#9CB2C0" />
<rect x="16" y="18" width="4" height="13" fill="#AEC7D6" />
<rect x="44" y="18" width="4" height="4" fill="#AEC7D6" />
<rect x="49" y="18" width="2" height="2" fill="#AEC7D6" />
<rect x="51" y="18" width="2" height="1" fill="#9CB2C0" />
<rect x="53" y="18" width="1" height="1" fill="#FBF236" />
<rect x="55" y="18" width="1" height="1" fill="#FBF236" />
<rect x="56" y="18" width="2" height="1" fill="#9CB2C0" />
<rect x="60" y="18" width="1" height="5" fill="#D3E4EF" />
<rect x="61" y="18" width="1" height="5" fill="#000000" />
<rect x="4" y="19" width="1" height="8" fill="#AEC7D6" />
<rect x="6" y="19" width="1" height="11" fill="#AEC7D6" />
<rect x="7" y="19" width="1" height="1" fill="#9CB2C0" />
<rect x="15" y="19" width="1" height="1" fill="#9CB2C0" />
<rect x="51" y="19" width="1" height="1" fill="#9CB2C0" />
<rect x="52" y="19" width="2" height="1" fill="#AEC7D6" />
<rect x="55" y="19" width="2" height="1" fill="#AEC7D6" />
<rect x="57" y="19" width="1" height="1" fill="#9CB2C0" />
<rect x="59" y="19" width="1" height="8" fill="#AEC7D6" />
<rect x="7" y="20" width="3" height="2" fill="#61737E" />
<rect x="13" y="20" width="3" height="2" fill="#61737E" />
<rect x="49" y="20" width="1" height="6" fill="#AEC7D6" />
<rect x="50" y="20" width="1" height="1" fill="#9CB2C0" />
<rect x="51" y="20" width="1" height="3" fill="#FBF236" />
<rect x="52" y="20" width="1" height="1" fill="#AEC7D6" />
<rect x="53" y="20" width="3" height="1" fill="#A8BCC8" />
<rect x="56" y="20" width="1" height="1" fill="#AEC7D6" />
<rect x="57" y="20" width="1" height="3" fill="#FBF236" />
<rect x="58" y="20" width="1" height="1" fill="#9CB2C0" />
<rect x="26" y="21" width="5" height="1" fill="#AEC7D6" />
<rect x="31" y="21" width="2" height="4" fill="#AC3232" />
<rect x="33" y="21" width="5" height="1" fill="#AEC7D6" />
<rect x="50" y="21" width="1" height="1" fill="#FBF236" />
<rect x="52" y="21" width="1" height="1" fill="#FBF236" />
<rect x="53" y="21" width="1" height="2" fill="#A8BCC8" />
<rect x="54" y="21" width="2" height="1" fill="#AEC7D6" />
<rect x="56" y="21" width="1" height="1" fill="#FBF236" />
<rect x="58" y="21" width="1" height="1" fill="#FBF236" />
<rect x="7" y="22" width="3" height="1" fill="#51616B" />
<rect x="13" y="22" width="3" height="1" fill="#51616B" />
<rect x="26" y="22" width="4" height="9" fill="#AEC7D6" />
<rect x="30" y="22" width="1" height="2" fill="#AC3232" />
<rect x="33" y="22" width="1" height="2" fill="#AC3232" />
<rect x="34" y="22" width="4" height="9" fill="#AEC7D6" />
<rect x="44" y="22" width="2" height="3" fill="#37946E" />
<rect x="46" y="22" width="2" height="1" fill="#AEC7D6" />
<rect x="50" y="22" width="1" height="1" fill="#9CB2C0" />
<rect x="52" y="22" width="1" height="2" fill="#AEC7D6" />
<rect x="54" y="22" width="2" height="1" fill="#A8BCC8" />
<rect x="56" y="22" width="1" height="2" fill="#AEC7D6" />
<rect x="58" y="22" width="1" height="1" fill="#9CB2C0" />
<rect x="1" y="23" width="1" height="11" fill="#000000" />
<rect x="2" y="23" width="1" height="5" fill="#97AFBD" />
<rect x="3" y="23" width="1" height="4" fill="#617784" />
<rect x="7" y="23" width="3" height="1" fill="#9CB2C0" />
<rect x="13" y="23" width="3" height="1" fill="#9CB2C0" />
<rect x="39" y="23" width="4" height="9" fill="#AEC7D6" />
<rect x="43" y="23" width="1" height="1" fill="#37946E" />
<rect x="46" y="23" width="1" height="1" fill="#37946E" />
<rect x="47" y="23" width="1" height="3" fill="#AEC7D6" />
<rect x="50" y="23" width="1" height="4" fill="#AEC7D6" />
<rect x="51" y="23" width="1" height="2" fill="#9CB2C0" />
<rect x="53" y="23" width="1" height="1" fill="#AEC7D6" />
<rect x="54" y="23" width="1" height="3" fill="#FBF236" />
<rect x="55" y="23" width="1" height="1" fill="#AEC7D6" />
<rect x="57" y="23" width="1" height="2" fill="#9CB2C0" />
<rect x="58" y="23" width="1" height="6" fill="#AEC7D6" />
<rect x="60" y="23" width="1" height="4" fill="#617784" />
<rect x="61" y="23" width="1" height="5" fill="#97AFBD" />
<rect x="62" y="23" width="1" height="11" fill="#000000" />
<rect x="7" y="24" width="1" height="6" fill="#AEC7D6" />
<rect x="8" y="24" width="2" height="1" fill="#9CB2C0" />
<rect x="13" y="24" width="2" height="1" fill="#9CB2C0" />
<rect x="15" y="24" width="1" height="7" fill="#AEC7D6" />
<rect x="30" y="24" width="1" height="6" fill="#AEC7D6" />
<rect x="33" y="24" width="1" height="6" fill="#AEC7D6" />
<rect x="43" y="24" width="1" height="1" fill="#308461" />
<rect x="46" y="24" width="1" height="1" fill="#308461" />
<rect x="52" y="24" width="1" height="1" fill="#9CB2C0" />
<rect x="53" y="24" width="1" height="1" fill="#FBF236" />
<rect x="55" y="24" width="1" height="1" fill="#FBF236" />
<rect x="56" y="24" width="1" height="1" fill="#9CB2C0" />
<rect x="8" y="25" width="1" height="6" fill="#AEC7D6" />
<rect x="9" y="25" width="1" height="1" fill="#9CB2C0" />
<rect x="10" y="25" width="3" height="1" fill="#51616B" />
<rect x="13" y="25" width="1" height="1" fill="#9CB2C0" />
<rect x="14" y="25" width="1" height="6" fill="#AEC7D6" />
<rect x="31" y="25" width="2" height="5" fill="#AEC7D6" />
<rect x="43" y="25" width="1" height="7" fill="#AEC7D6" />
<rect x="44" y="25" width="2" height="1" fill="#308461" />
<rect x="46" y="25" width="1" height="2" fill="#9CB2C0" />
<rect x="51" y="25" width="2" height="6" fill="#AEC7D6" />
<rect x="53" y="25" width="1" height="1" fill="#9CB2C0" />
<rect x="55" y="25" width="1" height="1" fill="#9CB2C0" />
<rect x="56" y="25" width="2" height="5" fill="#AEC7D6" />
<rect x="9" y="26" width="5" height="5" fill="#AEC7D6" />
<rect x="44" y="26" width="2" height="5" fill="#AEC7D6" />
<rect x="47" y="26" width="1" height="1" fill="#9CB2C0" />
<rect x="48" y="26" width="2" height="3" fill="#5B6EE1" />
<rect x="53" y="26" width="3" height="5" fill="#AEC7D6" />
<rect x="3" y="27" width="1" height="3" fill="#97AFBD" />
<rect x="4" y="27" width="1" height="2" fill="#617784" />
<rect x="46" y="27" width="1" height="4" fill="#AEC7D6" />
<rect x="47" y="27" width="1" height="1" fill="#5B6EE1" />
<rect x="50" y="27" width="1" height="1" fill="#5B6EE1" />
<rect x="59" y="27" width="1" height="2" fill="#617784" />
<rect x="60" y="27" width="1" height="3" fill="#97AFBD" />
<rect x="2" y="28" width="1" height="6" fill="#AEC7D6" />
<rect x="47" y="28" width="1" height="1" fill="#5566D0" />
<rect x="50" y="28" width="1" height="1" fill="#5566D0" />
<rect x="61" y="28" width="1" height="6" fill="#AEC7D6" />
<rect x="4" y="29" width="1" height="2" fill="#97AFBD" />
<rect x="5" y="29" width="1" height="1" fill="#617784" />
<rect x="47" y="29" width="1" height="2" fill="#AEC7D6" />
<rect x="48" y="29" width="2" height="1" fill="#5566D0" />
<rect x="50" y="29" width="1" height="2" fill="#AEC7D6" />
<rect x="58" y="29" width="1" height="1" fill="#617784" />
<rect x="59" y="29" width="1" height="2" fill="#97AFBD" />
<rect x="3" y="30" width="1" height="10" fill="#AEC7D6" />
<rect x="5" y="30" width="1" height="2" fill="#97AFBD" />
<rect x="6" y="30" width="2" height="1" fill="#617784" />
<rect x="30" y="30" width="4" height="1" fill="#000000" />
<rect x="48" y="30" width="2" height="1" fill="#AEC7D6" />
<rect x="56" y="30" width="2" height="1" fill="#617784" />
<rect x="58" y="30" width="1" height="2" fill="#97AFBD" />
<rect x="60" y="30" width="1" height="10" fill="#AEC7D6" />
<rect x="4" y="31" width="1" height="13" fill="#AEC7D6" />
<rect x="6" y="31" width="2" height="1" fill="#97AFBD" />
<rect x="8" y="31" width="4" height="1" fill="#617784" />
<rect x="12" y="31" width="8" height="1" fill="#9DB8C8" />
<rect x="26" y="31" width="2" height="1" fill="#AEC7D6" />
<rect x="28" y="31" width="2" height="1" fill="#000000" />
<rect x="30" y="31" width="4" height="1" fill="#56656E" />
<rect x="34" y="31" width="2" height="1" fill="#000000" />
<rect x="36" y="31" width="2" height="1" fill="#AEC7D6" />
<rect x="44" y="31" width="8" height="1" fill="#9DB8C8" />
<rect x="52" y="31" width="4" height="1" fill="#617784" />
<rect x="56" y="31" width="2" height="1" fill="#97AFBD" />
<rect x="59" y="31" width="1" height="13" fill="#AEC7D6" />
<rect x="5" y="32" width="2" height="15" fill="#AEC7D6" />
<rect x="7" y="32" width="5" height="1" fill="#97AFBD" />
<rect x="12" y="32" width="3" height="1" fill="#617784" />
<rect x="15" y="32" width="4" height="1" fill="#000000" />
<rect x="19" y="32" width="3" height="1" fill="#9DB8C8" />
<rect x="22" y="32" width="3" height="1" fill="#AEC7D6" />
<rect x="26" y="32" width="1" height="2" fill="#AEC7D6" />
<rect x="27" y="32" width="1" height="2" fill="#000000" />
<rect x="28" y="32" width="3" height="1" fill="#56656E" />
<rect x="31" y="32" width="2" height="1" fill="#46535A" />
<rect x="33" y="32" width="3" height="1" fill="#56656E" />
<rect x="36" y="32" width="1" height="2" fill="#000000" />
<rect x="37" y="32" width="1" height="2" fill="#AEC7D6" />
<rect x="39" y="32" width="3" height="1" fill="#AEC7D6" />
<rect x="42" y="32" width="3" height="1" fill="#9DB8C8" />
<rect x="45" y="32" width="4" height="1" fill="#000000" />
<rect x="49" y="32" width="3" height="1" fill="#617784" />
<rect x="52" y="32" width="5" height="1" fill="#97AFBD" />
<rect x="57" y="32" width="2" height="15" fill="#AEC7D6" />
<rect x="7" y="33" width="4" height="6" fill="#AEC7D6" />
<rect x="11" y="33" width="1" height="1" fill="#97AFBD" />
<rect x="12" y="33" width="2" height="1" fill="#8CA2AF" />
<rect x="14" y="33" width="1" height="1" fill="#000000" />
<rect x="19" y="33" width="2" height="1" fill="#000000" />
<rect x="21" y="33" width="3" height="1" fill="#9DB8C8" />
<rect x="24" y="33" width="1" height="1" fill="#AEC7D6" />
<rect x="28" y="33" width="2" height="1" fill="#56656E" />
<rect x="30" y="33" width="1" height="1" fill="#46535A" />
<rect x="31" y="33" width="2" height="5" fill="#9AB0BD" />
<rect x="33" y="33" width="1" height="1" fill="#46535A" />
<rect x="34" y="33" width="2" height="1" fill="#56656E" />
<rect x="39" y="33" width="1" height="1" fill="#AEC7D6" />
<rect x="40" y="33" width="3" height="1" fill="#9DB8C8" />
<rect x="43" y="33" width="2" height="1" fill="#000000" />
<rect x="49" y="33" width="1" height="1" fill="#000000" />
<rect x="50" y="33" width="2" height="1" fill="#8CA2AF" />
<rect x="52" y="33" width="1" height="1" fill="#97AFBD" />
<rect x="53" y="33" width="4" height="6" fill="#AEC7D6" />
<rect x="2" y="34" width="1" height="6" fill="#000000" />
<rect x="11" y="34" width="1" height="1" fill="#AEC7D6" />
<rect x="12" y="34" width="1" height="2" fill="#8CA2AF" />
<rect x="13" y="34" width="1" height="2" fill="#000000" />
<rect x="21" y="34" width="2" height="1" fill="#000000" />
<rect x="23" y="34" width="2" height="1" fill="#9DB8C8" />
<rect x="26" y="34" width="1" height="4" fill="#000000" />
<rect x="27" y="34" width="2" height="1" fill="#56656E" />
<rect x="29" y="34" width="1" height="1" fill="#46535A" />
<rect x="30" y="34" width="1" height="3" fill="#9AB0BD" />
<rect x="33" y="34" width="1" height="3" fill="#9AB0BD" />
<rect x="34" y="34" width="1" height="1" fill="#46535A" />
<rect x="35" y="34" width="2" height="1" fill="#56656E" />
<rect x="37" y="34" width="1" height="4" fill="#000000" />
<rect x="39" y="34" width="2" height="1" fill="#9DB8C8" />
<rect x="41" y="34" width="2" height="1" fill="#000000" />
<rect x="50" y="34" width="1" height="2" fill="#000000" />
<rect x="51" y="34" width="1" height="2" fill="#8CA2AF" />
<rect x="52" y="34" width="1" height="1" fill="#AEC7D6" />
<rect x="61" y="34" width="1" height="6" fill="#000000" />
<rect x="11" y="35" width="1" height="5" fill="#8CA2AF" />
<rect x="23" y="35" width="1" height="7" fill="#000000" />
<rect x="24" y="35" width="1" height="7" fill="#9DB8C8" />
<rect x="27" y="35" width="1" height="3" fill="#56656E" />
<rect x="28" y="35" width="1" height="2" fill="#46535A" />
<rect x="29" y="35" width="1" height="1" fill="#9AB0BD" />
<rect x="34" y="35" width="1" height="1" fill="#9AB0BD" />
<rect x="35" y="35" width="1" height="2" fill="#46535A" />
<rect x="36" y="35" width="1" height="3" fill="#56656E" />
<rect x="39" y="35" width="1" height="7" fill="#9DB8C8" />
<rect x="40" y="35" width="1" height="7" fill="#000000" />
<rect x="52" y="35" width="1" height="5" fill="#8CA2AF" />
<rect x="12" y="36" width="1" height="4" fill="#000000" />
<rect x="29" y="36" width="1" height="1" fill="#89A1AF" />
<rect x="34" y="36" width="1" height="1" fill="#89A1AF" />
<rect x="51" y="36" width="1" height="4" fill="#000000" />
<rect x="28" y="37" width="1" height="3" fill="#56656E" />
<rect x="29" y="37" width="1" height="1" fill="#46535A" />
<rect x="30" y="37" width="1" height="1" fill="#89A1AF" />
<rect x="33" y="37" width="1" height="1" fill="#89A1AF" />
<rect x="34" y="37" width="1" height="1" fill="#46535A" />
<rect x="35" y="37" width="1" height="3" fill="#56656E" />
<rect x="26" y="38" width="1" height="11" fill="#AEC7D6" />
<rect x="27" y="38" width="1" height="2" fill="#000000" />
<rect x="29" y="38" width="1" height="2" fill="#56656E" />
<rect x="30" y="38" width="1" height="1" fill="#46535A" />
<rect x="31" y="38" width="2" height="1" fill="#89A1AF" />
<rect x="33" y="38" width="1" height="1" fill="#46535A" />
<rect x="34" y="38" width="1" height="2" fill="#56656E" />
<rect x="36" y="38" width="1" height="2" fill="#000000" />
<rect x="37" y="38" width="1" height="11" fill="#AEC7D6" />
<rect x="7" y="39" width="3" height="7" fill="#AEC7D6" />
<rect x="10" y="39" width="1" height="8" fill="#8CA2AF" />
<rect x="30" y="39" width="1" height="2" fill="#56656E" />
<rect x="31" y="39" width="2" height="1" fill="#46535A" />
<rect x="33" y="39" width="1" height="2" fill="#56656E" />
<rect x="53" y="39" width="1" height="8" fill="#8CA2AF" />
<rect x="54" y="39" width="3" height="7" fill="#AEC7D6" />
<rect x="3" y="40" width="1" height="4" fill="#000000" />
<rect x="11" y="40" width="1" height="7" fill="#000000" />
<rect x="27" y="40" width="1" height="13" fill="#AEC7D6" />
<rect x="28" y="40" width="2" height="1" fill="#000000" />
<rect x="31" y="40" width="2" height="1" fill="#56656E" />
<rect x="34" y="40" width="2" height="1" fill="#000000" />
<rect x="36" y="40" width="1" height="13" fill="#AEC7D6" />
<rect x="52" y="40" width="1" height="7" fill="#000000" />
<rect x="60" y="40" width="1" height="4" fill="#000000" />
<rect x="25" y="41" width="1" height="9" fill="#9DB8C8" />
<rect x="28" y="41" width="2" height="14" fill="#AEC7D6" />
<rect x="30" y="41" width="4" height="1" fill="#000000" />
<rect x="34" y="41" width="2" height="14" fill="#AEC7D6" />
<rect x="38" y="41" width="1" height="9" fill="#9DB8C8" />
<rect x="24" y="42" width="1" height="8" fill="#000000" />
<rect x="30" y="42" width="4" height="16" fill="#AEC7D6" />
<rect x="39" y="42" width="1" height="8" fill="#000000" />
<rect x="4" y="44" width="1" height="3" fill="#000000" />
<rect x="59" y="44" width="1" height="3" fill="#000000" />
<rect x="7" y="46" width="2" height="1" fill="#AEC7D6" />
<rect x="9" y="46" width="1" height="2" fill="#8CA2AF" />
<rect x="54" y="46" width="1" height="2" fill="#8CA2AF" />
<rect x="55" y="46" width="2" height="1" fill="#AEC7D6" />
<rect x="5" y="47" width="1" height="1" fill="#000000" />
<rect x="6" y="47" width="2" height="1" fill="#AEC7D6" />
<rect x="8" y="47" width="1" height="1" fill="#8CA2AF" />
<rect x="10" y="47" width="1" height="1" fill="#000000" />
<rect x="53" y="47" width="1" height="1" fill="#000000" />
<rect x="55" y="47" width="1" height="1" fill="#8CA2AF" />
<rect x="56" y="47" width="2" height="1" fill="#AEC7D6" />
<rect x="58" y="47" width="1" height="1" fill="#000000" />
<rect x="6" y="48" width="4" height="1" fill="#000000" />
<rect x="54" y="48" width="4" height="1" fill="#000000" />
<rect x="26" y="49" width="1" height="5" fill="#9DB8C8" />
<rect x="37" y="49" width="1" height="5" fill="#9DB8C8" />
<rect x="25" y="50" width="1" height="4" fill="#000000" />
<rect x="38" y="50" width="1" height="4" fill="#000000" />
<rect x="27" y="53" width="1" height="3" fill="#9DB8C8" />
<rect x="36" y="53" width="1" height="3" fill="#9DB8C8" />
<rect x="26" y="54" width="1" height="2" fill="#000000" />
<rect x="37" y="54" width="1" height="2" fill="#000000" />
<rect x="28" y="55" width="1" height="3" fill="#9DB8C8" />
<rect x="29" y="55" width="1" height="2" fill="#AEC7D6" />
<rect x="34" y="55" width="1" height="2" fill="#AEC7D6" />
<rect x="35" y="55" width="1" height="3" fill="#9DB8C8" />
<rect x="27" y="56" width="1" height="2" fill="#000000" />
<rect x="36" y="56" width="1" height="2" fill="#000000" />
<rect x="29" y="57" width="1" height="2" fill="#9DB8C8" />
<rect x="34" y="57" width="1" height="2" fill="#9DB8C8" />
<rect x="28" y="58" width="1" height="1" fill="#000000" />
<rect x="30" y="58" width="1" height="2" fill="#9DB8C8" />
<rect x="31" y="58" width="2" height="1" fill="#AEC7D6" />
<rect x="33" y="58" width="1" height="2" fill="#9DB8C8" />
<rect x="35" y="58" width="1" height="1" fill="#000000" />
<rect x="29" y="59" width="1" height="1" fill="#000000" />
<rect x="31" y="59" width="2" height="1" fill="#9DB8C8" />
<rect x="34" y="59" width="1" height="1" fill="#000000" />
<rect x="30" y="60" width="4" height="1" fill="#000000" />
</svg>