<?xml version="1.0" encoding="UTF-8" ?>
<svg version="1.1" width="64" height="64" xmlns="http://www.w3.org/2000/svg" shape-rendering="crispEdges">
<rect x="4" y="19" width="56" height="1" fill="#000000" />
<rect x="3" y="20" width="1" height="1" fill="#000000" />
<rect x="4" y="20" width="8" height="3" fill="#C5D8E3" />
<rect x="12" y="20" width="5" height="1" fill="#B5C7D1" />
<rect x="17" y="20" width="43" height="3" fill="#C5D8E3" />
<rect x="60" y="20" width="1" height="1" fill="#000000" />
<rect x="2" y="21" width="1" height="23" fill="#000000" />
<rect x="3" y="21" width="1" height="19" fill="#C5D8E3" />
<rect x="12" y="21" width="5" height="2" fill="#C5D8E3" />
<rect x="60" y="21" width="1" height="19" fill="#C5D8E3" />
<rect x="61" y="21" width="1" height="23" fill="#000000" />
<rect x="4" y="23" width="2" height="1" fill="#C5D8E3" />
<rect x="6" y="23" width="52" height="1" fill="#000000" />
<rect x="58" y="23" width="2" height="1" fill="#C5D8E3" />
<rect x="4" y="24" width="1" height="17" fill="#C5D8E3" />
<rect x="5" y="24" width="1" height="19" fill="#000000" />
<rect x="6" y="24" width="18" height="4" fill="#323C39" />
<rect x="24" y="24" width="16" height="3" fill="#847E87" />
<rect x="40" y="24" width="18" height="9" fill="#323C39" />
<rect x="58" y="24" width="1" height="19" fill="#000000" />
<rect x="59" y="24" width="1" height="17" fill="#C5D8E3" />
<rect x="24" y="27" width="1" height="3" fill="#323C39" />
<rect x="25" y="27" width="14" height="1" fill="#847E87" />
<rect x="39" y="27" width="1" height="3" fill="#323C39" />
<rect x="6" y="28" width="7" height="4" fill="#323C39" />
<rect x="13" y="28" width="4" height="11" fill="#1C1C1C" />
<rect x="17" y="28" width="7" height="4" fill="#323C39" />
<rect x="25" y="28" width="14" height="1" fill="#323C39" />
<rect x="25" y="29" width="14" height="4" fill="#847E87" />
<rect x="24" y="30" width="1" height="2" fill="#847E87" />
<rect x="39" y="30" width="1" height="2" fill="#847E87" />
<rect x="6" y="32" width="3" height="9" fill="#323C39" />
<rect x="9" y="32" width="4" height="3" fill="#1C1C1C" />
<rect x="17" y="32" width="4" height="3" fill="#1C1C1C" />
<rect x="21" y="32" width="4" height="3" fill="#323C39" />
<rect x="39" y="32" width="1" height="3" fill="#323C39" />
<rect x="25" y="33" width="14" height="1" fill="#323C39" />
<rect x="40" y="33" width="1" height="9" fill="#323C39" />
<rect x="41" y="33" width="7" height="1" fill="#9BADB7" />
<rect x="48" y="33" width="1" height="9" fill="#323C39" />
<rect x="49" y="33" width="7" height="1" fill="#9BADB7" />
<rect x="56" y="33" width="2" height="8" fill="#323C39" />
<rect x="25" y="34" width="14" height="1" fill="#BACCD6" />
<rect x="41" y="34" width="2" height="1" fill="#9BADB7" />
<rect x="43" y="34" width="3" height="4" fill="#AC3232" />
<rect x="46" y="34" width="2" height="1" fill="#9BADB7" />
<rect x="49" y="34" width="2" height="1" fill="#9BADB7" />
<rect x="51" y="34" width="3" height="4" fill="#AC3232" />
<rect x="54" y="34" width="2" height="1" fill="#9BADB7" />
<rect x="9" y="35" width="4" height="1" fill="#000000" />
<rect x="17" y="35" width="4" height="1" fill="#000000" />
<rect x="21" y="35" width="3" height="7" fill="#323C39" />
<rect x="24" y="35" width="1" height="4" fill="#BACCD6" />
<rect x="25" y="35" width="14" height="1" fill="#9BADB7" />
<rect x="39" y="35" width="1" height="4" fill="#BACCD6" />
<rect x="41" y="35" width="1" height="5" fill="#9BADB7" />
<rect x="42" y="35" width="1" height="2" fill="#AC3232" />
<rect x="46" y="35" width="1" height="2" fill="#AC3232" />
<rect x="47" y="35" width="1" height="5" fill="#9BADB7" />
<rect x="49" y="35" width="1" height="5" fill="#9BADB7" />
<rect x="50" y="35" width="1" height="2" fill="#AC3232" />
<rect x="54" y="35" width="1" height="2" fill="#AC3232" />
<rect x="55" y="35" width="1" height="5" fill="#9BADB7" />
<rect x="9" y="36" width="4" height="6" fill="#323C39" />
<rect x="17" y="36" width="4" height="6" fill="#323C39" />
<rect x="25" y="36" width="1" height="3" fill="#9BADB7" />
<rect x="26" y="36" width="4" height="1" fill="#1C1C1C" />
<rect x="30" y="36" width="4" height="3" fill="#9BADB7" />
<rect x="34" y="36" width="4" height="1" fill="#1C1C1C" />
<rect x="38" y="36" width="1" height="3" fill="#9BADB7" />
<rect x="26" y="37" width="4" height="1" fill="#000000" />
<rect x="34" y="37" width="4" height="1" fill="#000000" />
<rect x="42" y="37" width="1" height="1" fill="#A22F2F" />
<rect x="46" y="37" width="1" height="1" fill="#A22F2F" />
<rect x="50" y="37" width="1" height="1" fill="#A22F2F" />
<rect x="54" y="37" width="1" height="1" fill="#A22F2F" />
<rect x="26" y="38" width="4" height="1" fill="#9BADB7" />
<rect x="34" y="38" width="4" height="1" fill="#9BADB7" />
<rect x="42" y="38" width="1" height="2" fill="#9BADB7" />
<rect x="43" y="38" width="3" height="1" fill="#A22F2F" />
<rect x="46" y="38" width="1" height="2" fill="#9BADB7" />
<rect x="50" y="38" width="1" height="2" fill="#9BADB7" />
<rect x="51" y="38" width="3" height="1" fill="#A22F2F" />
<rect x="54" y="38" width="1" height="2" fill="#9BADB7" />
<rect x="13" y="39" width="4" height="1" fill="#000000" />
<rect x="24" y="39" width="1" height="3" fill="#323C39" />
<rect x="25" y="39" width="14" height="1" fill="#BACCD6" />
<rect x="39" y="39" width="1" height="3" fill="#323C39" />
<rect x="43" y="39" width="3" height="1" fill="#9BADB7" />
<rect x="51" y="39" width="3" height="1" fill="#9BADB7" />
<rect x="3" y="40" width="1" height="4" fill="#B5C7D1" />
<rect x="13" y="40" width="4" height="2" fill="#323C39" />
<rect x="25" y="40" width="14" height="1" fill="#323C39" />
<rect x="41" y="40" width="7" height="2" fill="#323C39" />
<rect x="49" y="40" width="7" height="2" fill="#323C39" />
<rect x="60" y="40" width="1" height="4" fill="#B5C7D1" />
<rect x="4" y="41" width="1" height="4" fill="#B5C7D1" />
<rect x="6" y="41" width="1" height="2" fill="#282E2C" />
<rect x="7" y="41" width="2" height="1" fill="#323C39" />
<rect x="25" y="41" width="14" height="2" fill="#847E87" />
<rect x="56" y="41" width="1" height="1" fill="#323C39" />
<rect x="57" y="41" width="1" height="2" fill="#282E2C" />
<rect x="59" y="41" width="1" height="4" fill="#B5C7D1" />
<rect x="7" y="42" width="17" height="1" fill="#282E2C" />
<rect x="24" y="42" width="1" height="1" fill="#847E87" />
<rect x="39" y="42" width="1" height="1" fill="#847E87" />
<rect x="40" y="42" width="17" height="1" fill="#282E2C" />
<rect x="5" y="43" width="1" height="2" fill="#B5C7D1" />
<rect x="6" y="43" width="52" height="1" fill="#000000" />
<rect x="58" y="43" width="1" height="2" fill="#B5C7D1" />
<rect x="3" y="44" width="1" height="1" fill="#000000" />
<rect x="6" y="44" width="52" height="1" fill="#B5C7D1" />
<rect x="60" y="44" width="1" height="1" fill="#000000" />
<rect x="4" y="45" width="56" height="1" fill="#000000" />
</svg>