<?xml version="1.0" encoding="UTF-8" ?>
<svg version="1.1" width="64" height="64" xmlns="http://www.w3.org/2000/svg" shape-rendering="crispEdges">
<rect x="4" y="14" width="14" height="1" fill="#000000" />
<rect x="46" y="14" width="12" height="1" fill="#000000" />
<rect x="3" y="15" width="1" height="39" fill="#000000" />
<rect x="4" y="15" width="13" height="1" fill="#9BA7AD" />
<rect x="17" y="15" width="1" height="1" fill="#A7B7BD" />
<rect x="18" y="15" width="28" height="1" fill="#000000" />
<rect x="46" y="15" width="1" height="1" fill="#A7B7BD" />
<rect x="47" y="15" width="11" height="1" fill="#9BA7AD" />
<rect x="58" y="15" width="1" height="39" fill="#000000" />
<rect x="4" y="16" width="13" height="12" fill="#AAB9C0" />
<rect x="17" y="16" width="1" height="10" fill="#B5C8D0" />
<rect x="18" y="16" width="1" height="1" fill="#697379" />
<rect x="19" y="16" width="1" height="1" fill="#636F76" />
<rect x="20" y="16" width="24" height="1" fill="#9BA7AD" />
<rect x="44" y="16" width="1" height="1" fill="#636F76" />
<rect x="45" y="16" width="1" height="1" fill="#697379" />
<rect x="46" y="16" width="1" height="10" fill="#B5C8D0" />
<rect x="47" y="16" width="11" height="12" fill="#AAB9C0" />
<rect x="18" y="17" width="1" height="7" fill="#7F8C94" />
<rect x="19" y="17" width="1" height="6" fill="#738189" />
<rect x="20" y="17" width="8" height="1" fill="#AAB9C0" />
<rect x="28" y="17" width="8" height="1" fill="#000000" />
<rect x="36" y="17" width="8" height="1" fill="#AAB9C0" />
<rect x="44" y="17" width="1" height="6" fill="#738189" />
<rect x="45" y="17" width="1" height="7" fill="#7F8C94" />
<rect x="20" y="18" width="5" height="1" fill="#AAB9C0" />
<rect x="25" y="18" width="3" height="1" fill="#000000" />
<rect x="28" y="18" width="8" height="1" fill="#9BA7AD" />
<rect x="36" y="18" width="3" height="1" fill="#000000" />
<rect x="39" y="18" width="5" height="1" fill="#AAB9C0" />
<rect x="20" y="19" width="3" height="1" fill="#AAB9C0" />
<rect x="23" y="19" width="2" height="1" fill="#000000" />
<rect x="25" y="19" width="3" height="1" fill="#9BA7AD" />
<rect x="28" y="19" width="8" height="3" fill="#AAB9C0" />
<rect x="36" y="19" width="3" height="1" fill="#9BA7AD" />
<rect x="39" y="19" width="2" height="1" fill="#000000" />
<rect x="41" y="19" width="3" height="1" fill="#AAB9C0" />
<rect x="20" y="20" width="2" height="1" fill="#AAB9C0" />
<rect x="22" y="20" width="1" height="1" fill="#000000" />
<rect x="23" y="20" width="2" height="1" fill="#9BA7AD" />
<rect x="25" y="20" width="3" height="2" fill="#AAB9C0" />
<rect x="36" y="20" width="3" height="2" fill="#AAB9C0" />
<rect x="39" y="20" width="2" height="1" fill="#9BA7AD" />
<rect x="41" y="20" width="1" height="1" fill="#000000" />
<rect x="42" y="20" width="2" height="1" fill="#AAB9C0" />
<rect x="20" y="21" width="1" height="1" fill="#AAB9C0" />
<rect x="21" y="21" width="1" height="1" fill="#000000" />
<rect x="22" y="21" width="1" height="1" fill="#9BA7AD" />
<rect x="23" y="21" width="2" height="21" fill="#AAB9C0" />
<rect x="39" y="21" width="2" height="21" fill="#AAB9C0" />
<rect x="41" y="21" width="1" height="1" fill="#9BA7AD" />
<rect x="42" y="21" width="1" height="1" fill="#000000" />
<rect x="43" y="21" width="1" height="1" fill="#AAB9C0" />
<rect x="20" y="22" width="1" height="1" fill="#000000" />
<rect x="21" y="22" width="1" height="1" fill="#9BA7AD" />
<rect x="22" y="22" width="1" height="19" fill="#AAB9C0" />
<rect x="25" y="22" width="1" height="21" fill="#AAB9C0" />
<rect x="26" y="22" width="1" height="3" fill="#738189" />
<rect x="27" y="22" width="2" height="1" fill="#AAB9C0" />
<rect x="29" y="22" width="2" height="3" fill="#738189" />
<rect x="31" y="22" width="2" height="1" fill="#AAB9C0" />
<rect x="33" y="22" width="5" height="1" fill="#738189" />
<rect x="38" y="22" width="1" height="21" fill="#AAB9C0" />
<rect x="41" y="22" width="1" height="19" fill="#AAB9C0" />
<rect x="42" y="22" width="1" height="1" fill="#9BA7AD" />
<rect x="43" y="22" width="1" height="1" fill="#000000" />
<rect x="19" y="23" width="1" height="1" fill="#000000" />
<rect x="20" y="23" width="2" height="17" fill="#AAB9C0" />
<rect x="27" y="23" width="2" height="2" fill="#738189" />
<rect x="31" y="23" width="1" height="2" fill="#738189" />
<rect x="32" y="23" width="1" height="1" fill="#AAB9C0" />
<rect x="33" y="23" width="3" height="1" fill="#738189" />
<rect x="36" y="23" width="2" height="1" fill="#AAB9C0" />
<rect x="42" y="23" width="2" height="17" fill="#AAB9C0" />
<rect x="44" y="23" width="1" height="1" fill="#000000" />
<rect x="18" y="24" width="1" height="2" fill="#000000" />
<rect x="19" y="24" width="1" height="15" fill="#AAB9C0" />
<rect x="32" y="24" width="2" height="1" fill="#738189" />
<rect x="34" y="24" width="1" height="14" fill="#AAB9C0" />
<rect x="35" y="24" width="2" height="1" fill="#738189" />
<rect x="37" y="24" width="1" height="19" fill="#AAB9C0" />
<rect x="44" y="24" width="1" height="15" fill="#AAB9C0" />
<rect x="45" y="24" width="1" height="2" fill="#000000" />
<rect x="26" y="25" width="8" height="10" fill="#AAB9C0" />
<rect x="35" y="25" width="2" height="18" fill="#AAB9C0" />
<rect x="17" y="26" width="1" height="2" fill="#000000" />
<rect x="18" y="26" width="1" height="11" fill="#AAB9C0" />
<rect x="45" y="26" width="1" height="11" fill="#AAB9C0" />
<rect x="46" y="26" width="1" height="2" fill="#000000" />
<rect x="4" y="28" width="12" height="6" fill="#AAB9C0" />
<rect x="16" y="28" width="1" height="7" fill="#000000" />
<rect x="17" y="28" width="1" height="7" fill="#AAB9C0" />
<rect x="46" y="28" width="1" height="7" fill="#AAB9C0" />
<rect x="47" y="28" width="1" height="7" fill="#000000" />
<rect x="48" y="28" width="10" height="9" fill="#AAB9C0" />
<rect x="4" y="34" width="2" height="1" fill="#AAB9C0" />
<rect x="6" y="34" width="2" height="1" fill="#000000" />
<rect x="8" y="34" width="8" height="1" fill="#AAB9C0" />
<rect x="4" y="35" width="1" height="13" fill="#AAB9C0" />
<rect x="5" y="35" width="1" height="2" fill="#000000" />
<rect x="6" y="35" width="2" height="2" fill="#98AAB2" />
<rect x="8" y="35" width="1" height="2" fill="#000000" />
<rect x="9" y="35" width="7" height="4" fill="#AAB9C0" />
<rect x="16" y="35" width="1" height="2" fill="#8D999F" />
<rect x="17" y="35" width="1" height="2" fill="#000000" />
<rect x="26" y="35" width="4" height="1" fill="#AAB9C0" />
<rect x="30" y="35" width="3" height="4" fill="#AC3232" />
<rect x="33" y="35" width="1" height="1" fill="#AAB9C0" />
<rect x="46" y="35" width="1" height="2" fill="#000000" />
<rect x="47" y="35" width="1" height="2" fill="#8D999F" />
<rect x="26" y="36" width="3" height="2" fill="#AAB9C0" />
<rect x="29" y="36" width="1" height="3" fill="#AC3232" />
<rect x="33" y="36" width="1" height="1" fill="#AC3232" />
<rect x="5" y="37" width="1" height="11" fill="#AAB9C0" />
<rect x="6" y="37" width="2" height="1" fill="#000000" />
<rect x="8" y="37" width="1" height="4" fill="#AAB9C0" />
<rect x="16" y="37" width="1" height="11" fill="#AAB9C0" />
<rect x="17" y="37" width="1" height="2" fill="#8D999F" />
<rect x="18" y="37" width="1" height="2" fill="#000000" />
<rect x="33" y="37" width="1" height="1" fill="#AAB9C0" />
<rect x="45" y="37" width="1" height="2" fill="#000000" />
<rect x="46" y="37" width="1" height="1" fill="#8D999F" />
<rect x="47" y="37" width="2" height="1" fill="#7F8C94" />
<rect x="49" y="37" width="9" height="1" fill="#AAB9C0" />
<rect x="6" y="38" width="2" height="10" fill="#AAB9C0" />
<rect x="26" y="38" width="1" height="5" fill="#AAB9C0" />
<rect x="27" y="38" width="2" height="2" fill="#FBF236" />
<rect x="33" y="38" width="2" height="3" fill="#5B6EE1" />
<rect x="46" y="38" width="1" height="11" fill="#B5C8D0" />
<rect x="47" y="38" width="1" height="10" fill="#AAB9C0" />
<rect x="48" y="38" width="2" height="1" fill="#7F8C94" />
<rect x="50" y="38" width="8" height="1" fill="#AAB9C0" />
<rect x="9" y="39" width="1" height="1" fill="#AAB9C0" />
<rect x="10" y="39" width="3" height="1" fill="#000000" />
<rect x="13" y="39" width="3" height="1" fill="#AAB9C0" />
<rect x="17" y="39" width="1" height="10" fill="#B5C8D0" />
<rect x="18" y="39" width="1" height="1" fill="#8D999F" />
<rect x="19" y="39" width="1" height="1" fill="#000000" />
<rect x="29" y="39" width="1" height="2" fill="#FBF236" />
<rect x="30" y="39" width="2" height="2" fill="#AC3232" />
<rect x="32" y="39" width="1" height="2" fill="#5B6EE1" />
<rect x="44" y="39" width="1" height="1" fill="#000000" />
<rect x="45" y="39" width="1" height="1" fill="#8D999F" />
<rect x="48" y="39" width="1" height="2" fill="#AAB9C0" />
<rect x="49" y="39" width="1" height="1" fill="#7F8C94" />
<rect x="50" y="39" width="3" height="1" fill="#000000" />
<rect x="53" y="39" width="5" height="1" fill="#AAB9C0" />
<rect x="9" y="40" width="1" height="1" fill="#000000" />
<rect x="10" y="40" width="3" height="1" fill="#98AAB2" />
<rect x="13" y="40" width="1" height="1" fill="#000000" />
<rect x="14" y="40" width="2" height="1" fill="#AAB9C0" />
<rect x="18" y="40" width="1" height="7" fill="#7F8C94" />
<rect x="19" y="40" width="1" height="1" fill="#8D999F" />
<rect x="20" y="40" width="1" height="1" fill="#000000" />
<rect x="21" y="40" width="1" height="1" fill="#B5C8D0" />
<rect x="27" y="40" width="1" height="3" fill="#AAB9C0" />
<rect x="28" y="40" width="1" height="1" fill="#FBF236" />
<rect x="42" y="40" width="1" height="1" fill="#B5C8D0" />
<rect x="43" y="40" width="1" height="1" fill="#000000" />
<rect x="44" y="40" width="1" height="1" fill="#8D999F" />
<rect x="45" y="40" width="1" height="7" fill="#7F8C94" />
<rect x="49" y="40" width="1" height="1" fill="#000000" />
<rect x="50" y="40" width="3" height="1" fill="#98AAB2" />
<rect x="53" y="40" width="1" height="1" fill="#000000" />
<rect x="54" y="40" width="4" height="1" fill="#AAB9C0" />
<rect x="8" y="41" width="1" height="3" fill="#000000" />
<rect x="9" y="41" width="1" height="3" fill="#98AAB2" />
<rect x="10" y="41" width="1" height="3" fill="#71C2D3" />
<rect x="11" y="41" width="1" height="1" fill="#98AAB2" />
<rect x="12" y="41" width="1" height="3" fill="#71C2D3" />
<rect x="13" y="41" width="1" height="1" fill="#98AAB2" />
<rect x="14" y="41" width="1" height="3" fill="#000000" />
<rect x="15" y="41" width="1" height="7" fill="#AAB9C0" />
<rect x="19" y="41" width="1" height="6" fill="#738189" />
<rect x="20" y="41" width="1" height="1" fill="#8D999F" />
<rect x="21" y="41" width="1" height="1" fill="#000000" />
<rect x="22" y="41" width="1" height="1" fill="#B5C8D0" />
<rect x="28" y="41" width="7" height="3" fill="#AAB9C0" />
<rect x="41" y="41" width="1" height="1" fill="#B5C8D0" />
<rect x="42" y="41" width="1" height="1" fill="#000000" />
<rect x="43" y="41" width="1" height="1" fill="#8D999F" />
<rect x="44" y="41" width="1" height="6" fill="#738189" />
<rect x="48" y="41" width="1" height="3" fill="#000000" />
<rect x="49" y="41" width="2" height="2" fill="#98AAB2" />
<rect x="51" y="41" width="1" height="1" fill="#71C2D3" />
<rect x="52" y="41" width="2" height="2" fill="#98AAB2" />
<rect x="54" y="41" width="1" height="3" fill="#000000" />
<rect x="55" y="41" width="3" height="7" fill="#AAB9C0" />
<rect x="11" y="42" width="1" height="1" fill="#71C2D3" />
<rect x="13" y="42" width="1" height="1" fill="#71C2D3" />
<rect x="20" y="42" width="1" height="5" fill="#AAB9C0" />
<rect x="21" y="42" width="1" height="1" fill="#8D999F" />
<rect x="22" y="42" width="1" height="1" fill="#000000" />
<rect x="23" y="42" width="2" height="1" fill="#B5C8D0" />
<rect x="39" y="42" width="2" height="1" fill="#B5C8D0" />
<rect x="41" y="42" width="1" height="1" fill="#000000" />
<rect x="42" y="42" width="1" height="1" fill="#8D999F" />
<rect x="43" y="42" width="1" height="5" fill="#AAB9C0" />
<rect x="51" y="42" width="1" height="1" fill="#98AAB2" />
<rect x="11" y="43" width="1" height="2" fill="#98AAB2" />
<rect x="13" y="43" width="1" height="1" fill="#98AAB2" />
<rect x="21" y="43" width="1" height="4" fill="#AAB9C0" />
<rect x="22" y="43" width="1" height="1" fill="#8D999F" />
<rect x="23" y="43" width="2" height="1" fill="#000000" />
<rect x="25" y="43" width="3" height="1" fill="#B5C8D0" />
<rect x="35" y="43" width="1" height="1" fill="#AAB9C0" />
<rect x="36" y="43" width="3" height="1" fill="#B5C8D0" />
<rect x="39" y="43" width="2" height="1" fill="#000000" />
<rect x="41" y="43" width="1" height="1" fill="#8D999F" />
<rect x="42" y="43" width="1" height="4" fill="#AAB9C0" />
<rect x="49" y="43" width="1" height="1" fill="#98AAB2" />
<rect x="50" y="43" width="3" height="1" fill="#71C2D3" />
<rect x="53" y="43" width="1" height="1" fill="#98AAB2" />
<rect x="8" y="44" width="1" height="4" fill="#AAB9C0" />
<rect x="9" y="44" width="1" height="1" fill="#000000" />
<rect x="10" y="44" width="1" height="1" fill="#98AAB2" />
<rect x="12" y="44" width="1" height="1" fill="#98AAB2" />
<rect x="13" y="44" width="1" height="1" fill="#000000" />
<rect x="14" y="44" width="1" height="4" fill="#AAB9C0" />
<rect x="22" y="44" width="1" height="3" fill="#AAB9C0" />
<rect x="23" y="44" width="2" height="1" fill="#8D999F" />
<rect x="25" y="44" width="3" height="1" fill="#000000" />
<rect x="28" y="44" width="8" height="1" fill="#B5C8D0" />
<rect x="36" y="44" width="3" height="1" fill="#000000" />
<rect x="39" y="44" width="2" height="1" fill="#8D999F" />
<rect x="41" y="44" width="1" height="3" fill="#AAB9C0" />
<rect x="48" y="44" width="1" height="4" fill="#AAB9C0" />
<rect x="49" y="44" width="1" height="1" fill="#000000" />
<rect x="50" y="44" width="3" height="1" fill="#98AAB2" />
<rect x="53" y="44" width="1" height="1" fill="#000000" />
<rect x="54" y="44" width="1" height="4" fill="#AAB9C0" />
<rect x="9" y="45" width="1" height="3" fill="#AAB9C0" />
<rect x="10" y="45" width="3" height="1" fill="#000000" />
<rect x="13" y="45" width="1" height="3" fill="#AAB9C0" />
<rect x="23" y="45" width="2" height="2" fill="#AAB9C0" />
<rect x="25" y="45" width="3" height="1" fill="#8D999F" />
<rect x="28" y="45" width="8" height="1" fill="#000000" />
<rect x="36" y="45" width="3" height="1" fill="#8D999F" />
<rect x="39" y="45" width="2" height="2" fill="#AAB9C0" />
<rect x="49" y="45" width="1" height="3" fill="#AAB9C0" />
<rect x="50" y="45" width="3" height="1" fill="#000000" />
<rect x="53" y="45" width="1" height="3" fill="#AAB9C0" />
<rect x="10" y="46" width="3" height="2" fill="#AAB9C0" />
<rect x="25" y="46" width="3" height="1" fill="#AAB9C0" />
<rect x="28" y="46" width="8" height="1" fill="#8D999F" />
<rect x="36" y="46" width="3" height="1" fill="#AAB9C0" />
<rect x="50" y="46" width="3" height="2" fill="#AAB9C0" />
<rect x="18" y="47" width="1" height="1" fill="#99A7AF" />
<rect x="19" y="47" width="1" height="1" fill="#88979F" />
<rect x="20" y="47" width="24" height="1" fill="#B5C8D0" />
<rect x="44" y="47" width="1" height="1" fill="#88979F" />
<rect x="45" y="47" width="1" height="1" fill="#99A7AF" />
<rect x="4" y="48" width="13" height="1" fill="#B5C8D0" />
<rect x="18" y="48" width="1" height="5" fill="#70797E" />
<rect x="19" y="48" width="1" height="5" fill="#556065" />
<rect x="20" y="48" width="24" height="1" fill="#8A979C" />
<rect x="44" y="48" width="1" height="5" fill="#556065" />
<rect x="45" y="48" width="1" height="5" fill="#70797E" />
<rect x="47" y="48" width="11" height="1" fill="#B5C8D0" />
<rect x="4" y="49" width="14" height="5" fill="#8A979C" />
<rect x="20" y="49" width="2" height="1" fill="#8A979C" />
<rect x="22" y="49" width="7" height="1" fill="#6C797E" />
<rect x="29" y="49" width="6" height="1" fill="#8A979C" />
<rect x="35" y="49" width="7" height="1" fill="#6C797E" />
<rect x="42" y="49" width="2" height="1" fill="#8A979C" />
<rect x="46" y="49" width="12" height="5" fill="#8A979C" />
<rect x="20" y="50" width="1" height="3" fill="#8A979C" />
<rect x="21" y="50" width="1" height="2" fill="#6C797E" />
<rect x="22" y="50" width="7" height="2" fill="#262C2F" />
<rect x="29" y="50" width="1" height="2" fill="#6C797E" />
<rect x="30" y="50" width="4" height="3" fill="#8A979C" />
<rect x="34" y="50" width="1" height="2" fill="#6C797E" />
<rect x="35" y="50" width="7" height="2" fill="#262C2F" />
<rect x="42" y="50" width="1" height="2" fill="#6C797E" />
<rect x="43" y="50" width="1" height="3" fill="#8A979C" />
<rect x="21" y="52" width="1" height="1" fill="#8A979C" />
<rect x="22" y="52" width="7" height="1" fill="#6C797E" />
<rect x="29" y="52" width="1" height="1" fill="#8A979C" />
<rect x="34" y="52" width="1" height="1" fill="#8A979C" />
<rect x="35" y="52" width="7" height="1" fill="#6C797E" />
<rect x="42" y="52" width="1" height="1" fill="#8A979C" />
<rect x="18" y="53" width="28" height="1" fill="#000000" />
<rect x="4" y="54" width="14" height="1" fill="#000000" />
<rect x="45" y="54" width="13" height="1" fill="#000000" />
</svg>