<?xml version="1.0" encoding="UTF-8" ?>
<svg version="1.1" width="64" height="64" xmlns="http://www.w3.org/2000/svg" shape-rendering="crispEdges">
<rect x="5" y="19" width="53" height="1" fill="#000000" />
<rect x="5" y="20" width="1" height="29" fill="#000000" />
<rect x="6" y="20" width="51" height="1" fill="#201F2C" />
<rect x="57" y="20" width="1" height="25" fill="#000000" />
<rect x="6" y="21" width="1" height="17" fill="#201F2C" />
<rect x="7" y="21" width="49" height="1" fill="#181721" />
<rect x="56" y="21" width="1" height="17" fill="#201F2C" />
<rect x="7" y="22" width="23" height="1" fill="#181721" />
<rect x="30" y="22" width="5" height="1" fill="#2F58A2" />
<rect x="35" y="22" width="3" height="3" fill="#181721" />
<rect x="38" y="22" width="1" height="4" fill="#2F58A2" />
<rect x="39" y="22" width="17" height="16" fill="#181721" />
<rect x="7" y="23" width="18" height="15" fill="#181721" />
<rect x="25" y="23" width="2" height="13" fill="#0E0E13" />
<rect x="27" y="23" width="7" height="2" fill="#181721" />
<rect x="34" y="23" width="1" height="3" fill="#2F58A2" />
<rect x="27" y="25" width="3" height="13" fill="#181721" />
<rect x="30" y="25" width="1" height="3" fill="#2F58A2" />
<rect x="31" y="25" width="3" height="2" fill="#181721" />
<rect x="35" y="25" width="3" height="1" fill="#2F58A2" />
<rect x="34" y="26" width="5" height="1" fill="#181721" />
<rect x="31" y="27" width="8" height="1" fill="#2F58A2" />
<rect x="30" y="28" width="8" height="4" fill="#181721" />
<rect x="38" y="28" width="1" height="3" fill="#2F58A2" />
<rect x="38" y="31" width="1" height="1" fill="#181721" />
<rect x="30" y="32" width="5" height="1" fill="#2F58A2" />
<rect x="35" y="32" width="3" height="4" fill="#181721" />
<rect x="38" y="32" width="1" height="5" fill="#2F58A2" />
<rect x="30" y="33" width="1" height="4" fill="#2F58A2" />
<rect x="31" y="33" width="3" height="5" fill="#181721" />
<rect x="34" y="33" width="1" height="4" fill="#2F58A2" />
<rect x="25" y="36" width="2" height="2" fill="#181721" />
<rect x="35" y="36" width="3" height="1" fill="#2F58A2" />
<rect x="30" y="37" width="1" height="1" fill="#181721" />
<rect x="34" y="37" width="5" height="1" fill="#181721" />
<rect x="6" y="38" width="51" height="1" fill="#282637" />
<rect x="6" y="39" width="1" height="1" fill="#121119" />
<rect x="7" y="39" width="24" height="1" fill="#16151E" />
<rect x="31" y="39" width="1" height="1" fill="#101016" />
<rect x="32" y="39" width="21" height="1" fill="#16151E" />
<rect x="53" y="39" width="2" height="1" fill="#39286B" />
<rect x="55" y="39" width="1" height="1" fill="#16151E" />
<rect x="56" y="39" width="1" height="1" fill="#121119" />
<rect x="6" y="40" width="1" height="1" fill="#101016" />
<rect x="7" y="40" width="1" height="1" fill="#181721" />
<rect x="8" y="40" width="8" height="1" fill="#100F13" />
<rect x="16" y="40" width="3" height="1" fill="#181721" />
<rect x="19" y="40" width="8" height="1" fill="#100F13" />
<rect x="27" y="40" width="4" height="1" fill="#181721" />
<rect x="31" y="40" width="1" height="1" fill="#100F13" />
<rect x="32" y="40" width="11" height="1" fill="#181721" />
<rect x="43" y="40" width="2" height="1" fill="#7E2626" />
<rect x="45" y="40" width="8" height="1" fill="#181721" />
<rect x="53" y="40" width="2" height="1" fill="#100F13" />
<rect x="55" y="40" width="1" height="1" fill="#181721" />
<rect x="56" y="40" width="1" height="1" fill="#101016" />
<rect x="6" y="41" width="1" height="1" fill="#121119" />
<rect x="7" y="41" width="24" height="1" fill="#16151E" />
<rect x="31" y="41" width="1" height="1" fill="#101016" />
<rect x="32" y="41" width="10" height="1" fill="#16151E" />
<rect x="42" y="41" width="1" height="2" fill="#C0B92F" />
<rect x="43" y="41" width="1" height="1" fill="#7E2626" />
<rect x="44" y="41" width="1" height="2" fill="#4168AD" />
<rect x="45" y="41" width="11" height="1" fill="#16151E" />
<rect x="56" y="41" width="1" height="1" fill="#121119" />
<rect x="6" y="42" width="1" height="1" fill="#101016" />
<rect x="7" y="42" width="1" height="1" fill="#181721" />
<rect x="8" y="42" width="8" height="1" fill="#100F13" />
<rect x="16" y="42" width="3" height="1" fill="#181721" />
<rect x="19" y="42" width="8" height="1" fill="#100F13" />
<rect x="27" y="42" width="4" height="1" fill="#181721" />
<rect x="31" y="42" width="1" height="1" fill="#100F13" />
<rect x="32" y="42" width="10" height="1" fill="#181721" />
<rect x="43" y="42" width="1" height="1" fill="#C0B92F" />
<rect x="45" y="42" width="8" height="1" fill="#181721" />
<rect x="53" y="42" width="2" height="1" fill="#39286B" />
<rect x="55" y="42" width="1" height="1" fill="#181721" />
<rect x="56" y="42" width="1" height="1" fill="#101016" />
<rect x="6" y="43" width="1" height="1" fill="#121119" />
<rect x="7" y="43" width="2" height="1" fill="#16151E" />
<rect x="9" y="43" width="6" height="1" fill="#100F13" />
<rect x="15" y="43" width="5" height="1" fill="#16151E" />
<rect x="20" y="43" width="6" height="1" fill="#100F13" />
<rect x="26" y="43" width="5" height="1" fill="#16151E" />
<rect x="31" y="43" width="1" height="1" fill="#101016" />
<rect x="32" y="43" width="21" height="1" fill="#16151E" />
<rect x="53" y="43" width="2" height="1" fill="#100F13" />
<rect x="55" y="43" width="1" height="1" fill="#16151E" />
<rect x="56" y="43" width="1" height="1" fill="#121119" />
<rect x="6" y="44" width="46" height="1" fill="#110F16" />
<rect x="52" y="44" width="5" height="1" fill="#000000" />
<rect x="6" y="45" width="1" height="3" fill="#181721" />
<rect x="7" y="45" width="1" height="3" fill="#2F58A2" />
<rect x="8" y="45" width="2" height="1" fill="#100F13" />
<rect x="10" y="45" width="3" height="1" fill="#2F58A2" />
<rect x="13" y="45" width="39" height="1" fill="#181721" />
<rect x="52" y="45" width="1" height="4" fill="#000000" />
<rect x="8" y="46" width="3" height="1" fill="#2F58A2" />
<rect x="11" y="46" width="1" height="1" fill="#100F13" />
<rect x="12" y="46" width="1" height="2" fill="#2F58A2" />
<rect x="13" y="46" width="3" height="2" fill="#181721" />
<rect x="16" y="46" width="34" height="1" fill="#16151E" />
<rect x="50" y="46" width="2" height="2" fill="#181721" />
<rect x="8" y="47" width="2" height="1" fill="#100F13" />
<rect x="10" y="47" width="2" height="1" fill="#2F58A2" />
<rect x="16" y="47" width="34" height="1" fill="#181721" />
<rect x="6" y="48" width="46" height="1" fill="#000000" />
</svg>