<?xml version="1.0" encoding="UTF-8" ?>
<svg version="1.1" width="64" height="64" xmlns="http://www.w3.org/2000/svg" shape-rendering="crispEdges">
<rect x="13" y="8" width="39" height="1" fill="#000000" />
<rect x="12" y="9" width="1" height="46" fill="#000000" />
<rect x="13" y="9" width="31" height="1" fill="#2C2A2A" />
<rect x="44" y="9" width="1" height="46" fill="#565E63" />
<rect x="45" y="9" width="2" height="9" fill="#484E52" />
<rect x="47" y="9" width="1" height="1" fill="#292525" />
<rect x="48" y="9" width="2" height="4" fill="#1B1919" />
<rect x="50" y="9" width="1" height="1" fill="#292525" />
<rect x="51" y="9" width="1" height="46" fill="#000000" />
<rect x="13" y="10" width="2" height="1" fill="#2C2A2A" />
<rect x="15" y="10" width="27" height="17" fill="#161515" />
<rect x="42" y="10" width="2" height="1" fill="#2C2A2A" />
<rect x="47" y="10" width="1" height="2" fill="#1B1919" />
<rect x="50" y="10" width="1" height="2" fill="#1B1919" />
<rect x="13" y="11" width="1" height="44" fill="#2C2A2A" />
<rect x="14" y="11" width="1" height="43" fill="#161515" />
<rect x="42" y="11" width="1" height="44" fill="#161515" />
<rect x="43" y="11" width="1" height="45" fill="#2C2A2A" />
<rect x="47" y="12" width="1" height="7" fill="#292525" />
<rect x="50" y="12" width="1" height="7" fill="#292525" />
<rect x="48" y="13" width="2" height="5" fill="#292525" />
<rect x="45" y="18" width="1" height="2" fill="#DF7126" />
<rect x="46" y="18" width="1" height="1" fill="#FBF236" />
<rect x="48" y="18" width="2" height="4" fill="#1B1919" />
<rect x="46" y="19" width="1" height="1" fill="#DF7126" />
<rect x="47" y="19" width="1" height="2" fill="#1B1919" />
<rect x="50" y="19" width="1" height="2" fill="#1B1919" />
<rect x="45" y="20" width="1" height="11" fill="#484E52" />
<rect x="46" y="20" width="1" height="1" fill="#639BFF" />
<rect x="46" y="21" width="1" height="10" fill="#484E52" />
<rect x="47" y="21" width="1" height="10" fill="#292525" />
<rect x="50" y="21" width="1" height="10" fill="#292525" />
<rect x="48" y="22" width="2" height="9" fill="#292525" />
<rect x="15" y="27" width="3" height="27" fill="#161515" />
<rect x="18" y="27" width="8" height="1" fill="#9BADB7" />
<rect x="26" y="27" width="2" height="1" fill="#161515" />
<rect x="28" y="27" width="3" height="2" fill="#9BADB7" />
<rect x="31" y="27" width="2" height="1" fill="#161515" />
<rect x="33" y="27" width="4" height="2" fill="#9BADB7" />
<rect x="37" y="27" width="3" height="1" fill="#161515" />
<rect x="40" y="27" width="1" height="1" fill="#9BADB7" />
<rect x="41" y="27" width="1" height="28" fill="#161515" />
<rect x="18" y="28" width="1" height="1" fill="#9BADB7" />
<rect x="19" y="28" width="2" height="27" fill="#161515" />
<rect x="21" y="28" width="2" height="1" fill="#9BADB7" />
<rect x="23" y="28" width="1" height="27" fill="#161515" />
<rect x="24" y="28" width="4" height="1" fill="#9BADB7" />
<rect x="31" y="28" width="2" height="1" fill="#9BADB7" />
<rect x="37" y="28" width="2" height="1" fill="#9BADB7" />
<rect x="39" y="28" width="2" height="1" fill="#161515" />
<rect x="18" y="29" width="1" height="26" fill="#161515" />
<rect x="21" y="29" width="2" height="26" fill="#161515" />
<rect x="24" y="29" width="16" height="26" fill="#161515" />
<rect x="40" y="29" width="1" height="1" fill="#9BADB7" />
<rect x="40" y="30" width="1" height="25" fill="#161515" />
<rect x="45" y="31" width="6" height="1" fill="#1B1919" />
<rect x="45" y="32" width="2" height="23" fill="#161515" />
<rect x="47" y="32" width="4" height="23" fill="#1E1C1C" />
<rect x="14" y="54" width="4" height="1" fill="#211F1F" />
<rect x="13" y="55" width="5" height="1" fill="#000000" />
<rect x="18" y="55" width="8" height="1" fill="#211F1F" />
<rect x="26" y="55" width="12" height="1" fill="#161515" />
<rect x="38" y="55" width="5" height="1" fill="#211F1F" />
<rect x="44" y="55" width="7" height="1" fill="#000000" />
<rect x="18" y="56" width="8" height="1" fill="#000000" />
<rect x="26" y="56" width="12" height="1" fill="#211F1F" />
<rect x="38" y="56" width="6" height="1" fill="#000000" />
<rect x="26" y="57" width="12" height="1" fill="#000000" />
</svg>