<?xml version="1.0" encoding="UTF-8" ?>
<svg version="1.1" width="64" height="64" xmlns="http://www.w3.org/2000/svg" shape-rendering="crispEdges">
<rect x="14" y="18" width="41" height="1" fill="#000000" />
<rect x="13" y="19" width="1" height="2" fill="#000000" />
<rect x="14" y="19" width="15" height="1" fill="#211F1F" />
<rect x="29" y="19" width="1" height="2" fill="#1E1C1C" />
<rect x="30" y="19" width="23" height="1" fill="#211F1F" />
<rect x="53" y="19" width="1" height="2" fill="#131212" />
<rect x="54" y="19" width="1" height="12" fill="#000000" />
<rect x="14" y="20" width="1" height="1" fill="#211F1F" />
<rect x="15" y="20" width="9" height="1" fill="#0E0D0D" />
<rect x="24" y="20" width="2" height="2" fill="#292828" />
<rect x="26" y="20" width="3" height="1" fill="#0E0D0D" />
<rect x="30" y="20" width="23" height="1" fill="#191717" />
<rect x="12" y="21" width="1" height="2" fill="#000000" />
<rect x="13" y="21" width="1" height="2" fill="#211F1F" />
<rect x="14" y="21" width="9" height="12" fill="#0E0D0D" />
<rect x="23" y="21" width="1" height="1" fill="#292828" />
<rect x="26" y="21" width="1" height="2" fill="#292828" />
<rect x="27" y="21" width="1" height="2" fill="#0E0D0D" />
<rect x="28" y="21" width="1" height="2" fill="#1E1C1C" />
<rect x="29" y="21" width="23" height="2" fill="#191717" />
<rect x="52" y="21" width="1" height="2" fill="#131212" />
<rect x="53" y="21" width="1" height="2" fill="#000000" />
<rect x="23" y="22" width="2" height="7" fill="#0E0D0D" />
<rect x="25" y="22" width="1" height="1" fill="#292828" />
<rect x="11" y="23" width="1" height="2" fill="#000000" />
<rect x="12" y="23" width="1" height="2" fill="#211F1F" />
<rect x="13" y="23" width="1" height="14" fill="#0E0D0D" />
<rect x="25" y="23" width="2" height="2" fill="#0E0D0D" />
<rect x="27" y="23" width="1" height="2" fill="#1E1C1C" />
<rect x="28" y="23" width="23" height="2" fill="#191717" />
<rect x="51" y="23" width="1" height="2" fill="#131212" />
<rect x="52" y="23" width="1" height="2" fill="#000000" />
<rect x="53" y="23" width="1" height="4" fill="#131212" />
<rect x="10" y="25" width="1" height="2" fill="#000000" />
<rect x="11" y="25" width="1" height="2" fill="#211F1F" />
<rect x="12" y="25" width="1" height="12" fill="#0E0D0D" />
<rect x="25" y="25" width="1" height="2" fill="#0E0D0D" />
<rect x="26" y="25" width="1" height="2" fill="#1E1C1C" />
<rect x="27" y="25" width="23" height="2" fill="#191717" />
<rect x="50" y="25" width="1" height="2" fill="#131212" />
<rect x="51" y="25" width="1" height="2" fill="#000000" />
<rect x="52" y="25" width="1" height="4" fill="#161414" />
<rect x="9" y="27" width="1" height="2" fill="#000000" />
<rect x="10" y="27" width="1" height="2" fill="#211F1F" />
<rect x="11" y="27" width="1" height="10" fill="#0E0D0D" />
<rect x="25" y="27" width="1" height="2" fill="#1E1C1C" />
<rect x="26" y="27" width="23" height="2" fill="#191717" />
<rect x="49" y="27" width="1" height="2" fill="#131212" />
<rect x="50" y="27" width="1" height="2" fill="#000000" />
<rect x="51" y="27" width="1" height="4" fill="#161414" />
<rect x="53" y="27" width="1" height="2" fill="#000000" />
<rect x="8" y="29" width="1" height="2" fill="#000000" />
<rect x="9" y="29" width="1" height="2" fill="#211F1F" />
<rect x="10" y="29" width="1" height="8" fill="#0E0D0D" />
<rect x="23" y="29" width="1" height="2" fill="#0E0D0D" />
<rect x="24" y="29" width="1" height="2" fill="#1E1C1C" />
<rect x="25" y="29" width="23" height="2" fill="#191717" />
<rect x="48" y="29" width="1" height="2" fill="#131212" />
<rect x="49" y="29" width="1" height="2" fill="#000000" />
<rect x="50" y="29" width="1" height="4" fill="#161414" />
<rect x="52" y="29" width="1" height="2" fill="#000000" />
<rect x="53" y="29" width="1" height="2" fill="#131212" />
<rect x="7" y="31" width="1" height="2" fill="#000000" />
<rect x="8" y="31" width="1" height="2" fill="#211F1F" />
<rect x="9" y="31" width="1" height="6" fill="#0E0D0D" />
<rect x="23" y="31" width="1" height="2" fill="#1E1C1C" />
<rect x="24" y="31" width="23" height="2" fill="#191717" />
<rect x="47" y="31" width="1" height="2" fill="#131212" />
<rect x="48" y="31" width="1" height="2" fill="#000000" />
<rect x="49" y="31" width="1" height="4" fill="#161414" />
<rect x="51" y="31" width="1" height="2" fill="#000000" />
<rect x="52" y="31" width="1" height="2" fill="#191717" />
<rect x="53" y="31" width="1" height="2" fill="#000000" />
<rect x="6" y="33" width="1" height="2" fill="#000000" />
<rect x="7" y="33" width="1" height="2" fill="#211F1F" />
<rect x="8" y="33" width="1" height="4" fill="#0E0D0D" />
<rect x="14" y="33" width="8" height="2" fill="#0E0D0D" />
<rect x="22" y="33" width="1" height="2" fill="#1E1C1C" />
<rect x="23" y="33" width="23" height="2" fill="#191717" />
<rect x="46" y="33" width="1" height="2" fill="#131212" />
<rect x="47" y="33" width="1" height="2" fill="#000000" />
<rect x="48" y="33" width="1" height="4" fill="#161414" />
<rect x="50" y="33" width="1" height="2" fill="#000000" />
<rect x="51" y="33" width="1" height="2" fill="#191717" />
<rect x="52" y="33" width="1" height="2" fill="#000000" />
<rect x="5" y="35" width="1" height="3" fill="#000000" />
<rect x="6" y="35" width="1" height="2" fill="#211F1F" />
<rect x="7" y="35" width="1" height="2" fill="#0E0D0D" />
<rect x="14" y="35" width="7" height="2" fill="#0E0D0D" />
<rect x="21" y="35" width="1" height="2" fill="#1E1C1C" />
<rect x="22" y="35" width="23" height="2" fill="#191717" />
<rect x="45" y="35" width="1" height="2" fill="#131212" />
<rect x="46" y="35" width="1" height="2" fill="#000000" />
<rect x="47" y="35" width="1" height="4" fill="#161414" />
<rect x="49" y="35" width="1" height="2" fill="#000000" />
<rect x="50" y="35" width="1" height="2" fill="#191717" />
<rect x="51" y="35" width="1" height="2" fill="#000000" />
<rect x="4" y="37" width="1" height="5" fill="#000000" />
<rect x="6" y="37" width="14" height="1" fill="#262424" />
<rect x="20" y="37" width="1" height="4" fill="#1E1C1C" />
<rect x="21" y="37" width="24" height="1" fill="#211F1F" />
<rect x="45" y="37" width="1" height="5" fill="#000000" />
<rect x="46" y="37" width="1" height="4" fill="#161414" />
<rect x="48" y="37" width="1" height="2" fill="#000000" />
<rect x="49" y="37" width="1" height="2" fill="#191717" />
<rect x="50" y="37" width="1" height="2" fill="#000000" />
<rect x="5" y="38" width="1" height="3" fill="#1B1A1A" />
<rect x="6" y="38" width="14" height="1" fill="#0E0D0D" />
<rect x="21" y="38" width="14" height="3" fill="#191717" />
<rect x="35" y="38" width="2" height="2" fill="#100F0F" />
<rect x="37" y="38" width="1" height="2" fill="#191717" />
<rect x="38" y="38" width="3" height="1" fill="#100F0F" />
<rect x="41" y="38" width="1" height="1" fill="#191717" />
<rect x="42" y="38" width="1" height="3" fill="#100F0F" />
<rect x="43" y="38" width="2" height="3" fill="#191717" />
<rect x="6" y="39" width="4" height="1" fill="#211F1F" />
<rect x="10" y="39" width="10" height="2" fill="#0E0D0D" />
<rect x="38" y="39" width="1" height="2" fill="#100F0F" />
<rect x="39" y="39" width="1" height="2" fill="#191717" />
<rect x="40" y="39" width="2" height="1" fill="#100F0F" />
<rect x="47" y="39" width="1" height="2" fill="#000000" />
<rect x="48" y="39" width="1" height="2" fill="#191717" />
<rect x="49" y="39" width="1" height="2" fill="#000000" />
<rect x="6" y="40" width="4" height="1" fill="#0E0D0D" />
<rect x="35" y="40" width="1" height="1" fill="#100F0F" />
<rect x="36" y="40" width="1" height="1" fill="#191717" />
<rect x="37" y="40" width="1" height="1" fill="#100F0F" />
<rect x="40" y="40" width="2" height="1" fill="#191717" />
<rect x="5" y="41" width="15" height="1" fill="#080808" />
<rect x="20" y="41" width="1" height="3" fill="#161414" />
<rect x="21" y="41" width="24" height="1" fill="#161515" />
<rect x="46" y="41" width="1" height="2" fill="#000000" />
<rect x="47" y="41" width="1" height="2" fill="#191717" />
<rect x="48" y="41" width="1" height="2" fill="#000000" />
<rect x="5" y="42" width="1" height="1" fill="#000000" />
<rect x="6" y="42" width="14" height="1" fill="#0E0D0D" />
<rect x="21" y="42" width="23" height="1" fill="#0E0D0D" />
<rect x="44" y="42" width="1" height="1" fill="#000000" />
<rect x="45" y="42" width="1" height="1" fill="#0E0D0D" />
<rect x="4" y="43" width="1" height="5" fill="#000000" />
<rect x="5" y="43" width="15" height="1" fill="#211F1F" />
<rect x="21" y="43" width="24" height="1" fill="#211F1F" />
<rect x="45" y="43" width="1" height="5" fill="#000000" />
<rect x="46" y="43" width="1" height="2" fill="#191717" />
<rect x="47" y="43" width="1" height="2" fill="#000000" />
<rect x="5" y="44" width="15" height="3" fill="#191717" />
<rect x="20" y="44" width="1" height="3" fill="#1E1C1C" />
<rect x="21" y="44" width="24" height="3" fill="#191717" />
<rect x="46" y="45" width="1" height="2" fill="#000000" />
<rect x="5" y="47" width="40" height="1" fill="#000000" />
</svg>