<?xml version="1.0" encoding="UTF-8" ?>
<svg version="1.1" width="64" height="64" xmlns="http://www.w3.org/2000/svg" shape-rendering="crispEdges">
<rect x="13" y="14" width="14" height="1" fill="#000000" />
<rect x="37" y="14" width="14" height="1" fill="#000000" />
<rect x="11" y="15" width="2" height="1" fill="#000000" />
<rect x="13" y="15" width="14" height="1" fill="#87969E" />
<rect x="27" y="15" width="1" height="2" fill="#000000" />
<rect x="36" y="15" width="1" height="2" fill="#000000" />
<rect x="37" y="15" width="14" height="1" fill="#87969E" />
<rect x="51" y="15" width="2" height="1" fill="#000000" />
<rect x="10" y="16" width="1" height="2" fill="#000000" />
<rect x="11" y="16" width="2" height="1" fill="#87969E" />
<rect x="13" y="16" width="14" height="1" fill="#000000" />
<rect x="28" y="16" width="8" height="1" fill="#000000" />
<rect x="37" y="16" width="14" height="1" fill="#000000" />
<rect x="51" y="16" width="2" height="1" fill="#87969E" />
<rect x="53" y="16" width="1" height="2" fill="#000000" />
<rect x="11" y="17" width="2" height="1" fill="#000000" />
<rect x="13" y="17" width="38" height="2" fill="#9BADB7" />
<rect x="51" y="17" width="2" height="1" fill="#000000" />
<rect x="8" y="18" width="2" height="1" fill="#000000" />
<rect x="10" y="18" width="3" height="6" fill="#9BADB7" />
<rect x="51" y="18" width="3" height="2" fill="#9BADB7" />
<rect x="54" y="18" width="2" height="1" fill="#000000" />
<rect x="7" y="19" width="1" height="1" fill="#000000" />
<rect x="8" y="19" width="2" height="7" fill="#9BADB7" />
<rect x="13" y="19" width="32" height="1" fill="#9BADB7" />
<rect x="45" y="19" width="6" height="3" fill="#79747B" />
<rect x="54" y="19" width="2" height="2" fill="#9BADB7" />
<rect x="56" y="19" width="1" height="1" fill="#000000" />
<rect x="5" y="20" width="2" height="1" fill="#000000" />
<rect x="7" y="20" width="1" height="10" fill="#9BADB7" />
<rect x="13" y="20" width="29" height="1" fill="#9BADB7" />
<rect x="42" y="20" width="3" height="4" fill="#79747B" />
<rect x="51" y="20" width="3" height="3" fill="#79747B" />
<rect x="56" y="20" width="1" height="3" fill="#9BADB7" />
<rect x="57" y="20" width="2" height="1" fill="#000000" />
<rect x="4" y="21" width="1" height="2" fill="#000000" />
<rect x="5" y="21" width="2" height="22" fill="#9BADB7" />
<rect x="13" y="21" width="28" height="1" fill="#9BADB7" />
<rect x="41" y="21" width="1" height="6" fill="#79747B" />
<rect x="54" y="21" width="1" height="8" fill="#79747B" />
<rect x="55" y="21" width="1" height="1" fill="#9BADB7" />
<rect x="57" y="21" width="2" height="3" fill="#9BADB7" />
<rect x="59" y="21" width="1" height="2" fill="#000000" />
<rect x="13" y="22" width="27" height="1" fill="#9BADB7" />
<rect x="40" y="22" width="1" height="5" fill="#79747B" />
<rect x="45" y="22" width="2" height="1" fill="#79747B" />
<rect x="47" y="22" width="4" height="1" fill="#9BADB7" />
<rect x="55" y="22" width="1" height="7" fill="#79747B" />
<rect x="3" y="23" width="1" height="1" fill="#000000" />
<rect x="4" y="23" width="1" height="18" fill="#9BADB7" />
<rect x="13" y="23" width="1" height="1" fill="#9BADB7" />
<rect x="14" y="23" width="4" height="1" fill="#A4B4BD" />
<rect x="18" y="23" width="21" height="1" fill="#9BADB7" />
<rect x="39" y="23" width="1" height="5" fill="#79747B" />
<rect x="45" y="23" width="1" height="1" fill="#79747B" />
<rect x="46" y="23" width="1" height="1" fill="#9BADB7" />
<rect x="47" y="23" width="4" height="5" fill="#5B6EE1" />
<rect x="51" y="23" width="1" height="1" fill="#9BADB7" />
<rect x="52" y="23" width="2" height="1" fill="#79747B" />
<rect x="56" y="23" width="1" height="6" fill="#79747B" />
<rect x="59" y="23" width="1" height="3" fill="#9BADB7" />
<rect x="60" y="23" width="1" height="1" fill="#000000" />
<rect x="2" y="24" width="1" height="2" fill="#000000" />
<rect x="3" y="24" width="1" height="16" fill="#9BADB7" />
<rect x="10" y="24" width="2" height="1" fill="#9BADB7" />
<rect x="12" y="24" width="2" height="1" fill="#A4B4BD" />
<rect x="14" y="24" width="4" height="3" fill="#ACBFCA" />
<rect x="18" y="24" width="2" height="1" fill="#A4B4BD" />
<rect x="20" y="24" width="18" height="1" fill="#9BADB7" />
<rect x="38" y="24" width="1" height="5" fill="#79747B" />
<rect x="42" y="24" width="2" height="1" fill="#79747B" />
<rect x="44" y="24" width="2" height="10" fill="#9BADB7" />
<rect x="46" y="24" width="1" height="3" fill="#5B6EE1" />
<rect x="51" y="24" width="1" height="3" fill="#5B6EE1" />
<rect x="52" y="24" width="1" height="4" fill="#9BADB7" />
<rect x="53" y="24" width="1" height="6" fill="#79747B" />
<rect x="57" y="24" width="1" height="5" fill="#79747B" />
<rect x="58" y="24" width="1" height="1" fill="#9BADB7" />
<rect x="60" y="24" width="1" height="5" fill="#9BADB7" />
<rect x="61" y="24" width="1" height="2" fill="#000000" />
<rect x="10" y="25" width="2" height="1" fill="#A4B4BD" />
<rect x="12" y="25" width="2" height="5" fill="#ACBFCA" />
<rect x="18" y="25" width="2" height="5" fill="#ACBFCA" />
<rect x="20" y="25" width="2" height="1" fill="#A4B4BD" />
<rect x="22" y="25" width="15" height="1" fill="#9BADB7" />
<rect x="37" y="25" width="1" height="5" fill="#79747B" />
<rect x="42" y="25" width="1" height="1" fill="#79747B" />
<rect x="43" y="25" width="1" height="5" fill="#9BADB7" />
<rect x="58" y="25" width="1" height="5" fill="#79747B" />
<rect x="1" y="26" width="1" height="3" fill="#000000" />
<rect x="2" y="26" width="1" height="12" fill="#9BADB7" />
<rect x="8" y="26" width="1" height="2" fill="#9BADB7" />
<rect x="9" y="26" width="1" height="2" fill="#A4B4BD" />
<rect x="10" y="26" width="2" height="4" fill="#ACBFCA" />
<rect x="20" y="26" width="2" height="4" fill="#ACBFCA" />
<rect x="22" y="26" width="1" height="2" fill="#A4B4BD" />
<rect x="23" y="26" width="13" height="2" fill="#9BADB7" />
<rect x="36" y="26" width="1" height="12" fill="#79747B" />
<rect x="42" y="26" width="1" height="3" fill="#9BADB7" />
<rect x="59" y="26" width="1" height="5" fill="#79747B" />
<rect x="61" y="26" width="1" height="12" fill="#9BADB7" />
<rect x="62" y="26" width="1" height="3" fill="#000000" />
<rect x="14" y="27" width="4" height="9" fill="#79747B" />
<rect x="40" y="27" width="2" height="2" fill="#9BADB7" />
<rect x="46" y="27" width="1" height="1" fill="#5868CA" />
<rect x="51" y="27" width="1" height="1" fill="#5868CA" />
<rect x="8" y="28" width="1" height="2" fill="#A4B4BD" />
<rect x="9" y="28" width="1" height="8" fill="#ACBFCA" />
<rect x="22" y="28" width="1" height="8" fill="#ACBFCA" />
<rect x="23" y="28" width="1" height="2" fill="#A4B4BD" />
<rect x="24" y="28" width="12" height="1" fill="#9BADB7" />
<rect x="39" y="28" width="1" height="1" fill="#9BADB7" />
<rect x="46" y="28" width="1" height="5" fill="#9BADB7" />
<rect x="47" y="28" width="4" height="1" fill="#5868CA" />
<rect x="51" y="28" width="1" height="1" fill="#9BADB7" />
<rect x="52" y="28" width="1" height="3" fill="#79747B" />
<rect x="0" y="29" width="1" height="6" fill="#000000" />
<rect x="1" y="29" width="1" height="6" fill="#9BADB7" />
<rect x="24" y="29" width="11" height="1" fill="#9BADB7" />
<rect x="35" y="29" width="1" height="6" fill="#79747B" />
<rect x="38" y="29" width="1" height="1" fill="#9BADB7" />
<rect x="39" y="29" width="4" height="5" fill="#6ABE30" />
<rect x="47" y="29" width="4" height="1" fill="#9BADB7" />
<rect x="51" y="29" width="1" height="3" fill="#79747B" />
<rect x="54" y="29" width="4" height="1" fill="#9BADB7" />
<rect x="60" y="29" width="1" height="6" fill="#79747B" />
<rect x="62" y="29" width="1" height="6" fill="#9BADB7" />
<rect x="63" y="29" width="1" height="6" fill="#000000" />
<rect x="7" y="30" width="1" height="4" fill="#A4B4BD" />
<rect x="8" y="30" width="1" height="4" fill="#ACBFCA" />
<rect x="10" y="30" width="1" height="8" fill="#ACBFCA" />
<rect x="11" y="30" width="3" height="3" fill="#79747B" />
<rect x="18" y="30" width="3" height="3" fill="#79747B" />
<rect x="21" y="30" width="1" height="8" fill="#ACBFCA" />
<rect x="23" y="30" width="1" height="4" fill="#ACBFCA" />
<rect x="24" y="30" width="1" height="4" fill="#A4B4BD" />
<rect x="25" y="30" width="10" height="3" fill="#9BADB7" />
<rect x="37" y="30" width="1" height="4" fill="#9BADB7" />
<rect x="38" y="30" width="1" height="3" fill="#6ABE30" />
<rect x="43" y="30" width="1" height="3" fill="#6ABE30" />
<rect x="47" y="30" width="3" height="1" fill="#9BADB7" />
<rect x="50" y="30" width="1" height="2" fill="#79747B" />
<rect x="53" y="30" width="1" height="1" fill="#9BADB7" />
<rect x="54" y="30" width="4" height="5" fill="#DF7126" />
<rect x="58" y="30" width="1" height="1" fill="#9BADB7" />
<rect x="47" y="31" width="2" height="1" fill="#9BADB7" />
<rect x="49" y="31" width="1" height="2" fill="#79747B" />
<rect x="52" y="31" width="1" height="10" fill="#9BADB7" />
<rect x="53" y="31" width="1" height="3" fill="#DF7126" />
<rect x="58" y="31" width="1" height="3" fill="#DF7126" />
<rect x="59" y="31" width="1" height="4" fill="#9BADB7" />
<rect x="47" y="32" width="2" height="2" fill="#79747B" />
<rect x="50" y="32" width="2" height="5" fill="#9BADB7" />
<rect x="11" y="33" width="3" height="1" fill="#69666A" />
<rect x="18" y="33" width="3" height="1" fill="#69666A" />
<rect x="25" y="33" width="3" height="1" fill="#9BADB7" />
<rect x="28" y="33" width="2" height="1" fill="#696A6A" />
<rect x="30" y="33" width="2" height="1" fill="#9BADB7" />
<rect x="32" y="33" width="2" height="1" fill="#696A6A" />
<rect x="34" y="33" width="1" height="9" fill="#9BADB7" />
<rect x="38" y="33" width="1" height="1" fill="#5DA72A" />
<rect x="43" y="33" width="1" height="1" fill="#5DA72A" />
<rect x="46" y="33" width="1" height="2" fill="#79747B" />
<rect x="49" y="33" width="1" height="3" fill="#9BADB7" />
<rect x="7" y="34" width="1" height="10" fill="#9BADB7" />
<rect x="8" y="34" width="1" height="2" fill="#B7C9D3" />
<rect x="11" y="34" width="3" height="4" fill="#ACBFCA" />
<rect x="18" y="34" width="3" height="4" fill="#ACBFCA" />
<rect x="23" y="34" width="1" height="2" fill="#B7C9D3" />
<rect x="24" y="34" width="3" height="1" fill="#9BADB7" />
<rect x="27" y="34" width="2" height="1" fill="#696A6A" />
<rect x="29" y="34" width="1" height="1" fill="#545454" />
<rect x="30" y="34" width="1" height="1" fill="#9BADB7" />
<rect x="31" y="34" width="2" height="1" fill="#696A6A" />
<rect x="33" y="34" width="1" height="1" fill="#545454" />
<rect x="37" y="34" width="1" height="5" fill="#79747B" />
<rect x="38" y="34" width="1" height="1" fill="#9BADB7" />
<rect x="39" y="34" width="4" height="1" fill="#5DA72A" />
<rect x="43" y="34" width="2" height="1" fill="#9BADB7" />
<rect x="45" y="34" width="1" height="2" fill="#79747B" />
<rect x="47" y="34" width="1" height="1" fill="#79747B" />
<rect x="48" y="34" width="1" height="2" fill="#9BADB7" />
<rect x="53" y="34" width="1" height="1" fill="#CF6822" />
<rect x="58" y="34" width="1" height="1" fill="#CF6822" />
<rect x="1" y="35" width="1" height="3" fill="#000000" />
<rect x="24" y="35" width="2" height="8" fill="#9BADB7" />
<rect x="26" y="35" width="2" height="1" fill="#696A6A" />
<rect x="28" y="35" width="1" height="1" fill="#545454" />
<rect x="29" y="35" width="1" height="7" fill="#9BADB7" />
<rect x="30" y="35" width="2" height="1" fill="#696A6A" />
<rect x="32" y="35" width="1" height="1" fill="#545454" />
<rect x="33" y="35" width="1" height="7" fill="#9BADB7" />
<rect x="35" y="35" width="1" height="7" fill="#9BADB7" />
<rect x="38" y="35" width="1" height="5" fill="#79747B" />
<rect x="39" y="35" width="4" height="1" fill="#9BADB7" />
<rect x="43" y="35" width="2" height="2" fill="#79747B" />
<rect x="46" y="35" width="2" height="1" fill="#9BADB7" />
<rect x="53" y="35" width="1" height="5" fill="#9BADB7" />
<rect x="54" y="35" width="4" height="1" fill="#CF6822" />
<rect x="58" y="35" width="1" height="1" fill="#9BADB7" />
<rect x="59" y="35" width="1" height="3" fill="#79747B" />
<rect x="60" y="35" width="1" height="5" fill="#9BADB7" />
<rect x="62" y="35" width="1" height="3" fill="#000000" />
<rect x="8" y="36" width="1" height="9" fill="#9BADB7" />
<rect x="9" y="36" width="1" height="2" fill="#B7C9D3" />
<rect x="14" y="36" width="4" height="1" fill="#69666A" />
<rect x="22" y="36" width="1" height="2" fill="#B7C9D3" />
<rect x="23" y="36" width="1" height="9" fill="#9BADB7" />
<rect x="26" y="36" width="2" height="1" fill="#545454" />
<rect x="28" y="36" width="1" height="6" fill="#9BADB7" />
<rect x="30" y="36" width="2" height="1" fill="#545454" />
<rect x="32" y="36" width="1" height="6" fill="#9BADB7" />
<rect x="39" y="36" width="4" height="5" fill="#79747B" />
<rect x="45" y="36" width="1" height="1" fill="#9BADB7" />
<rect x="46" y="36" width="4" height="5" fill="#FBF236" />
<rect x="54" y="36" width="4" height="1" fill="#9BADB7" />
<rect x="58" y="36" width="1" height="3" fill="#79747B" />
<rect x="14" y="37" width="4" height="3" fill="#ACBFCA" />
<rect x="26" y="37" width="2" height="5" fill="#9BADB7" />
<rect x="30" y="37" width="2" height="5" fill="#9BADB7" />
<rect x="43" y="37" width="1" height="7" fill="#79747B" />
<rect x="44" y="37" width="1" height="4" fill="#9BADB7" />
<rect x="45" y="37" width="1" height="3" fill="#FBF236" />
<rect x="50" y="37" width="1" height="3" fill="#FBF236" />
<rect x="51" y="37" width="1" height="4" fill="#9BADB7" />
<rect x="54" y="37" width="3" height="1" fill="#9BADB7" />
<rect x="57" y="37" width="1" height="3" fill="#79747B" />
<rect x="2" y="38" width="1" height="2" fill="#000000" />
<rect x="9" y="38" width="1" height="7" fill="#9BADB7" />
<rect x="10" y="38" width="2" height="1" fill="#B7C9D3" />
<rect x="12" y="38" width="2" height="1" fill="#ACBFCA" />
<rect x="18" y="38" width="2" height="1" fill="#ACBFCA" />
<rect x="20" y="38" width="2" height="1" fill="#B7C9D3" />
<rect x="22" y="38" width="1" height="7" fill="#9BADB7" />
<rect x="36" y="38" width="1" height="4" fill="#9BADB7" />
<rect x="54" y="38" width="1" height="1" fill="#9BADB7" />
<rect x="55" y="38" width="2" height="3" fill="#79747B" />
<rect x="59" y="38" width="1" height="3" fill="#9BADB7" />
<rect x="61" y="38" width="1" height="2" fill="#000000" />
<rect x="10" y="39" width="2" height="7" fill="#9BADB7" />
<rect x="12" y="39" width="2" height="1" fill="#B7C9D3" />
<rect x="18" y="39" width="2" height="1" fill="#B7C9D3" />
<rect x="20" y="39" width="2" height="7" fill="#9BADB7" />
<rect x="37" y="39" width="1" height="4" fill="#9BADB7" />
<rect x="54" y="39" width="1" height="4" fill="#79747B" />
<rect x="58" y="39" width="1" height="4" fill="#9BADB7" />
<rect x="3" y="40" width="1" height="1" fill="#000000" />
<rect x="12" y="40" width="2" height="6" fill="#9BADB7" />
<rect x="14" y="40" width="4" height="1" fill="#B7C9D3" />
<rect x="18" y="40" width="2" height="6" fill="#9BADB7" />
<rect x="38" y="40" width="1" height="3" fill="#9BADB7" />
<rect x="45" y="40" width="1" height="1" fill="#E5DD33" />
<rect x="50" y="40" width="1" height="1" fill="#E5DD33" />
<rect x="53" y="40" width="1" height="4" fill="#79747B" />
<rect x="57" y="40" width="1" height="3" fill="#9BADB7" />
<rect x="60" y="40" width="1" height="1" fill="#000000" />
<rect x="4" y="41" width="1" height="2" fill="#000000" />
<rect x="14" y="41" width="4" height="6" fill="#9BADB7" />
<rect x="39" y="41" width="1" height="3" fill="#9BADB7" />
<rect x="40" y="41" width="3" height="1" fill="#79747B" />
<rect x="44" y="41" width="1" height="3" fill="#79747B" />
<rect x="45" y="41" width="1" height="1" fill="#9BADB7" />
<rect x="46" y="41" width="4" height="1" fill="#E5DD33" />
<rect x="50" y="41" width="1" height="1" fill="#9BADB7" />
<rect x="51" y="41" width="2" height="3" fill="#79747B" />
<rect x="55" y="41" width="1" height="1" fill="#79747B" />
<rect x="56" y="41" width="1" height="3" fill="#9BADB7" />
<rect x="59" y="41" width="1" height="2" fill="#000000" />
<rect x="26" y="42" width="1" height="1" fill="#9BADB7" />
<rect x="27" y="42" width="10" height="1" fill="#000000" />
<rect x="40" y="42" width="1" height="3" fill="#9BADB7" />
<rect x="41" y="42" width="2" height="1" fill="#79747B" />
<rect x="45" y="42" width="1" height="3" fill="#79747B" />
<rect x="46" y="42" width="4" height="1" fill="#9BADB7" />
<rect x="50" y="42" width="1" height="3" fill="#79747B" />
<rect x="55" y="42" width="1" height="3" fill="#9BADB7" />
<rect x="5" y="43" width="2" height="1" fill="#000000" />
<rect x="24" y="43" width="1" height="1" fill="#9BADB7" />
<rect x="25" y="43" width="2" height="1" fill="#000000" />
<rect x="37" y="43" width="2" height="1" fill="#000000" />
<rect x="41" y="43" width="1" height="2" fill="#9BADB7" />
<rect x="42" y="43" width="1" height="1" fill="#79747B" />
<rect x="46" y="43" width="4" height="2" fill="#79747B" />
<rect x="54" y="43" width="1" height="2" fill="#9BADB7" />
<rect x="57" y="43" width="2" height="1" fill="#000000" />
<rect x="7" y="44" width="1" height="1" fill="#000000" />
<rect x="24" y="44" width="1" height="1" fill="#000000" />
<rect x="39" y="44" width="1" height="1" fill="#000000" />
<rect x="42" y="44" width="3" height="2" fill="#9BADB7" />
<rect x="51" y="44" width="3" height="2" fill="#9BADB7" />
<rect x="56" y="44" width="1" height="1" fill="#000000" />
<rect x="8" y="45" width="2" height="1" fill="#000000" />
<rect x="22" y="45" width="2" height="1" fill="#000000" />
<rect x="40" y="45" width="2" height="1" fill="#000000" />
<rect x="45" y="45" width="6" height="2" fill="#9BADB7" />
<rect x="54" y="45" width="2" height="1" fill="#000000" />
<rect x="10" y="46" width="3" height="1" fill="#000000" />
<rect x="13" y="46" width="1" height="1" fill="#9BADB7" />
<rect x="18" y="46" width="1" height="1" fill="#9BADB7" />
<rect x="19" y="46" width="3" height="1" fill="#000000" />
<rect x="42" y="46" width="3" height="1" fill="#000000" />
<rect x="51" y="46" width="3" height="1" fill="#000000" />
<rect x="13" y="47" width="6" height="1" fill="#000000" />
<rect x="45" y="47" width="6" height="1" fill="#000000" />
</svg>