<?xml version="1.0" encoding="UTF-8" ?>
<svg version="1.1" width="64" height="64" xmlns="http://www.w3.org/2000/svg" shape-rendering="crispEdges">
<rect x="5" y="18" width="5" height="1" fill="#000000" />
<rect x="11" y="18" width="42" height="1" fill="#000000" />
<rect x="54" y="18" width="5" height="1" fill="#000000" />
<rect x="3" y="19" width="2" height="1" fill="#000000" />
<rect x="5" y="19" width="4" height="1" fill="#6992DB" />
<rect x="9" y="19" width="2" height="1" fill="#000000" />
<rect x="11" y="19" width="42" height="1" fill="#3C3434" />
<rect x="53" y="19" width="2" height="1" fill="#000000" />
<rect x="55" y="19" width="4" height="1" fill="#D35C5C" />
<rect x="59" y="19" width="2" height="1" fill="#000000" />
<rect x="2" y="20" width="1" height="1" fill="#000000" />
<rect x="3" y="20" width="2" height="1" fill="#6992DB" />
<rect x="5" y="20" width="4" height="1" fill="#678BCB" />
<rect x="9" y="20" width="1" height="26" fill="#000000" />
<rect x="10" y="20" width="1" height="1" fill="#3C3434" />
<rect x="11" y="20" width="1" height="24" fill="#262525" />
<rect x="12" y="20" width="40" height="1" fill="#000000" />
<rect x="52" y="20" width="1" height="24" fill="#262525" />
<rect x="53" y="20" width="1" height="1" fill="#3C3434" />
<rect x="54" y="20" width="1" height="26" fill="#000000" />
<rect x="55" y="20" width="2" height="1" fill="#BD4747" />
<rect x="57" y="20" width="1" height="3" fill="#1E1C1C" />
<rect x="58" y="20" width="1" height="1" fill="#BD4747" />
<rect x="59" y="20" width="2" height="1" fill="#D35C5C" />
<rect x="61" y="20" width="1" height="1" fill="#000000" />
<rect x="1" y="21" width="1" height="2" fill="#000000" />
<rect x="2" y="21" width="1" height="2" fill="#6992DB" />
<rect x="3" y="21" width="2" height="3" fill="#678BCB" />
<rect x="5" y="21" width="3" height="1" fill="#1E1C1C" />
<rect x="8" y="21" width="1" height="23" fill="#678BCB" />
<rect x="10" y="21" width="1" height="23" fill="#262525" />
<rect x="12" y="21" width="1" height="23" fill="#000000" />
<rect x="13" y="21" width="38" height="22" fill="#3C3A3A" />
<rect x="51" y="21" width="1" height="23" fill="#000000" />
<rect x="53" y="21" width="1" height="23" fill="#262525" />
<rect x="55" y="21" width="1" height="23" fill="#BD4747" />
<rect x="56" y="21" width="1" height="1" fill="#1E1C1C" />
<rect x="58" y="21" width="1" height="1" fill="#1E1C1C" />
<rect x="59" y="21" width="2" height="3" fill="#BD4747" />
<rect x="61" y="21" width="1" height="2" fill="#D35C5C" />
<rect x="62" y="21" width="1" height="2" fill="#000000" />
<rect x="5" y="22" width="3" height="2" fill="#678BCB" />
<rect x="56" y="22" width="1" height="4" fill="#BD4747" />
<rect x="58" y="22" width="1" height="2" fill="#BD4747" />
<rect x="0" y="23" width="1" height="18" fill="#000000" />
<rect x="1" y="23" width="1" height="16" fill="#6992DB" />
<rect x="2" y="23" width="1" height="10" fill="#678BCB" />
<rect x="57" y="23" width="1" height="3" fill="#BD4747" />
<rect x="61" y="23" width="1" height="3" fill="#BD4747" />
<rect x="62" y="23" width="1" height="16" fill="#D35C5C" />
<rect x="63" y="23" width="1" height="18" fill="#000000" />
<rect x="3" y="24" width="1" height="1" fill="#678BCB" />
<rect x="4" y="24" width="2" height="3" fill="#1E1C1C" />
<rect x="6" y="24" width="2" height="1" fill="#678BCB" />
<rect x="58" y="24" width="2" height="1" fill="#1E1C1C" />
<rect x="60" y="24" width="1" height="2" fill="#BD4747" />
<rect x="3" y="25" width="1" height="1" fill="#1E1C1C" />
<rect x="6" y="25" width="1" height="1" fill="#1E1C1C" />
<rect x="7" y="25" width="1" height="8" fill="#678BCB" />
<rect x="58" y="25" width="2" height="1" fill="#100F0F" />
<rect x="3" y="26" width="1" height="1" fill="#100F0F" />
<rect x="6" y="26" width="1" height="1" fill="#100F0F" />
<rect x="56" y="26" width="2" height="1" fill="#1E1C1C" />
<rect x="58" y="26" width="2" height="2" fill="#BD4747" />
<rect x="60" y="26" width="2" height="1" fill="#1E1C1C" />
<rect x="3" y="27" width="1" height="6" fill="#678BCB" />
<rect x="4" y="27" width="2" height="1" fill="#100F0F" />
<rect x="6" y="27" width="1" height="6" fill="#678BCB" />
<rect x="56" y="27" width="2" height="1" fill="#100F0F" />
<rect x="60" y="27" width="2" height="1" fill="#100F0F" />
<rect x="4" y="28" width="2" height="3" fill="#678BCB" />
<rect x="56" y="28" width="2" height="5" fill="#BD4747" />
<rect x="58" y="28" width="2" height="1" fill="#1E1C1C" />
<rect x="60" y="28" width="2" height="5" fill="#BD4747" />
<rect x="58" y="29" width="2" height="1" fill="#100F0F" />
<rect x="58" y="30" width="2" height="2" fill="#BD4747" />
<rect x="4" y="31" width="2" height="1" fill="#1E1C1C" />
<rect x="4" y="32" width="2" height="1" fill="#100F0F" />
<rect x="58" y="32" width="2" height="3" fill="#1E1C1C" />
<rect x="2" y="33" width="2" height="1" fill="#1E1C1C" />
<rect x="4" y="33" width="2" height="2" fill="#678BCB" />
<rect x="6" y="33" width="2" height="1" fill="#1E1C1C" />
<rect x="56" y="33" width="1" height="11" fill="#BD4747" />
<rect x="57" y="33" width="1" height="1" fill="#1E1C1C" />
<rect x="60" y="33" width="1" height="1" fill="#1E1C1C" />
<rect x="61" y="33" width="1" height="8" fill="#BD4747" />
<rect x="2" y="34" width="2" height="1" fill="#100F0F" />
<rect x="6" y="34" width="2" height="1" fill="#100F0F" />
<rect x="57" y="34" width="1" height="1" fill="#100F0F" />
<rect x="60" y="34" width="1" height="1" fill="#100F0F" />
<rect x="2" y="35" width="2" height="6" fill="#678BCB" />
<rect x="4" y="35" width="2" height="1" fill="#1E1C1C" />
<rect x="6" y="35" width="2" height="4" fill="#678BCB" />
<rect x="57" y="35" width="1" height="4" fill="#BD4747" />
<rect x="58" y="35" width="2" height="1" fill="#100F0F" />
<rect x="60" y="35" width="1" height="8" fill="#BD4747" />
<rect x="4" y="36" width="2" height="1" fill="#100F0F" />
<rect x="58" y="36" width="2" height="3" fill="#BD4747" />
<rect x="4" y="37" width="2" height="2" fill="#678BCB" />
<rect x="1" y="39" width="1" height="2" fill="#4C72B5" />
<rect x="4" y="39" width="1" height="4" fill="#678BCB" />
<rect x="5" y="39" width="2" height="2" fill="#1E1C1C" />
<rect x="7" y="39" width="1" height="5" fill="#678BCB" />
<rect x="57" y="39" width="2" height="2" fill="#1E1C1C" />
<rect x="59" y="39" width="1" height="4" fill="#BD4747" />
<rect x="62" y="39" width="1" height="2" fill="#AA3939" />
<rect x="1" y="41" width="1" height="2" fill="#000000" />
<rect x="2" y="41" width="1" height="2" fill="#4C72B5" />
<rect x="3" y="41" width="1" height="2" fill="#678BCB" />
<rect x="5" y="41" width="2" height="3" fill="#678BCB" />
<rect x="57" y="41" width="2" height="3" fill="#BD4747" />
<rect x="61" y="41" width="1" height="2" fill="#AA3939" />
<rect x="62" y="41" width="1" height="2" fill="#000000" />
<rect x="2" y="43" width="1" height="1" fill="#000000" />
<rect x="3" y="43" width="2" height="1" fill="#4C72B5" />
<rect x="13" y="43" width="38" height="1" fill="#000000" />
<rect x="59" y="43" width="2" height="1" fill="#AA3939" />
<rect x="61" y="43" width="1" height="1" fill="#000000" />
<rect x="3" y="44" width="2" height="1" fill="#000000" />
<rect x="5" y="44" width="4" height="1" fill="#4C72B5" />
<rect x="10" y="44" width="44" height="1" fill="#161616" />
<rect x="55" y="44" width="4" height="1" fill="#AA3939" />
<rect x="59" y="44" width="2" height="1" fill="#000000" />
<rect x="5" y="45" width="4" height="1" fill="#000000" />
<rect x="10" y="45" width="44" height="1" fill="#000000" />
<rect x="55" y="45" width="4" height="1" fill="#000000" />
</svg>