<?xml version="1.0" encoding="UTF-8" ?>
<svg version="1.1" width="64" height="64" xmlns="http://www.w3.org/2000/svg" shape-rendering="crispEdges">
<rect x="25" y="6" width="14" height="1" fill="#000000" />
<rect x="24" y="7" width="1" height="1" fill="#000000" />
<rect x="25" y="7" width="14" height="1" fill="#FFFFFF" />
<rect x="39" y="7" width="1" height="1" fill="#000000" />
<rect x="23" y="8" width="1" height="52" fill="#000000" />
<rect x="24" y="8" width="1" height="52" fill="#FFFFFF" />
<rect x="25" y="8" width="1" height="1" fill="#EFEFEF" />
<rect x="26" y="8" width="2" height="1" fill="#242424" />
<rect x="28" y="8" width="11" height="1" fill="#EFEFEF" />
<rect x="39" y="8" width="1" height="52" fill="#D4DEDE" />
<rect x="40" y="8" width="1" height="52" fill="#000000" />
<rect x="25" y="9" width="1" height="2" fill="#242424" />
<rect x="26" y="9" width="2" height="2" fill="#EFEFEF" />
<rect x="28" y="9" width="1" height="2" fill="#242424" />
<rect x="29" y="9" width="10" height="4" fill="#EFEFEF" />
<rect x="25" y="11" width="1" height="23" fill="#EFEFEF" />
<rect x="26" y="11" width="2" height="1" fill="#242424" />
<rect x="28" y="11" width="1" height="4" fill="#EFEFEF" />
<rect x="26" y="12" width="2" height="21" fill="#EFEFEF" />
<rect x="29" y="13" width="1" height="2" fill="#EFEFEF" />
<rect x="30" y="13" width="4" height="1" fill="#242424" />
<rect x="34" y="13" width="5" height="2" fill="#EFEFEF" />
<rect x="30" y="14" width="1" height="2" fill="#242424" />
<rect x="31" y="14" width="2" height="6" fill="#EFEFEF" />
<rect x="33" y="14" width="1" height="2" fill="#242424" />
<rect x="28" y="15" width="2" height="1" fill="#242424" />
<rect x="34" y="15" width="2" height="1" fill="#242424" />
<rect x="36" y="15" width="3" height="18" fill="#EFEFEF" />
<rect x="28" y="16" width="1" height="3" fill="#242424" />
<rect x="29" y="16" width="2" height="2" fill="#EFEFEF" />
<rect x="33" y="16" width="2" height="2" fill="#EFEFEF" />
<rect x="35" y="16" width="1" height="3" fill="#242424" />
<rect x="29" y="18" width="2" height="1" fill="#242424" />
<rect x="33" y="18" width="2" height="1" fill="#242424" />
<rect x="28" y="19" width="2" height="6" fill="#EFEFEF" />
<rect x="30" y="19" width="1" height="2" fill="#242424" />
<rect x="33" y="19" width="1" height="2" fill="#242424" />
<rect x="34" y="19" width="2" height="6" fill="#EFEFEF" />
<rect x="31" y="20" width="2" height="1" fill="#242424" />
<rect x="30" y="21" width="4" height="2" fill="#EFEFEF" />
<rect x="30" y="23" width="1" height="1" fill="#EFEFEF" />
<rect x="31" y="23" width="2" height="1" fill="#242424" />
<rect x="33" y="23" width="1" height="1" fill="#EFEFEF" />
<rect x="30" y="24" width="1" height="1" fill="#242424" />
<rect x="31" y="24" width="2" height="4" fill="#EFEFEF" />
<rect x="33" y="24" width="1" height="1" fill="#242424" />
<rect x="28" y="25" width="1" height="9" fill="#EFEFEF" />
<rect x="29" y="25" width="1" height="2" fill="#242424" />
<rect x="30" y="25" width="1" height="2" fill="#EFEFEF" />
<rect x="33" y="25" width="1" height="2" fill="#EFEFEF" />
<rect x="34" y="25" width="1" height="2" fill="#242424" />
<rect x="35" y="25" width="1" height="9" fill="#EFEFEF" />
<rect x="29" y="27" width="1" height="30" fill="#EFEFEF" />
<rect x="30" y="27" width="1" height="1" fill="#242424" />
<rect x="33" y="27" width="1" height="1" fill="#242424" />
<rect x="34" y="27" width="1" height="33" fill="#EFEFEF" />
<rect x="30" y="28" width="1" height="6" fill="#EFEFEF" />
<rect x="31" y="28" width="2" height="1" fill="#242424" />
<rect x="33" y="28" width="1" height="6" fill="#EFEFEF" />
<rect x="31" y="29" width="2" height="4" fill="#EFEFEF" />
<rect x="26" y="33" width="2" height="1" fill="#242424" />
<rect x="31" y="33" width="2" height="1" fill="#242424" />
<rect x="36" y="33" width="2" height="1" fill="#242424" />
<rect x="38" y="33" width="1" height="1" fill="#EFEFEF" />
<rect x="25" y="34" width="1" height="2" fill="#242424" />
<rect x="26" y="34" width="2" height="2" fill="#EFEFEF" />
<rect x="28" y="34" width="1" height="2" fill="#242424" />
<rect x="30" y="34" width="1" height="2" fill="#242424" />
<rect x="31" y="34" width="2" height="2" fill="#B4E4E6" />
<rect x="33" y="34" width="1" height="2" fill="#242424" />
<rect x="35" y="34" width="1" height="2" fill="#242424" />
<rect x="36" y="34" width="2" height="2" fill="#EFEFEF" />
<rect x="38" y="34" width="1" height="2" fill="#242424" />
<rect x="25" y="36" width="1" height="24" fill="#EFEFEF" />
<rect x="26" y="36" width="2" height="1" fill="#242424" />
<rect x="28" y="36" width="1" height="24" fill="#EFEFEF" />
<rect x="30" y="36" width="1" height="2" fill="#EFEFEF" />
<rect x="31" y="36" width="2" height="1" fill="#242424" />
<rect x="33" y="36" width="1" height="2" fill="#EFEFEF" />
<rect x="35" y="36" width="1" height="21" fill="#EFEFEF" />
<rect x="36" y="36" width="2" height="1" fill="#242424" />
<rect x="38" y="36" width="1" height="24" fill="#EFEFEF" />
<rect x="26" y="37" width="2" height="18" fill="#EFEFEF" />
<rect x="31" y="37" width="2" height="8" fill="#EFEFEF" />
<rect x="36" y="37" width="2" height="18" fill="#EFEFEF" />
<rect x="30" y="38" width="1" height="1" fill="#D3C7C7" />
<rect x="33" y="38" width="1" height="1" fill="#D3C7C7" />
<rect x="30" y="39" width="1" height="1" fill="#EFEFEF" />
<rect x="33" y="39" width="1" height="1" fill="#EFEFEF" />
<rect x="30" y="40" width="1" height="1" fill="#D3C7C7" />
<rect x="33" y="40" width="1" height="1" fill="#D3C7C7" />
<rect x="30" y="41" width="1" height="1" fill="#EFEFEF" />
<rect x="33" y="41" width="1" height="1" fill="#EFEFEF" />
<rect x="30" y="42" width="1" height="1" fill="#D3C7C7" />
<rect x="33" y="42" width="1" height="1" fill="#D3C7C7" />
<rect x="30" y="43" width="1" height="3" fill="#EFEFEF" />
<rect x="33" y="43" width="1" height="3" fill="#EFEFEF" />
<rect x="31" y="45" width="2" height="1" fill="#242424" />
<rect x="30" y="46" width="1" height="2" fill="#242424" />
<rect x="31" y="46" width="2" height="2" fill="#F4EDED" />
<rect x="33" y="46" width="1" height="2" fill="#242424" />
<rect x="30" y="48" width="1" height="3" fill="#EFEFEF" />
<rect x="31" y="48" width="2" height="1" fill="#242424" />
<rect x="33" y="48" width="1" height="3" fill="#EFEFEF" />
<rect x="31" y="49" width="2" height="1" fill="#EFEFEF" />
<rect x="31" y="50" width="2" height="1" fill="#242424" />
<rect x="30" y="51" width="1" height="2" fill="#242424" />
<rect x="31" y="51" width="2" height="2" fill="#F4EDED" />
<rect x="33" y="51" width="1" height="2" fill="#242424" />
<rect x="30" y="53" width="1" height="2" fill="#EFEFEF" />
<rect x="31" y="53" width="2" height="1" fill="#242424" />
<rect x="33" y="53" width="1" height="2" fill="#EFEFEF" />
<rect x="31" y="54" width="2" height="3" fill="#EFEFEF" />
<rect x="26" y="55" width="1" height="5" fill="#EFEFEF" />
<rect x="27" y="55" width="1" height="1" fill="#AAA3A3" />
<rect x="30" y="55" width="1" height="1" fill="#AAA3A3" />
<rect x="33" y="55" width="1" height="1" fill="#AAA3A3" />
<rect x="36" y="55" width="1" height="1" fill="#AAA3A3" />
<rect x="37" y="55" width="1" height="5" fill="#EFEFEF" />
<rect x="27" y="56" width="1" height="4" fill="#EFEFEF" />
<rect x="30" y="56" width="1" height="2" fill="#EFEFEF" />
<rect x="33" y="56" width="1" height="1" fill="#EFEFEF" />
<rect x="36" y="56" width="1" height="4" fill="#EFEFEF" />
<rect x="29" y="57" width="1" height="3" fill="#AAA3A3" />
<rect x="31" y="57" width="1" height="3" fill="#AAA3A3" />
<rect x="32" y="57" width="1" height="3" fill="#EFEFEF" />
<rect x="33" y="57" width="1" height="3" fill="#AAA3A3" />
<rect x="35" y="57" width="1" height="3" fill="#AAA3A3" />
<rect x="30" y="58" width="1" height="2" fill="#AAA3A3" />
<rect x="24" y="60" width="1" height="1" fill="#000000" />
<rect x="25" y="60" width="14" height="1" fill="#D4DEDE" />
<rect x="39" y="60" width="1" height="1" fill="#000000" />
<rect x="25" y="61" width="14" height="1" fill="#000000" />
</svg>