<?xml version="1.0" encoding="UTF-8" ?>
<svg version="1.1" width="64" height="64" xmlns="http://www.w3.org/2000/svg" shape-rendering="crispEdges">
<rect x="6" y="17" width="52" height="1" fill="#000000" />
<rect x="4" y="18" width="2" height="1" fill="#000000" />
<rect x="6" y="18" width="52" height="1" fill="#2E2E2E" />
<rect x="58" y="18" width="2" height="1" fill="#000000" />
<rect x="3" y="19" width="1" height="1" fill="#000000" />
<rect x="4" y="19" width="2" height="1" fill="#2E2E2E" />
<rect x="6" y="19" width="12" height="3" fill="#212121" />
<rect x="18" y="19" width="13" height="2" fill="#1B1B1B" />
<rect x="31" y="19" width="2" height="2" fill="#131313" />
<rect x="33" y="19" width="13" height="2" fill="#1B1B1B" />
<rect x="46" y="19" width="12" height="3" fill="#212121" />
<rect x="58" y="19" width="2" height="1" fill="#2E2E2E" />
<rect x="60" y="19" width="1" height="1" fill="#000000" />
<rect x="2" y="20" width="1" height="2" fill="#000000" />
<rect x="3" y="20" width="1" height="2" fill="#2E2E2E" />
<rect x="4" y="20" width="2" height="4" fill="#212121" />
<rect x="58" y="20" width="2" height="4" fill="#212121" />
<rect x="60" y="20" width="1" height="2" fill="#2E2E2E" />
<rect x="61" y="20" width="1" height="2" fill="#000000" />
<rect x="18" y="21" width="28" height="1" fill="#212121" />
<rect x="1" y="22" width="1" height="23" fill="#000000" />
<rect x="2" y="22" width="1" height="23" fill="#2E2E2E" />
<rect x="3" y="22" width="1" height="23" fill="#212121" />
<rect x="6" y="22" width="10" height="1" fill="#212121" />
<rect x="16" y="22" width="32" height="1" fill="#000000" />
<rect x="48" y="22" width="10" height="1" fill="#212121" />
<rect x="60" y="22" width="1" height="23" fill="#212121" />
<rect x="61" y="22" width="1" height="23" fill="#2E2E2E" />
<rect x="62" y="22" width="1" height="23" fill="#000000" />
<rect x="6" y="23" width="3" height="4" fill="#0F0F0F" />
<rect x="9" y="23" width="6" height="1" fill="#212121" />
<rect x="15" y="23" width="1" height="21" fill="#000000" />
<rect x="16" y="23" width="32" height="21" fill="#2E2626" />
<rect x="48" y="23" width="1" height="21" fill="#000000" />
<rect x="49" y="23" width="6" height="1" fill="#212121" />
<rect x="55" y="23" width="3" height="4" fill="#0F0F0F" />
<rect x="4" y="24" width="1" height="23" fill="#212121" />
<rect x="5" y="24" width="1" height="2" fill="#0F0F0F" />
<rect x="9" y="24" width="1" height="2" fill="#0F0F0F" />
<rect x="10" y="24" width="5" height="6" fill="#212121" />
<rect x="49" y="24" width="5" height="9" fill="#212121" />
<rect x="54" y="24" width="1" height="2" fill="#0F0F0F" />
<rect x="58" y="24" width="1" height="2" fill="#0F0F0F" />
<rect x="59" y="24" width="1" height="23" fill="#212121" />
<rect x="5" y="26" width="1" height="1" fill="#000000" />
<rect x="9" y="26" width="1" height="1" fill="#000000" />
<rect x="54" y="26" width="1" height="1" fill="#000000" />
<rect x="58" y="26" width="1" height="1" fill="#000000" />
<rect x="5" y="27" width="1" height="20" fill="#212121" />
<rect x="6" y="27" width="3" height="1" fill="#000000" />
<rect x="9" y="27" width="1" height="3" fill="#212121" />
<rect x="54" y="27" width="1" height="3" fill="#212121" />
<rect x="55" y="27" width="3" height="1" fill="#000000" />
<rect x="58" y="27" width="1" height="6" fill="#212121" />
<rect x="6" y="28" width="3" height="4" fill="#212121" />
<rect x="55" y="28" width="3" height="2" fill="#212121" />
<rect x="9" y="30" width="2" height="5" fill="#0F0F0F" />
<rect x="11" y="30" width="4" height="2" fill="#212121" />
<rect x="54" y="30" width="2" height="2" fill="#0F0F0F" />
<rect x="56" y="30" width="2" height="3" fill="#212121" />
<rect x="6" y="32" width="1" height="16" fill="#212121" />
<rect x="7" y="32" width="2" height="1" fill="#0F0F0F" />
<rect x="11" y="32" width="2" height="1" fill="#0F0F0F" />
<rect x="13" y="32" width="2" height="16" fill="#212121" />
<rect x="54" y="32" width="2" height="4" fill="#212121" />
<rect x="7" y="33" width="2" height="1" fill="#000000" />
<rect x="11" y="33" width="2" height="1" fill="#000000" />
<rect x="49" y="33" width="2" height="15" fill="#212121" />
<rect x="51" y="33" width="2" height="2" fill="#0F0F0F" />
<rect x="53" y="33" width="1" height="15" fill="#212121" />
<rect x="56" y="33" width="1" height="15" fill="#212121" />
<rect x="57" y="33" width="2" height="2" fill="#0F0F0F" />
<rect x="7" y="34" width="2" height="14" fill="#212121" />
<rect x="11" y="34" width="2" height="14" fill="#212121" />
<rect x="9" y="35" width="2" height="1" fill="#000000" />
<rect x="51" y="35" width="2" height="6" fill="#212121" />
<rect x="57" y="35" width="2" height="12" fill="#212121" />
<rect x="9" y="36" width="2" height="12" fill="#212121" />
<rect x="54" y="36" width="2" height="2" fill="#0F0F0F" />
<rect x="54" y="38" width="2" height="10" fill="#212121" />
<rect x="51" y="41" width="2" height="2" fill="#000000" />
<rect x="51" y="43" width="2" height="2" fill="#212121" />
<rect x="15" y="44" width="1" height="4" fill="#212121" />
<rect x="16" y="44" width="32" height="1" fill="#000000" />
<rect x="48" y="44" width="1" height="4" fill="#212121" />
<rect x="2" y="45" width="1" height="2" fill="#000000" />
<rect x="3" y="45" width="1" height="2" fill="#131313" />
<rect x="16" y="45" width="32" height="1" fill="#212121" />
<rect x="51" y="45" width="2" height="2" fill="#000000" />
<rect x="60" y="45" width="1" height="2" fill="#131313" />
<rect x="61" y="45" width="1" height="2" fill="#000000" />
<rect x="16" y="46" width="15" height="2" fill="#212121" />
<rect x="31" y="46" width="2" height="2" fill="#5FCDE4" />
<rect x="33" y="46" width="8" height="2" fill="#212121" />
<rect x="41" y="46" width="2" height="2" fill="#000000" />
<rect x="43" y="46" width="1" height="2" fill="#212121" />
<rect x="44" y="46" width="2" height="2" fill="#000000" />
<rect x="46" y="46" width="2" height="2" fill="#212121" />
<rect x="3" y="47" width="1" height="1" fill="#000000" />
<rect x="4" y="47" width="2" height="1" fill="#131313" />
<rect x="51" y="47" width="2" height="1" fill="#212121" />
<rect x="57" y="47" width="1" height="1" fill="#212121" />
<rect x="58" y="47" width="2" height="1" fill="#131313" />
<rect x="60" y="47" width="1" height="1" fill="#000000" />
<rect x="4" y="48" width="2" height="1" fill="#000000" />
<rect x="6" y="48" width="52" height="1" fill="#131313" />
<rect x="58" y="48" width="2" height="1" fill="#000000" />
<rect x="6" y="49" width="52" height="1" fill="#000000" />
</svg>