<?xml version="1.0" encoding="UTF-8" ?>
<svg version="1.1" width="64" height="64" xmlns="http://www.w3.org/2000/svg" shape-rendering="crispEdges">
<rect x="10" y="13" width="44" height="1" fill="#000000" />
<rect x="8" y="14" width="2" height="1" fill="#000000" />
<rect x="10" y="14" width="7" height="35" fill="#639BFF" />
<rect x="17" y="14" width="1" height="23" fill="#000000" />
<rect x="18" y="14" width="5" height="23" fill="#FFFFFF" />
<rect x="23" y="14" width="1" height="19" fill="#000000" />
<rect x="24" y="14" width="16" height="19" fill="#639BFF" />
<rect x="40" y="14" width="1" height="19" fill="#000000" />
<rect x="41" y="14" width="5" height="23" fill="#FFFFFF" />
<rect x="46" y="14" width="1" height="23" fill="#000000" />
<rect x="47" y="14" width="7" height="35" fill="#639BFF" />
<rect x="54" y="14" width="2" height="1" fill="#000000" />
<rect x="7" y="15" width="1" height="1" fill="#000000" />
<rect x="8" y="15" width="2" height="33" fill="#639BFF" />
<rect x="54" y="15" width="2" height="33" fill="#639BFF" />
<rect x="56" y="15" width="1" height="1" fill="#000000" />
<rect x="6" y="16" width="1" height="2" fill="#000000" />
<rect x="7" y="16" width="1" height="31" fill="#639BFF" />
<rect x="56" y="16" width="1" height="31" fill="#639BFF" />
<rect x="57" y="16" width="1" height="2" fill="#000000" />
<rect x="5" y="18" width="1" height="27" fill="#000000" />
<rect x="6" y="18" width="1" height="27" fill="#639BFF" />
<rect x="57" y="18" width="1" height="27" fill="#639BFF" />
<rect x="58" y="18" width="1" height="27" fill="#000000" />
<rect x="23" y="33" width="1" height="8" fill="#FFFFFF" />
<rect x="24" y="33" width="1" height="2" fill="#000000" />
<rect x="25" y="33" width="14" height="2" fill="#639BFF" />
<rect x="39" y="33" width="1" height="2" fill="#000000" />
<rect x="40" y="33" width="1" height="8" fill="#FFFFFF" />
<rect x="24" y="35" width="1" height="6" fill="#FFFFFF" />
<rect x="25" y="35" width="1" height="1" fill="#000000" />
<rect x="26" y="35" width="12" height="1" fill="#639BFF" />
<rect x="38" y="35" width="1" height="1" fill="#000000" />
<rect x="39" y="35" width="1" height="6" fill="#FFFFFF" />
<rect x="25" y="36" width="1" height="5" fill="#FFFFFF" />
<rect x="26" y="36" width="2" height="1" fill="#000000" />
<rect x="28" y="36" width="8" height="1" fill="#639BFF" />
<rect x="36" y="36" width="2" height="1" fill="#000000" />
<rect x="38" y="36" width="1" height="5" fill="#FFFFFF" />
<rect x="17" y="37" width="1" height="13" fill="#639BFF" />
<rect x="18" y="37" width="1" height="2" fill="#000000" />
<rect x="19" y="37" width="4" height="2" fill="#FFFFFF" />
<rect x="26" y="37" width="2" height="5" fill="#FFFFFF" />
<rect x="28" y="37" width="8" height="1" fill="#000000" />
<rect x="36" y="37" width="2" height="5" fill="#FFFFFF" />
<rect x="41" y="37" width="4" height="2" fill="#FFFFFF" />
<rect x="45" y="37" width="1" height="2" fill="#000000" />
<rect x="46" y="37" width="1" height="13" fill="#639BFF" />
<rect x="28" y="38" width="8" height="4" fill="#FFFFFF" />
<rect x="18" y="39" width="1" height="11" fill="#639BFF" />
<rect x="19" y="39" width="1" height="1" fill="#000000" />
<rect x="20" y="39" width="3" height="1" fill="#FFFFFF" />
<rect x="41" y="39" width="3" height="1" fill="#FFFFFF" />
<rect x="44" y="39" width="1" height="1" fill="#000000" />
<rect x="45" y="39" width="1" height="11" fill="#639BFF" />
<rect x="19" y="40" width="1" height="10" fill="#639BFF" />
<rect x="20" y="40" width="2" height="1" fill="#000000" />
<rect x="22" y="40" width="1" height="1" fill="#FFFFFF" />
<rect x="41" y="40" width="1" height="1" fill="#FFFFFF" />
<rect x="42" y="40" width="2" height="1" fill="#000000" />
<rect x="44" y="40" width="1" height="10" fill="#639BFF" />
<rect x="20" y="41" width="2" height="9" fill="#639BFF" />
<rect x="22" y="41" width="4" height="1" fill="#000000" />
<rect x="38" y="41" width="4" height="1" fill="#000000" />
<rect x="42" y="41" width="2" height="9" fill="#639BFF" />
<rect x="22" y="42" width="4" height="8" fill="#639BFF" />
<rect x="26" y="42" width="12" height="1" fill="#000000" />
<rect x="38" y="42" width="4" height="8" fill="#639BFF" />
<rect x="26" y="43" width="12" height="7" fill="#639BFF" />
<rect x="6" y="45" width="1" height="2" fill="#000000" />
<rect x="57" y="45" width="1" height="2" fill="#000000" />
<rect x="7" y="47" width="1" height="1" fill="#000000" />
<rect x="56" y="47" width="1" height="1" fill="#000000" />
<rect x="8" y="48" width="2" height="1" fill="#000000" />
<rect x="54" y="48" width="2" height="1" fill="#000000" />
<rect x="10" y="49" width="3" height="1" fill="#000000" />
<rect x="13" y="49" width="4" height="1" fill="#639BFF" />
<rect x="47" y="49" width="4" height="1" fill="#639BFF" />
<rect x="51" y="49" width="3" height="1" fill="#000000" />
<rect x="12" y="50" width="40" height="1" fill="#000000" />
</svg>