<?xml version="1.0" encoding="UTF-8" ?>
<svg version="1.1" width="64" height="64" xmlns="http://www.w3.org/2000/svg" shape-rendering="crispEdges">
<rect x="5" y="16" width="54" height="1" fill="#000000" />
<rect x="4" y="17" width="1" height="37" fill="#000000" />
<rect x="5" y="17" width="21" height="1" fill="#3C3939" />
<rect x="26" y="17" width="1" height="1" fill="#000000" />
<rect x="27" y="17" width="10" height="1" fill="#343030" />
<rect x="37" y="17" width="1" height="1" fill="#000000" />
<rect x="38" y="17" width="21" height="1" fill="#3C3939" />
<rect x="59" y="17" width="1" height="37" fill="#000000" />
<rect x="5" y="18" width="1" height="1" fill="#3C3939" />
<rect x="6" y="18" width="20" height="1" fill="#312C2C" />
<rect x="26" y="18" width="1" height="1" fill="#3C3939" />
<rect x="27" y="18" width="1" height="1" fill="#000000" />
<rect x="28" y="18" width="1" height="1" fill="#1B1919" />
<rect x="29" y="18" width="6" height="1" fill="#242020" />
<rect x="35" y="18" width="1" height="1" fill="#1B1919" />
<rect x="36" y="18" width="1" height="1" fill="#000000" />
<rect x="37" y="18" width="1" height="1" fill="#3C3939" />
<rect x="38" y="18" width="20" height="1" fill="#312C2C" />
<rect x="58" y="18" width="1" height="1" fill="#3C3939" />
<rect x="5" y="19" width="1" height="1" fill="#000000" />
<rect x="6" y="19" width="1" height="1" fill="#3C3939" />
<rect x="7" y="19" width="20" height="1" fill="#312C2C" />
<rect x="27" y="19" width="1" height="1" fill="#3C3939" />
<rect x="28" y="19" width="1" height="1" fill="#000000" />
<rect x="29" y="19" width="1" height="1" fill="#1B1919" />
<rect x="30" y="19" width="4" height="1" fill="#242020" />
<rect x="34" y="19" width="1" height="1" fill="#1B1919" />
<rect x="35" y="19" width="1" height="1" fill="#000000" />
<rect x="36" y="19" width="1" height="1" fill="#3C3939" />
<rect x="37" y="19" width="20" height="1" fill="#312C2C" />
<rect x="57" y="19" width="1" height="1" fill="#3C3939" />
<rect x="58" y="19" width="1" height="1" fill="#000000" />
<rect x="5" y="20" width="1" height="1" fill="#161313" />
<rect x="6" y="20" width="1" height="1" fill="#000000" />
<rect x="7" y="20" width="1" height="1" fill="#3C3939" />
<rect x="8" y="20" width="20" height="1" fill="#312C2C" />
<rect x="28" y="20" width="1" height="1" fill="#3C3939" />
<rect x="29" y="20" width="1" height="1" fill="#000000" />
<rect x="30" y="20" width="1" height="1" fill="#1B1919" />
<rect x="31" y="20" width="2" height="1" fill="#242020" />
<rect x="33" y="20" width="1" height="1" fill="#1B1919" />
<rect x="34" y="20" width="1" height="1" fill="#000000" />
<rect x="35" y="20" width="1" height="1" fill="#3C3939" />
<rect x="36" y="20" width="20" height="1" fill="#312C2C" />
<rect x="56" y="20" width="1" height="1" fill="#3C3939" />
<rect x="57" y="20" width="1" height="1" fill="#000000" />
<rect x="58" y="20" width="1" height="1" fill="#161313" />
<rect x="5" y="21" width="2" height="1" fill="#3A3636" />
<rect x="7" y="21" width="1" height="1" fill="#000000" />
<rect x="8" y="21" width="1" height="1" fill="#3C3939" />
<rect x="9" y="21" width="20" height="1" fill="#312C2C" />
<rect x="29" y="21" width="1" height="1" fill="#3C3939" />
<rect x="30" y="21" width="1" height="1" fill="#000000" />
<rect x="31" y="21" width="2" height="1" fill="#1B1919" />
<rect x="33" y="21" width="1" height="1" fill="#000000" />
<rect x="34" y="21" width="1" height="1" fill="#3C3939" />
<rect x="35" y="21" width="20" height="1" fill="#312C2C" />
<rect x="55" y="21" width="1" height="1" fill="#3C3939" />
<rect x="56" y="21" width="1" height="1" fill="#000000" />
<rect x="57" y="21" width="2" height="1" fill="#3A3636" />
<rect x="5" y="22" width="2" height="1" fill="#242121" />
<rect x="7" y="22" width="1" height="1" fill="#161313" />
<rect x="8" y="22" width="1" height="1" fill="#000000" />
<rect x="9" y="22" width="1" height="1" fill="#3C3939" />
<rect x="10" y="22" width="20" height="1" fill="#312C2C" />
<rect x="30" y="22" width="1" height="1" fill="#3C3939" />
<rect x="31" y="22" width="2" height="1" fill="#000000" />
<rect x="33" y="22" width="1" height="1" fill="#3C3939" />
<rect x="34" y="22" width="20" height="1" fill="#312C2C" />
<rect x="54" y="22" width="1" height="1" fill="#3C3939" />
<rect x="55" y="22" width="1" height="1" fill="#000000" />
<rect x="56" y="22" width="1" height="1" fill="#161313" />
<rect x="57" y="22" width="2" height="1" fill="#242121" />
<rect x="5" y="23" width="3" height="1" fill="#242020" />
<rect x="8" y="23" width="1" height="1" fill="#161313" />
<rect x="9" y="23" width="1" height="1" fill="#000000" />
<rect x="10" y="23" width="1" height="1" fill="#3C3939" />
<rect x="11" y="23" width="20" height="1" fill="#312C2C" />
<rect x="31" y="23" width="2" height="1" fill="#3C3939" />
<rect x="33" y="23" width="20" height="1" fill="#312C2C" />
<rect x="53" y="23" width="1" height="1" fill="#3C3939" />
<rect x="54" y="23" width="1" height="1" fill="#000000" />
<rect x="55" y="23" width="1" height="1" fill="#161313" />
<rect x="56" y="23" width="3" height="1" fill="#242020" />
<rect x="5" y="24" width="5" height="1" fill="#3A3636" />
<rect x="10" y="24" width="1" height="1" fill="#000000" />
<rect x="11" y="24" width="1" height="1" fill="#3C3939" />
<rect x="12" y="24" width="40" height="1" fill="#312C2C" />
<rect x="52" y="24" width="1" height="1" fill="#3C3939" />
<rect x="53" y="24" width="1" height="1" fill="#000000" />
<rect x="54" y="24" width="5" height="1" fill="#3A3636" />
<rect x="5" y="25" width="5" height="1" fill="#242121" />
<rect x="10" y="25" width="1" height="1" fill="#161313" />
<rect x="11" y="25" width="1" height="1" fill="#000000" />
<rect x="12" y="25" width="1" height="1" fill="#3C3939" />
<rect x="13" y="25" width="17" height="1" fill="#312C2C" />
<rect x="30" y="25" width="4" height="1" fill="#000000" />
<rect x="34" y="25" width="17" height="1" fill="#312C2C" />
<rect x="51" y="25" width="1" height="1" fill="#3C3939" />
<rect x="52" y="25" width="1" height="1" fill="#000000" />
<rect x="53" y="25" width="1" height="1" fill="#161313" />
<rect x="54" y="25" width="5" height="1" fill="#242121" />
<rect x="5" y="26" width="6" height="1" fill="#242020" />
<rect x="11" y="26" width="1" height="1" fill="#161313" />
<rect x="12" y="26" width="1" height="1" fill="#000000" />
<rect x="13" y="26" width="1" height="1" fill="#3C3939" />
<rect x="14" y="26" width="14" height="1" fill="#312C2C" />
<rect x="28" y="26" width="2" height="1" fill="#000000" />
<rect x="30" y="26" width="4" height="1" fill="#87C051" />
<rect x="34" y="26" width="2" height="1" fill="#000000" />
<rect x="36" y="26" width="14" height="1" fill="#312C2C" />
<rect x="50" y="26" width="1" height="1" fill="#3C3939" />
<rect x="51" y="26" width="1" height="1" fill="#000000" />
<rect x="52" y="26" width="1" height="1" fill="#161313" />
<rect x="53" y="26" width="6" height="1" fill="#242020" />
<rect x="5" y="27" width="7" height="1" fill="#3A3636" />
<rect x="12" y="27" width="1" height="1" fill="#211E1E" />
<rect x="13" y="27" width="1" height="1" fill="#000000" />
<rect x="14" y="27" width="1" height="1" fill="#3C3939" />
<rect x="15" y="27" width="12" height="1" fill="#312C2C" />
<rect x="27" y="27" width="1" height="1" fill="#000000" />
<rect x="28" y="27" width="2" height="1" fill="#87C051" />
<rect x="30" y="27" width="4" height="10" fill="#76AF40" />
<rect x="34" y="27" width="2" height="1" fill="#87C051" />
<rect x="36" y="27" width="1" height="1" fill="#000000" />
<rect x="37" y="27" width="12" height="1" fill="#312C2C" />
<rect x="49" y="27" width="1" height="1" fill="#3C3939" />
<rect x="50" y="27" width="1" height="1" fill="#000000" />
<rect x="51" y="27" width="1" height="1" fill="#211E1E" />
<rect x="52" y="27" width="7" height="1" fill="#3A3636" />
<rect x="5" y="28" width="8" height="1" fill="#242121" />
<rect x="13" y="28" width="1" height="1" fill="#161313" />
<rect x="14" y="28" width="1" height="1" fill="#000000" />
<rect x="15" y="28" width="1" height="1" fill="#3C3939" />
<rect x="16" y="28" width="10" height="1" fill="#312C2C" />
<rect x="26" y="28" width="1" height="2" fill="#000000" />
<rect x="27" y="28" width="1" height="2" fill="#87C051" />
<rect x="28" y="28" width="2" height="8" fill="#76AF40" />
<rect x="34" y="28" width="2" height="8" fill="#76AF40" />
<rect x="36" y="28" width="1" height="2" fill="#87C051" />
<rect x="37" y="28" width="1" height="2" fill="#000000" />
<rect x="38" y="28" width="10" height="1" fill="#312C2C" />
<rect x="48" y="28" width="1" height="1" fill="#3C3939" />
<rect x="49" y="28" width="1" height="1" fill="#000000" />
<rect x="50" y="28" width="1" height="1" fill="#161313" />
<rect x="51" y="28" width="8" height="1" fill="#242121" />
<rect x="5" y="29" width="9" height="1" fill="#242020" />
<rect x="14" y="29" width="1" height="1" fill="#161313" />
<rect x="15" y="29" width="1" height="1" fill="#000000" />
<rect x="16" y="29" width="1" height="1" fill="#3C3939" />
<rect x="17" y="29" width="9" height="1" fill="#312C2C" />
<rect x="38" y="29" width="9" height="1" fill="#312C2C" />
<rect x="47" y="29" width="1" height="1" fill="#3C3939" />
<rect x="48" y="29" width="1" height="1" fill="#000000" />
<rect x="49" y="29" width="1" height="1" fill="#161313" />
<rect x="50" y="29" width="9" height="1" fill="#242020" />
<rect x="5" y="30" width="10" height="1" fill="#3A3636" />
<rect x="15" y="30" width="1" height="1" fill="#211E1E" />
<rect x="16" y="30" width="1" height="1" fill="#000000" />
<rect x="17" y="30" width="1" height="1" fill="#3C3939" />
<rect x="18" y="30" width="7" height="1" fill="#312C2C" />
<rect x="25" y="30" width="1" height="4" fill="#000000" />
<rect x="26" y="30" width="1" height="4" fill="#87C051" />
<rect x="27" y="30" width="1" height="4" fill="#76AF40" />
<rect x="36" y="30" width="1" height="4" fill="#76AF40" />
<rect x="37" y="30" width="1" height="4" fill="#87C051" />
<rect x="38" y="30" width="1" height="4" fill="#000000" />
<rect x="39" y="30" width="7" height="1" fill="#312C2C" />
<rect x="46" y="30" width="1" height="1" fill="#3C3939" />
<rect x="47" y="30" width="1" height="1" fill="#000000" />
<rect x="48" y="30" width="1" height="1" fill="#211E1E" />
<rect x="49" y="30" width="10" height="1" fill="#3A3636" />
<rect x="5" y="31" width="11" height="1" fill="#242121" />
<rect x="16" y="31" width="1" height="2" fill="#161313" />
<rect x="17" y="31" width="1" height="2" fill="#000000" />
<rect x="18" y="31" width="1" height="1" fill="#3C3939" />
<rect x="19" y="31" width="6" height="15" fill="#312C2C" />
<rect x="39" y="31" width="6" height="15" fill="#312C2C" />
<rect x="45" y="31" width="1" height="1" fill="#3C3939" />
<rect x="46" y="31" width="1" height="2" fill="#000000" />
<rect x="47" y="31" width="1" height="2" fill="#161313" />
<rect x="48" y="31" width="11" height="1" fill="#242121" />
<rect x="5" y="32" width="11" height="1" fill="#242020" />
<rect x="18" y="32" width="1" height="1" fill="#262222" />
<rect x="45" y="32" width="1" height="1" fill="#262222" />
<rect x="48" y="32" width="11" height="1" fill="#242020" />
<rect x="5" y="33" width="11" height="1" fill="#3A3636" />
<rect x="16" y="33" width="1" height="1" fill="#000000" />
<rect x="17" y="33" width="1" height="1" fill="#262222" />
<rect x="18" y="33" width="1" height="13" fill="#312C2C" />
<rect x="45" y="33" width="1" height="13" fill="#312C2C" />
<rect x="46" y="33" width="1" height="1" fill="#262222" />
<rect x="47" y="33" width="1" height="1" fill="#000000" />
<rect x="48" y="33" width="11" height="1" fill="#3A3636" />
<rect x="5" y="34" width="10" height="1" fill="#242121" />
<rect x="15" y="34" width="1" height="1" fill="#000000" />
<rect x="16" y="34" width="1" height="1" fill="#262222" />
<rect x="17" y="34" width="1" height="12" fill="#312C2C" />
<rect x="25" y="34" width="1" height="12" fill="#312C2C" />
<rect x="26" y="34" width="1" height="2" fill="#000000" />
<rect x="27" y="34" width="1" height="2" fill="#6B9742" />
<rect x="36" y="34" width="1" height="2" fill="#6B9742" />
<rect x="37" y="34" width="1" height="2" fill="#000000" />
<rect x="38" y="34" width="1" height="12" fill="#312C2C" />
<rect x="46" y="34" width="1" height="12" fill="#312C2C" />
<rect x="47" y="34" width="1" height="1" fill="#262222" />
<rect x="48" y="34" width="1" height="1" fill="#000000" />
<rect x="49" y="34" width="10" height="1" fill="#242121" />
<rect x="5" y="35" width="9" height="1" fill="#242020" />
<rect x="14" y="35" width="1" height="1" fill="#000000" />
<rect x="15" y="35" width="1" height="1" fill="#262222" />
<rect x="16" y="35" width="1" height="11" fill="#312C2C" />
<rect x="47" y="35" width="1" height="11" fill="#312C2C" />
<rect x="48" y="35" width="1" height="1" fill="#262222" />
<rect x="49" y="35" width="1" height="1" fill="#000000" />
<rect x="50" y="35" width="9" height="1" fill="#242020" />
<rect x="5" y="36" width="8" height="1" fill="#3A3636" />
<rect x="13" y="36" width="1" height="1" fill="#000000" />
<rect x="14" y="36" width="1" height="1" fill="#262222" />
<rect x="15" y="36" width="1" height="10" fill="#312C2C" />
<rect x="26" y="36" width="1" height="9" fill="#312C2C" />
<rect x="27" y="36" width="1" height="1" fill="#000000" />
<rect x="28" y="36" width="2" height="1" fill="#6B9742" />
<rect x="34" y="36" width="2" height="1" fill="#6B9742" />
<rect x="36" y="36" width="1" height="1" fill="#000000" />
<rect x="37" y="36" width="1" height="9" fill="#312C2C" />
<rect x="48" y="36" width="1" height="10" fill="#312C2C" />
<rect x="49" y="36" width="1" height="1" fill="#262222" />
<rect x="50" y="36" width="1" height="1" fill="#000000" />
<rect x="51" y="36" width="8" height="1" fill="#3A3636" />
<rect x="5" y="37" width="7" height="1" fill="#242121" />
<rect x="12" y="37" width="1" height="1" fill="#000000" />
<rect x="13" y="37" width="1" height="1" fill="#262222" />
<rect x="14" y="37" width="1" height="9" fill="#312C2C" />
<rect x="27" y="37" width="1" height="7" fill="#312C2C" />
<rect x="28" y="37" width="2" height="1" fill="#000000" />
<rect x="30" y="37" width="4" height="1" fill="#6B9742" />
<rect x="34" y="37" width="2" height="1" fill="#000000" />
<rect x="36" y="37" width="1" height="7" fill="#312C2C" />
<rect x="49" y="37" width="1" height="9" fill="#312C2C" />
<rect x="50" y="37" width="1" height="1" fill="#262222" />
<rect x="51" y="37" width="1" height="1" fill="#000000" />
<rect x="52" y="37" width="7" height="1" fill="#242121" />
<rect x="5" y="38" width="6" height="1" fill="#242020" />
<rect x="11" y="38" width="1" height="1" fill="#000000" />
<rect x="12" y="38" width="1" height="1" fill="#262222" />
<rect x="13" y="38" width="1" height="8" fill="#312C2C" />
<rect x="28" y="38" width="2" height="4" fill="#312C2C" />
<rect x="30" y="38" width="4" height="1" fill="#000000" />
<rect x="34" y="38" width="2" height="4" fill="#312C2C" />
<rect x="50" y="38" width="1" height="8" fill="#312C2C" />
<rect x="51" y="38" width="1" height="1" fill="#262222" />
<rect x="52" y="38" width="1" height="1" fill="#000000" />
<rect x="53" y="38" width="6" height="1" fill="#242020" />
<rect x="5" y="39" width="5" height="1" fill="#3A3636" />
<rect x="10" y="39" width="1" height="1" fill="#000000" />
<rect x="11" y="39" width="1" height="1" fill="#262222" />
<rect x="12" y="39" width="1" height="7" fill="#312C2C" />
<rect x="30" y="39" width="4" height="1" fill="#312C2C" />
<rect x="51" y="39" width="1" height="7" fill="#312C2C" />
<rect x="52" y="39" width="1" height="1" fill="#262222" />
<rect x="53" y="39" width="1" height="1" fill="#000000" />
<rect x="54" y="39" width="5" height="1" fill="#3A3636" />
<rect x="5" y="40" width="4" height="1" fill="#242121" />
<rect x="9" y="40" width="1" height="1" fill="#000000" />
<rect x="10" y="40" width="1" height="1" fill="#262222" />
<rect x="11" y="40" width="1" height="6" fill="#312C2C" />
<rect x="30" y="40" width="1" height="1" fill="#312C2C" />
<rect x="31" y="40" width="2" height="1" fill="#262222" />
<rect x="33" y="40" width="1" height="1" fill="#312C2C" />
<rect x="52" y="40" width="1" height="6" fill="#312C2C" />
<rect x="53" y="40" width="1" height="1" fill="#262222" />
<rect x="54" y="40" width="1" height="1" fill="#000000" />
<rect x="55" y="40" width="4" height="1" fill="#242121" />
<rect x="5" y="41" width="3" height="1" fill="#242020" />
<rect x="8" y="41" width="1" height="1" fill="#000000" />
<rect x="9" y="41" width="1" height="1" fill="#262222" />
<rect x="10" y="41" width="1" height="5" fill="#312C2C" />
<rect x="30" y="41" width="1" height="1" fill="#262222" />
<rect x="31" y="41" width="2" height="1" fill="#000000" />
<rect x="33" y="41" width="1" height="1" fill="#262222" />
<rect x="53" y="41" width="1" height="5" fill="#312C2C" />
<rect x="54" y="41" width="1" height="1" fill="#262222" />
<rect x="55" y="41" width="1" height="1" fill="#000000" />
<rect x="56" y="41" width="3" height="1" fill="#242020" />
<rect x="5" y="42" width="2" height="1" fill="#3A3636" />
<rect x="7" y="42" width="1" height="1" fill="#000000" />
<rect x="8" y="42" width="1" height="1" fill="#262222" />
<rect x="9" y="42" width="1" height="4" fill="#312C2C" />
<rect x="28" y="42" width="1" height="1" fill="#312C2C" />
<rect x="29" y="42" width="1" height="1" fill="#262222" />
<rect x="30" y="42" width="1" height="1" fill="#000000" />
<rect x="31" y="42" width="2" height="1" fill="#161313" />
<rect x="33" y="42" width="1" height="1" fill="#000000" />
<rect x="34" y="42" width="1" height="1" fill="#262222" />
<rect x="35" y="42" width="1" height="1" fill="#312C2C" />
<rect x="54" y="42" width="1" height="4" fill="#312C2C" />
<rect x="55" y="42" width="1" height="1" fill="#262222" />
<rect x="56" y="42" width="1" height="1" fill="#000000" />
<rect x="57" y="42" width="2" height="1" fill="#3A3636" />
<rect x="5" y="43" width="1" height="1" fill="#242121" />
<rect x="6" y="43" width="1" height="1" fill="#000000" />
<rect x="7" y="43" width="1" height="1" fill="#262222" />
<rect x="8" y="43" width="1" height="3" fill="#312C2C" />
<rect x="28" y="43" width="1" height="1" fill="#262222" />
<rect x="29" y="43" width="1" height="1" fill="#000000" />
<rect x="30" y="43" width="1" height="1" fill="#161313" />
<rect x="31" y="43" width="2" height="3" fill="#242020" />
<rect x="33" y="43" width="1" height="1" fill="#161313" />
<rect x="34" y="43" width="1" height="1" fill="#000000" />
<rect x="35" y="43" width="1" height="1" fill="#262222" />
<rect x="55" y="43" width="1" height="3" fill="#312C2C" />
<rect x="56" y="43" width="1" height="1" fill="#262222" />
<rect x="57" y="43" width="1" height="1" fill="#000000" />
<rect x="58" y="43" width="1" height="1" fill="#242121" />
<rect x="5" y="44" width="1" height="1" fill="#000000" />
<rect x="6" y="44" width="1" height="1" fill="#262222" />
<rect x="7" y="44" width="1" height="2" fill="#312C2C" />
<rect x="27" y="44" width="1" height="1" fill="#262222" />
<rect x="28" y="44" width="1" height="1" fill="#000000" />
<rect x="29" y="44" width="1" height="1" fill="#161313" />
<rect x="30" y="44" width="1" height="2" fill="#242020" />
<rect x="33" y="44" width="1" height="2" fill="#242020" />
<rect x="34" y="44" width="1" height="1" fill="#161313" />
<rect x="35" y="44" width="1" height="1" fill="#000000" />
<rect x="36" y="44" width="1" height="1" fill="#262222" />
<rect x="56" y="44" width="1" height="2" fill="#312C2C" />
<rect x="57" y="44" width="1" height="1" fill="#262222" />
<rect x="58" y="44" width="1" height="1" fill="#000000" />
<rect x="5" y="45" width="1" height="1" fill="#262222" />
<rect x="6" y="45" width="1" height="1" fill="#312C2C" />
<rect x="26" y="45" width="1" height="1" fill="#262222" />
<rect x="27" y="45" width="1" height="1" fill="#000000" />
<rect x="28" y="45" width="1" height="1" fill="#161313" />
<rect x="29" y="45" width="1" height="1" fill="#242020" />
<rect x="34" y="45" width="1" height="1" fill="#242020" />
<rect x="35" y="45" width="1" height="1" fill="#161313" />
<rect x="36" y="45" width="1" height="1" fill="#000000" />
<rect x="37" y="45" width="1" height="1" fill="#262222" />
<rect x="57" y="45" width="1" height="1" fill="#312C2C" />
<rect x="58" y="45" width="1" height="1" fill="#262222" />
<rect x="5" y="46" width="1" height="2" fill="#3F3A3A" />
<rect x="6" y="46" width="20" height="1" fill="#262222" />
<rect x="26" y="46" width="12" height="1" fill="#3F3A3A" />
<rect x="38" y="46" width="20" height="1" fill="#262222" />
<rect x="58" y="46" width="1" height="2" fill="#3F3A3A" />
<rect x="6" y="47" width="20" height="1" fill="#3F3A3A" />
<rect x="26" y="47" width="1" height="7" fill="#1B1919" />
<rect x="27" y="47" width="10" height="1" fill="#292626" />
<rect x="37" y="47" width="1" height="7" fill="#1B1919" />
<rect x="38" y="47" width="20" height="1" fill="#3F3A3A" />
<rect x="5" y="48" width="21" height="1" fill="#292626" />
<rect x="27" y="48" width="10" height="1" fill="#1E1B1B" />
<rect x="38" y="48" width="21" height="1" fill="#292626" />
<rect x="5" y="49" width="1" height="4" fill="#292626" />
<rect x="6" y="49" width="1" height="1" fill="#1E1B1B" />
<rect x="7" y="49" width="5" height="1" fill="#48494A" />
<rect x="12" y="49" width="14" height="1" fill="#1E1B1B" />
<rect x="27" y="49" width="4" height="4" fill="#242020" />
<rect x="31" y="49" width="2" height="2" fill="#48494A" />
<rect x="33" y="49" width="4" height="4" fill="#242020" />
<rect x="38" y="49" width="20" height="1" fill="#1E1B1B" />
<rect x="58" y="49" width="1" height="4" fill="#292626" />
<rect x="6" y="50" width="20" height="1" fill="#242020" />
<rect x="38" y="50" width="20" height="1" fill="#242020" />
<rect x="6" y="51" width="4" height="1" fill="#242020" />
<rect x="10" y="51" width="2" height="2" fill="#131111" />
<rect x="12" y="51" width="8" height="1" fill="#242020" />
<rect x="20" y="51" width="2" height="2" fill="#131111" />
<rect x="22" y="51" width="4" height="1" fill="#242020" />
<rect x="31" y="51" width="2" height="1" fill="#242020" />
<rect x="38" y="51" width="4" height="1" fill="#242020" />
<rect x="42" y="51" width="2" height="2" fill="#131111" />
<rect x="44" y="51" width="8" height="1" fill="#242020" />
<rect x="52" y="51" width="2" height="2" fill="#131111" />
<rect x="54" y="51" width="4" height="1" fill="#242020" />
<rect x="6" y="52" width="3" height="1" fill="#242020" />
<rect x="9" y="52" width="1" height="1" fill="#131111" />
<rect x="12" y="52" width="1" height="1" fill="#131111" />
<rect x="13" y="52" width="6" height="1" fill="#242020" />
<rect x="19" y="52" width="1" height="1" fill="#131111" />
<rect x="22" y="52" width="1" height="1" fill="#131111" />
<rect x="23" y="52" width="3" height="1" fill="#242020" />
<rect x="31" y="52" width="2" height="1" fill="#48494A" />
<rect x="38" y="52" width="3" height="1" fill="#242020" />
<rect x="41" y="52" width="1" height="1" fill="#131111" />
<rect x="44" y="52" width="1" height="1" fill="#131111" />
<rect x="45" y="52" width="6" height="1" fill="#242020" />
<rect x="51" y="52" width="1" height="1" fill="#131111" />
<rect x="54" y="52" width="1" height="1" fill="#131111" />
<rect x="55" y="52" width="3" height="1" fill="#242020" />
<rect x="5" y="53" width="21" height="1" fill="#1E1C1C" />
<rect x="27" y="53" width="10" height="1" fill="#1E1C1C" />
<rect x="38" y="53" width="21" height="1" fill="#1E1C1C" />
<rect x="5" y="54" width="54" height="1" fill="#000000" />
</svg>