<?xml version="1.0" encoding="UTF-8" ?>
<svg version="1.1" width="64" height="64" xmlns="http://www.w3.org/2000/svg" shape-rendering="crispEdges">
<rect x="29" y="2" width="14" height="1" fill="#000000" />
<rect x="28" y="3" width="1" height="1" fill="#000000" />
<rect x="29" y="3" width="13" height="1" fill="#262222" />
<rect x="42" y="3" width="2" height="1" fill="#000000" />
<rect x="27" y="4" width="1" height="1" fill="#000000" />
<rect x="28" y="4" width="1" height="2" fill="#454141" />
<rect x="29" y="4" width="11" height="1" fill="#2C2828" />
<rect x="40" y="4" width="1" height="1" fill="#343030" />
<rect x="41" y="4" width="1" height="1" fill="#000000" />
<rect x="42" y="4" width="1" height="2" fill="#262222" />
<rect x="43" y="4" width="1" height="14" fill="#000000" />
<rect x="26" y="5" width="1" height="2" fill="#000000" />
<rect x="27" y="5" width="1" height="3" fill="#454141" />
<rect x="29" y="5" width="11" height="1" fill="#343030" />
<rect x="40" y="5" width="1" height="1" fill="#000000" />
<rect x="41" y="5" width="1" height="2" fill="#262222" />
<rect x="28" y="6" width="10" height="2" fill="#3F3A3A" />
<rect x="38" y="6" width="1" height="1" fill="#3A3535" />
<rect x="39" y="6" width="1" height="4" fill="#000000" />
<rect x="40" y="6" width="1" height="2" fill="#262222" />
<rect x="42" y="6" width="1" height="1" fill="#000000" />
<rect x="25" y="7" width="1" height="1" fill="#000000" />
<rect x="26" y="7" width="1" height="1" fill="#4A4343" />
<rect x="38" y="7" width="1" height="2" fill="#4A4343" />
<rect x="41" y="7" width="1" height="1" fill="#000000" />
<rect x="42" y="7" width="1" height="1" fill="#96A0A5" />
<rect x="23" y="8" width="2" height="1" fill="#000000" />
<rect x="25" y="8" width="2" height="4" fill="#3F3A3A" />
<rect x="27" y="8" width="11" height="1" fill="#4A4343" />
<rect x="40" y="8" width="1" height="1" fill="#000000" />
<rect x="41" y="8" width="1" height="1" fill="#96A0A5" />
<rect x="42" y="8" width="1" height="10" fill="#859197" />
<rect x="22" y="9" width="1" height="1" fill="#000000" />
<rect x="23" y="9" width="2" height="2" fill="#3F3A3A" />
<rect x="27" y="9" width="12" height="1" fill="#3F3A3A" />
<rect x="40" y="9" width="1" height="1" fill="#96A0A5" />
<rect x="41" y="9" width="1" height="1" fill="#A8AFB2" />
<rect x="21" y="10" width="1" height="1" fill="#000000" />
<rect x="22" y="10" width="1" height="1" fill="#3F3A3A" />
<rect x="27" y="10" width="11" height="1" fill="#3F3A3A" />
<rect x="38" y="10" width="1" height="1" fill="#000000" />
<rect x="39" y="10" width="1" height="1" fill="#96A0A5" />
<rect x="40" y="10" width="1" height="1" fill="#A8AFB2" />
<rect x="41" y="10" width="1" height="1" fill="#99A2A7" />
<rect x="20" y="11" width="1" height="2" fill="#000000" />
<rect x="21" y="11" width="3" height="1" fill="#312D2D" />
<rect x="24" y="11" width="1" height="1" fill="#3F3A3A" />
<rect x="27" y="11" width="3" height="1" fill="#3F3A3A" />
<rect x="30" y="11" width="7" height="1" fill="#312D2D" />
<rect x="37" y="11" width="1" height="1" fill="#000000" />
<rect x="38" y="11" width="1" height="1" fill="#96A0A5" />
<rect x="39" y="11" width="1" height="1" fill="#A8AFB2" />
<rect x="40" y="11" width="1" height="1" fill="#99A2A7" />
<rect x="41" y="11" width="1" height="1" fill="#A8AFB2" />
<rect x="19" y="12" width="1" height="1" fill="#000000" />
<rect x="21" y="12" width="3" height="1" fill="#000000" />
<rect x="24" y="12" width="6" height="1" fill="#312D2D" />
<rect x="30" y="12" width="7" height="1" fill="#000000" />
<rect x="37" y="12" width="1" height="1" fill="#96A0A5" />
<rect x="38" y="12" width="1" height="1" fill="#A8AFB2" />
<rect x="39" y="12" width="1" height="1" fill="#99A2A7" />
<rect x="40" y="12" width="1" height="1" fill="#A8AFB2" />
<rect x="41" y="12" width="1" height="1" fill="#99A2A7" />
<rect x="18" y="13" width="1" height="16" fill="#000000" />
<rect x="19" y="13" width="5" height="1" fill="#D1DBE1" />
<rect x="24" y="13" width="6" height="1" fill="#000000" />
<rect x="30" y="13" width="4" height="1" fill="#D1DBE1" />
<rect x="34" y="13" width="1" height="16" fill="#AFBAC0" />
<rect x="35" y="13" width="1" height="16" fill="#000000" />
<rect x="36" y="13" width="1" height="16" fill="#919CA2" />
<rect x="37" y="13" width="1" height="1" fill="#A8AFB2" />
<rect x="38" y="13" width="1" height="1" fill="#99A2A7" />
<rect x="39" y="13" width="1" height="1" fill="#A8AFB2" />
<rect x="40" y="13" width="1" height="1" fill="#99A2A7" />
<rect x="41" y="13" width="1" height="1" fill="#A8AFB2" />
<rect x="19" y="14" width="1" height="15" fill="#D1DBE1" />
<rect x="20" y="14" width="4" height="15" fill="#C7CFD3" />
<rect x="24" y="14" width="6" height="1" fill="#D1DBE1" />
<rect x="30" y="14" width="4" height="3" fill="#C7CFD3" />
<rect x="37" y="14" width="1" height="1" fill="#99A2A7" />
<rect x="38" y="14" width="1" height="1" fill="#A8AFB2" />
<rect x="39" y="14" width="1" height="1" fill="#99A2A7" />
<rect x="40" y="14" width="1" height="1" fill="#A8AFB2" />
<rect x="41" y="14" width="1" height="1" fill="#99A2A7" />
<rect x="24" y="15" width="6" height="3" fill="#C7CFD3" />
<rect x="37" y="15" width="1" height="1" fill="#A8AFB2" />
<rect x="38" y="15" width="1" height="1" fill="#99A2A7" />
<rect x="39" y="15" width="1" height="1" fill="#A8AFB2" />
<rect x="40" y="15" width="1" height="1" fill="#99A2A7" />
<rect x="41" y="15" width="1" height="3" fill="#A8AFB2" />
<rect x="37" y="16" width="1" height="1" fill="#99A2A7" />
<rect x="38" y="16" width="1" height="1" fill="#A8AFB2" />
<rect x="39" y="16" width="1" height="1" fill="#99A2A7" />
<rect x="40" y="16" width="1" height="10" fill="#A8AFB2" />
<rect x="30" y="17" width="1" height="22" fill="#5F696E" />
<rect x="31" y="17" width="3" height="12" fill="#C7CFD3" />
<rect x="37" y="17" width="1" height="1" fill="#A8AFB2" />
<rect x="38" y="17" width="1" height="1" fill="#99A2A7" />
<rect x="39" y="17" width="1" height="9" fill="#A8AFB2" />
<rect x="24" y="18" width="1" height="2" fill="#5F696E" />
<rect x="25" y="18" width="5" height="31" fill="#C7CFD3" />
<rect x="37" y="18" width="1" height="1" fill="#99A2A7" />
<rect x="38" y="18" width="1" height="9" fill="#A8AFB2" />
<rect x="41" y="18" width="1" height="8" fill="#859197" />
<rect x="42" y="18" width="1" height="8" fill="#000000" />
<rect x="37" y="19" width="1" height="9" fill="#A8AFB2" />
<rect x="24" y="20" width="1" height="2" fill="#C7CFD3" />
<rect x="24" y="22" width="1" height="5" fill="#8A969C" />
<rect x="39" y="26" width="1" height="6" fill="#A0A9AD" />
<rect x="40" y="26" width="1" height="16" fill="#859197" />
<rect x="41" y="26" width="1" height="16" fill="#000000" />
<rect x="24" y="27" width="1" height="2" fill="#C7CFD3" />
<rect x="38" y="27" width="1" height="6" fill="#A0A9AD" />
<rect x="37" y="28" width="1" height="6" fill="#A0A9AD" />
<rect x="19" y="29" width="1" height="7" fill="#000000" />
<rect x="20" y="29" width="1" height="7" fill="#D1DBE1" />
<rect x="21" y="29" width="3" height="7" fill="#C7CFD3" />
<rect x="24" y="29" width="1" height="6" fill="#8A969C" />
<rect x="31" y="29" width="2" height="7" fill="#C7CFD3" />
<rect x="33" y="29" width="1" height="7" fill="#AFBAC0" />
<rect x="34" y="29" width="1" height="7" fill="#000000" />
<rect x="35" y="29" width="1" height="7" fill="#919CA2" />
<rect x="36" y="29" width="1" height="6" fill="#A0A9AD" />
<rect x="39" y="32" width="1" height="10" fill="#99A4AA" />
<rect x="38" y="33" width="1" height="10" fill="#99A4AA" />
<rect x="37" y="34" width="1" height="10" fill="#99A4AA" />
<rect x="24" y="35" width="1" height="2" fill="#C7CFD3" />
<rect x="36" y="35" width="1" height="10" fill="#99A4AA" />
<rect x="20" y="36" width="1" height="10" fill="#000000" />
<rect x="21" y="36" width="1" height="10" fill="#D1DBE1" />
<rect x="22" y="36" width="2" height="16" fill="#C7CFD3" />
<rect x="31" y="36" width="1" height="22" fill="#C7CFD3" />
<rect x="32" y="36" width="1" height="10" fill="#AFBAC0" />
<rect x="33" y="36" width="1" height="10" fill="#000000" />
<rect x="34" y="36" width="1" height="10" fill="#919CA2" />
<rect x="35" y="36" width="1" height="10" fill="#99A4AA" />
<rect x="24" y="37" width="1" height="2" fill="#8A969C" />
<rect x="24" y="39" width="1" height="12" fill="#C7CFD3" />
<rect x="30" y="39" width="1" height="13" fill="#C7CFD3" />
<rect x="39" y="42" width="2" height="6" fill="#A8AFB2" />
<rect x="41" y="42" width="1" height="11" fill="#859197" />
<rect x="42" y="42" width="1" height="12" fill="#000000" />
<rect x="38" y="43" width="1" height="7" fill="#A8AFB2" />
<rect x="37" y="44" width="1" height="7" fill="#A8AFB2" />
<rect x="36" y="45" width="1" height="8" fill="#A8AFB2" />
<rect x="19" y="46" width="1" height="7" fill="#000000" />
<rect x="20" y="46" width="1" height="7" fill="#D1DBE1" />
<rect x="21" y="46" width="1" height="14" fill="#C7CFD3" />
<rect x="32" y="46" width="1" height="14" fill="#C7CFD3" />
<rect x="33" y="46" width="1" height="7" fill="#AFBAC0" />
<rect x="34" y="46" width="1" height="7" fill="#000000" />
<rect x="35" y="46" width="1" height="7" fill="#919CA2" />
<rect x="39" y="48" width="1" height="1" fill="#A8AFB2" />
<rect x="40" y="48" width="1" height="1" fill="#99A2A7" />
<rect x="25" y="49" width="1" height="1" fill="#C7CFD3" />
<rect x="26" y="49" width="2" height="1" fill="#ADB8BD" />
<rect x="28" y="49" width="2" height="1" fill="#C7CFD3" />
<rect x="39" y="49" width="1" height="1" fill="#99A2A7" />
<rect x="40" y="49" width="1" height="1" fill="#A8AFB2" />
<rect x="25" y="50" width="1" height="1" fill="#ADB8BD" />
<rect x="26" y="50" width="2" height="1" fill="#61A234" />
<rect x="28" y="50" width="1" height="1" fill="#ADB8BD" />
<rect x="29" y="50" width="1" height="1" fill="#C7CFD3" />
<rect x="38" y="50" width="1" height="1" fill="#99A2A7" />
<rect x="39" y="50" width="1" height="1" fill="#A8AFB2" />
<rect x="40" y="50" width="1" height="1" fill="#99A2A7" />
<rect x="24" y="51" width="1" height="1" fill="#ADB8BD" />
<rect x="25" y="51" width="1" height="1" fill="#61A234" />
<rect x="26" y="51" width="2" height="1" fill="#C7CFD3" />
<rect x="28" y="51" width="1" height="1" fill="#61A234" />
<rect x="29" y="51" width="1" height="1" fill="#ADB8BD" />
<rect x="37" y="51" width="1" height="1" fill="#99A2A7" />
<rect x="38" y="51" width="1" height="1" fill="#A8AFB2" />
<rect x="39" y="51" width="1" height="1" fill="#99A2A7" />
<rect x="40" y="51" width="1" height="1" fill="#A8AFB2" />
<rect x="22" y="52" width="1" height="8" fill="#C7CFD3" />
<rect x="23" y="52" width="1" height="2" fill="#ADB8BD" />
<rect x="24" y="52" width="1" height="2" fill="#61A234" />
<rect x="25" y="52" width="1" height="2" fill="#C7CFD3" />
<rect x="26" y="52" width="2" height="2" fill="#99E550" />
<rect x="28" y="52" width="1" height="2" fill="#C7CFD3" />
<rect x="29" y="52" width="1" height="2" fill="#61A234" />
<rect x="30" y="52" width="1" height="2" fill="#ADB8BD" />
<rect x="37" y="52" width="1" height="1" fill="#A8AFB2" />
<rect x="38" y="52" width="1" height="1" fill="#99A2A7" />
<rect x="39" y="52" width="1" height="1" fill="#A8AFB2" />
<rect x="40" y="52" width="1" height="1" fill="#99A2A7" />
<rect x="18" y="53" width="1" height="8" fill="#000000" />
<rect x="19" y="53" width="1" height="8" fill="#D1DBE1" />
<rect x="20" y="53" width="1" height="7" fill="#C7CFD3" />
<rect x="33" y="53" width="1" height="7" fill="#C7CFD3" />
<rect x="34" y="53" width="1" height="8" fill="#AFBAC0" />
<rect x="35" y="53" width="1" height="8" fill="#000000" />
<rect x="36" y="53" width="1" height="6" fill="#919CA2" />
<rect x="37" y="53" width="1" height="1" fill="#99A2A7" />
<rect x="38" y="53" width="1" height="1" fill="#A8AFB2" />
<rect x="39" y="53" width="1" height="1" fill="#99A2A7" />
<rect x="40" y="53" width="1" height="1" fill="#A8AFB2" />
<rect x="41" y="53" width="1" height="1" fill="#8A949A" />
<rect x="23" y="54" width="1" height="4" fill="#C7CFD3" />
<rect x="24" y="54" width="1" height="1" fill="#ADB8BD" />
<rect x="25" y="54" width="1" height="1" fill="#61A234" />
<rect x="26" y="54" width="2" height="1" fill="#C7CFD3" />
<rect x="28" y="54" width="1" height="1" fill="#61A234" />
<rect x="29" y="54" width="1" height="1" fill="#ADB8BD" />
<rect x="30" y="54" width="1" height="4" fill="#C7CFD3" />
<rect x="37" y="54" width="1" height="1" fill="#A8AFB2" />
<rect x="38" y="54" width="1" height="1" fill="#99A2A7" />
<rect x="39" y="54" width="1" height="1" fill="#A8AFB2" />
<rect x="40" y="54" width="1" height="1" fill="#8A949A" />
<rect x="41" y="54" width="1" height="1" fill="#000000" />
<rect x="24" y="55" width="1" height="3" fill="#C7CFD3" />
<rect x="25" y="55" width="1" height="1" fill="#ADB8BD" />
<rect x="26" y="55" width="2" height="1" fill="#61A234" />
<rect x="28" y="55" width="1" height="1" fill="#ADB8BD" />
<rect x="29" y="55" width="1" height="3" fill="#C7CFD3" />
<rect x="37" y="55" width="1" height="1" fill="#99A2A7" />
<rect x="38" y="55" width="1" height="1" fill="#A8AFB2" />
<rect x="39" y="55" width="1" height="1" fill="#8A949A" />
<rect x="40" y="55" width="1" height="1" fill="#000000" />
<rect x="25" y="56" width="1" height="2" fill="#C7CFD3" />
<rect x="26" y="56" width="2" height="1" fill="#ADB8BD" />
<rect x="28" y="56" width="1" height="2" fill="#C7CFD3" />
<rect x="37" y="56" width="1" height="1" fill="#A8AFB2" />
<rect x="38" y="56" width="1" height="1" fill="#8A949A" />
<rect x="39" y="56" width="1" height="1" fill="#000000" />
<rect x="26" y="57" width="2" height="1" fill="#C7CFD3" />
<rect x="37" y="57" width="1" height="1" fill="#8A949A" />
<rect x="38" y="57" width="1" height="1" fill="#000000" />
<rect x="23" y="58" width="9" height="1" fill="#B2BDC3" />
<rect x="37" y="58" width="1" height="1" fill="#000000" />
<rect x="23" y="59" width="9" height="1" fill="#C7CFD3" />
<rect x="36" y="59" width="1" height="1" fill="#000000" />
<rect x="20" y="60" width="14" height="1" fill="#AFBAC0" />
<rect x="19" y="61" width="16" height="1" fill="#000000" />
</svg>