<?xml version="1.0" encoding="UTF-8" ?>
<svg version="1.1" width="64" height="64" xmlns="http://www.w3.org/2000/svg" shape-rendering="crispEdges">
<rect x="4" y="16" width="56" height="1" fill="#000000" />
<rect x="4" y="17" width="1" height="40" fill="#000000" />
<rect x="5" y="17" width="26" height="1" fill="#3A3737" />
<rect x="31" y="17" width="1" height="1" fill="#312E2E" />
<rect x="32" y="17" width="27" height="1" fill="#2F2B2B" />
<rect x="59" y="17" width="1" height="40" fill="#000000" />
<rect x="5" y="18" width="1" height="29" fill="#3A3737" />
<rect x="6" y="18" width="26" height="24" fill="#2F2D2D" />
<rect x="32" y="18" width="27" height="1" fill="#373333" />
<rect x="32" y="19" width="27" height="1" fill="#2F2B2B" />
<rect x="32" y="20" width="27" height="1" fill="#373333" />
<rect x="32" y="21" width="27" height="1" fill="#2F2B2B" />
<rect x="32" y="22" width="27" height="1" fill="#373333" />
<rect x="32" y="23" width="27" height="1" fill="#2F2B2B" />
<rect x="32" y="24" width="27" height="1" fill="#373333" />
<rect x="32" y="25" width="27" height="1" fill="#2F2B2B" />
<rect x="32" y="26" width="27" height="1" fill="#373333" />
<rect x="32" y="27" width="27" height="1" fill="#2F2B2B" />
<rect x="32" y="28" width="27" height="1" fill="#373333" />
<rect x="32" y="29" width="27" height="1" fill="#2F2B2B" />
<rect x="32" y="30" width="27" height="1" fill="#373333" />
<rect x="32" y="31" width="27" height="1" fill="#2F2B2B" />
<rect x="32" y="32" width="27" height="1" fill="#373333" />
<rect x="32" y="33" width="27" height="1" fill="#2F2D2D" />
<rect x="32" y="34" width="27" height="1" fill="#373333" />
<rect x="32" y="35" width="27" height="1" fill="#2F2D2D" />
<rect x="32" y="36" width="27" height="1" fill="#373333" />
<rect x="32" y="37" width="27" height="1" fill="#2F2D2D" />
<rect x="32" y="38" width="27" height="1" fill="#373333" />
<rect x="32" y="39" width="27" height="1" fill="#2F2D2D" />
<rect x="32" y="40" width="27" height="1" fill="#373333" />
<rect x="32" y="41" width="27" height="1" fill="#2F2D2D" />
<rect x="6" y="42" width="1" height="1" fill="#2F2D2D" />
<rect x="7" y="42" width="2" height="4" fill="#8F8F8F" />
<rect x="9" y="42" width="23" height="1" fill="#2F2D2D" />
<rect x="32" y="42" width="27" height="1" fill="#373333" />
<rect x="6" y="43" width="1" height="2" fill="#8F8F8F" />
<rect x="9" y="43" width="1" height="2" fill="#8F8F8F" />
<rect x="10" y="43" width="49" height="1" fill="#2F2D2D" />
<rect x="10" y="44" width="1" height="2" fill="#2F2D2D" />
<rect x="11" y="44" width="4" height="1" fill="#8F8F8F" />
<rect x="15" y="44" width="17" height="2" fill="#2F2D2D" />
<rect x="32" y="44" width="27" height="1" fill="#373333" />
<rect x="6" y="45" width="1" height="1" fill="#2F2D2D" />
<rect x="9" y="45" width="1" height="1" fill="#2F2D2D" />
<rect x="11" y="45" width="4" height="1" fill="#2F2D2D" />
<rect x="32" y="45" width="27" height="1" fill="#2F2D2D" />
<rect x="6" y="46" width="25" height="1" fill="#262222" />
<rect x="31" y="46" width="1" height="1" fill="#211D1D" />
<rect x="32" y="46" width="27" height="1" fill="#242121" />
<rect x="5" y="47" width="54" height="1" fill="#373434" />
<rect x="5" y="48" width="27" height="1" fill="#2C2B2B" />
<rect x="32" y="48" width="27" height="1" fill="#262323" />
<rect x="5" y="49" width="1" height="7" fill="#2C2B2B" />
<rect x="6" y="49" width="26" height="1" fill="#212020" />
<rect x="32" y="49" width="26" height="1" fill="#191616" />
<rect x="58" y="49" width="1" height="7" fill="#262323" />
<rect x="6" y="50" width="21" height="1" fill="#2F2B2B" />
<rect x="27" y="50" width="4" height="1" fill="#343030" />
<rect x="31" y="50" width="1" height="5" fill="#212020" />
<rect x="32" y="50" width="20" height="1" fill="#191616" />
<rect x="52" y="50" width="3" height="1" fill="#C3BDBD" />
<rect x="55" y="50" width="3" height="1" fill="#191616" />
<rect x="6" y="51" width="25" height="4" fill="#212020" />
<rect x="32" y="51" width="19" height="5" fill="#191616" />
<rect x="51" y="51" width="1" height="3" fill="#C3BDBD" />
<rect x="52" y="51" width="1" height="1" fill="#191616" />
<rect x="53" y="51" width="1" height="1" fill="#C3BDBD" />
<rect x="54" y="51" width="1" height="1" fill="#191616" />
<rect x="55" y="51" width="1" height="3" fill="#C3BDBD" />
<rect x="56" y="51" width="2" height="5" fill="#191616" />
<rect x="52" y="52" width="1" height="1" fill="#C3BDBD" />
<rect x="53" y="52" width="1" height="1" fill="#191616" />
<rect x="54" y="52" width="1" height="1" fill="#C3BDBD" />
<rect x="52" y="53" width="1" height="1" fill="#191616" />
<rect x="53" y="53" width="1" height="2" fill="#C3BDBD" />
<rect x="54" y="53" width="1" height="1" fill="#191616" />
<rect x="51" y="54" width="1" height="2" fill="#191616" />
<rect x="52" y="54" width="1" height="1" fill="#C3BDBD" />
<rect x="54" y="54" width="1" height="1" fill="#C3BDBD" />
<rect x="55" y="54" width="1" height="2" fill="#191616" />
<rect x="6" y="55" width="26" height="1" fill="#161515" />
<rect x="52" y="55" width="3" height="1" fill="#191616" />
<rect x="5" y="56" width="54" height="1" fill="#3A3838" />
<rect x="5" y="57" width="54" height="1" fill="#000000" />
</svg>